{"glyphs":{"0":{"ha":751,"x_min":76,"x_max":675,"o":"m 375 -8 q 258 8 313 -8 q 163 60 203 24 q 99 153 122 96 q 76 294 76 211 l 76 713 q 99 853 76 796 q 163 947 122 911 q 258 999 203 983 q 375 1015 313 1015 q 492 999 438 1015 q 588 947 547 983 q 652 853 629 911 q 675 713 675 796 l 675 294 q 652 153 675 211 q 588 60 629 96 q 492 8 547 24 q 375 -8 438 -8 m 558 713 q 510 862 558 814 q 375 910 461 910 q 241 862 289 910 q 193 713 193 814 l 193 294 q 241 145 193 193 q 375 97 289 97 q 510 145 461 97 q 558 294 558 193 l 558 713 m 376 557 q 415 542 400 557 q 431 503 431 526 q 415 463 431 479 q 376 447 400 447 q 336 463 351 447 q 321 503 321 479 q 336 542 321 526 q 376 557 351 557 z "},"1":{"ha":344,"x_min":13,"x_max":253,"o":"m 136 842 l 85 765 q 56 750 71 750 q 24 765 36 750 q 13 799 13 779 q 20 826 13 811 q 38 847 28 840 l 165 999 q 181 1011 172 1006 q 201 1017 189 1017 q 237 1006 221 1017 q 253 975 253 994 l 253 42 q 235 10 253 21 q 194 0 217 0 q 154 10 172 0 q 136 42 136 21 l 136 842 z "},"2":{"ha":672,"x_min":44,"x_max":632,"o":"m 67 778 q 88 874 67 831 q 147 949 110 918 q 233 998 183 981 q 338 1015 282 1015 q 450 995 397 1015 q 541 939 503 975 q 601 853 579 903 q 624 744 624 803 q 590 610 624 669 q 505 503 556 551 q 394 413 454 454 q 284 334 335 372 q 199 258 233 296 q 165 176 165 219 l 165 106 l 592 106 q 620 90 608 106 q 632 53 632 75 q 620 17 632 33 q 592 0 608 0 l 97 0 q 63 11 81 0 q 44 42 44 22 l 44 176 q 78 281 44 233 q 164 373 113 329 q 276 458 215 417 q 388 542 336 499 q 473 635 439 586 q 507 740 507 683 q 497 799 507 769 q 465 853 486 829 q 413 892 444 878 q 338 907 381 907 q 226 870 271 907 q 181 756 181 833 q 165 724 181 738 q 119 710 149 710 q 81 724 94 710 q 67 778 67 739 z "},"3":{"ha":690,"x_min":36,"x_max":635,"o":"m 332 97 q 471 143 424 97 q 518 289 518 189 l 518 315 q 467 446 518 407 q 332 485 417 485 q 301 499 310 485 q 292 533 292 514 q 301 567 292 551 q 332 582 310 582 q 399 589 369 582 q 450 615 429 596 q 482 666 471 633 q 493 749 493 699 q 455 872 493 833 q 338 911 417 911 q 257 899 289 911 q 207 867 225 886 q 182 824 189 847 q 175 778 175 800 q 163 740 175 754 q 119 726 150 726 q 70 739 82 726 q 58 786 58 751 q 71 857 58 817 q 115 932 83 897 q 201 991 147 967 q 340 1015 256 1015 q 447 1002 399 1015 q 531 960 496 989 q 586 884 567 931 q 606 769 606 838 q 574 619 606 678 q 493 536 542 560 q 594 458 554 511 q 635 315 635 406 l 635 289 q 611 151 635 207 q 546 59 588 94 q 449 8 504 24 q 332 -8 394 -8 q 199 14 254 -8 q 107 70 143 36 q 53 146 71 104 q 36 228 36 188 q 49 271 36 260 q 90 282 61 282 q 138 270 126 282 q 150 236 150 258 q 160 190 150 214 q 191 144 169 165 q 247 110 213 124 q 332 97 282 97 z "},"4":{"ha":639,"x_min":7,"x_max":629,"o":"m 397 233 l 50 233 q 19 246 31 233 q 7 279 7 258 q 14 306 7 294 l 357 982 q 410 1015 375 1015 q 447 1003 426 1015 q 467 969 467 990 q 461 950 467 960 l 157 344 l 397 344 l 397 578 q 415 608 397 599 q 456 618 433 618 q 496 608 478 618 q 514 578 514 599 l 514 344 l 588 344 q 619 327 608 344 q 629 289 629 310 q 617 251 629 268 q 588 233 606 233 l 514 233 l 514 42 q 496 10 514 21 q 456 0 478 0 q 415 10 433 0 q 397 42 397 21 l 397 233 z "},"5":{"ha":674,"x_min":35,"x_max":633,"o":"m 335 606 q 452 590 397 606 q 547 540 507 575 q 610 451 588 506 q 633 318 633 397 l 633 292 q 610 153 633 210 q 547 60 588 96 q 451 8 506 24 q 335 -8 397 -8 q 207 11 263 -8 q 113 64 151 31 q 55 140 75 97 q 35 232 35 183 q 51 276 35 264 q 93 288 67 288 q 139 274 126 288 q 151 240 151 261 q 204 134 151 171 q 333 97 257 97 q 468 144 419 97 q 517 292 517 192 l 517 318 q 468 462 517 415 q 335 508 419 508 l 138 508 q 94 522 106 508 q 83 554 83 535 q 84 569 83 560 q 86 585 85 578 l 115 974 q 124 1004 117 993 q 146 1015 132 1015 l 546 1015 q 574 999 565 1015 q 583 963 583 982 q 574 926 583 943 q 546 910 565 910 l 217 910 l 196 606 l 335 606 z "},"6":{"ha":731,"x_min":76,"x_max":675,"o":"m 396 604 q 505 590 454 604 q 594 544 556 576 q 653 458 632 511 q 675 324 675 404 l 675 294 q 652 153 675 211 q 589 60 629 96 q 494 8 549 24 q 376 -8 439 -8 q 259 8 314 -8 q 163 60 204 24 q 99 153 122 96 q 76 294 76 211 l 76 713 q 100 853 76 796 q 164 947 124 911 q 260 999 204 983 q 381 1015 315 1015 q 509 994 454 1015 q 601 940 564 974 q 656 862 638 906 q 675 774 675 818 q 661 733 675 744 q 621 722 647 722 q 578 732 597 722 q 560 768 560 742 q 545 827 560 801 q 506 872 531 853 q 449 900 482 890 q 378 910 415 910 q 242 862 290 910 q 193 713 193 814 l 193 518 q 281 584 229 564 q 396 604 333 604 m 193 289 q 242 139 193 186 q 376 92 290 92 q 510 139 463 92 q 558 289 558 186 l 558 318 q 510 464 558 421 q 376 507 463 507 q 243 467 293 507 q 193 331 193 426 l 193 289 z "},"7":{"ha":653,"x_min":33,"x_max":632,"o":"m 632 844 q 626 816 632 832 q 613 785 621 800 l 218 17 q 181 -3 208 -3 q 131 13 153 -3 q 110 53 110 28 q 115 76 110 65 l 515 831 l 515 910 l 150 910 l 150 764 q 133 734 150 746 q 92 722 115 722 q 51 734 68 722 q 33 764 33 746 l 33 974 q 50 1002 33 989 q 86 1015 67 1015 l 579 1015 q 615 1002 597 1015 q 632 974 632 989 l 632 844 z "},"8":{"ha":710,"x_min":56,"x_max":654,"o":"m 356 1015 q 463 1003 414 1015 q 549 961 513 990 q 605 885 585 932 q 625 771 625 839 q 591 630 625 682 q 500 554 557 578 q 612 465 569 526 q 654 294 654 403 l 654 278 q 631 146 654 200 q 568 57 608 92 q 473 7 528 22 q 356 -8 418 -8 q 237 7 292 -8 q 142 57 182 22 q 78 146 101 92 q 56 278 56 200 l 56 294 q 98 465 56 403 q 211 554 140 526 q 119 630 153 578 q 85 771 85 682 q 105 885 85 839 q 162 961 125 932 q 248 1003 199 990 q 356 1015 297 1015 m 538 311 q 489 457 538 411 q 356 503 440 503 q 221 457 269 503 q 172 311 172 411 l 172 289 q 221 139 172 186 q 356 92 269 92 q 490 140 442 92 q 538 289 538 189 l 538 311 m 356 915 q 240 879 281 915 q 199 760 199 843 q 240 640 199 676 q 356 603 281 603 q 471 640 429 603 q 513 760 513 676 q 471 879 513 843 q 356 915 429 915 z "},"9":{"ha":731,"x_min":56,"x_max":654,"o":"m 335 403 q 226 417 276 403 q 138 463 175 431 q 78 549 100 496 q 56 683 56 603 l 56 713 q 78 853 56 796 q 142 947 101 911 q 237 999 182 983 q 354 1015 292 1015 q 473 999 418 1015 q 568 947 528 983 q 631 853 608 911 q 654 713 654 796 l 654 294 q 631 153 654 211 q 567 60 607 96 q 470 8 526 24 q 350 -8 414 -8 q 222 13 276 -8 q 130 67 167 33 q 74 145 93 101 q 56 233 56 189 q 69 274 56 263 q 111 285 83 285 q 153 275 135 285 q 172 239 172 265 q 187 180 172 206 q 226 135 201 154 q 283 107 250 117 q 353 97 315 97 q 489 145 440 97 q 538 294 538 193 l 538 489 q 450 423 503 443 q 335 403 397 403 m 538 718 q 490 868 538 821 q 354 915 442 915 q 220 868 268 915 q 172 718 172 821 l 172 689 q 220 543 172 586 q 356 500 268 500 q 488 540 439 500 q 538 676 538 581 l 538 718 z "},"A":{"ha":764,"x_min":24,"x_max":739,"o":"m 94 0 q 47 13 71 0 q 24 49 24 26 q 26 60 24 51 l 310 983 q 338 1014 317 1004 q 382 1024 358 1024 q 426 1013 406 1024 q 454 983 447 1003 l 738 60 q 738 55 738 57 q 739 50 739 53 q 715 15 739 29 q 667 0 692 0 q 640 6 651 0 q 625 26 629 13 l 564 233 l 199 233 l 138 26 q 94 0 129 0 m 536 329 l 382 851 l 225 329 l 536 329 z "},"Æ":{"ha":1021,"x_min":94,"x_max":990,"o":"m 626 557 l 821 557 q 851 542 840 557 q 861 507 861 526 q 851 475 861 490 q 821 460 842 460 l 626 460 l 626 106 l 950 106 q 980 90 969 106 q 990 51 990 74 q 981 16 990 32 q 950 0 971 0 l 563 0 q 526 10 543 0 q 510 42 510 21 l 510 460 l 206 460 l 206 49 q 197 14 206 28 q 147 0 188 0 q 107 14 119 0 q 94 49 94 28 l 94 713 q 117 853 94 796 q 180 947 140 911 q 274 999 219 983 q 389 1015 328 1015 l 950 1015 q 981 999 971 1015 q 990 964 990 983 q 980 926 990 942 q 950 910 969 910 l 626 910 l 626 557 m 206 557 l 510 557 l 510 910 l 389 910 q 254 862 303 910 q 206 713 206 814 l 206 557 z "},"Ǽ":{"ha":1021,"x_min":94,"x_max":990,"o":"m 503 1163 q 495 1158 499 1160 q 488 1157 492 1157 q 458 1172 469 1157 q 446 1204 446 1188 q 464 1235 446 1225 l 626 1321 q 640 1324 635 1324 q 669 1308 658 1324 q 679 1276 679 1293 q 675 1258 679 1267 q 660 1243 671 1249 l 503 1163 m 626 557 l 821 557 q 851 542 840 557 q 861 507 861 526 q 851 475 861 490 q 821 460 842 460 l 626 460 l 626 106 l 950 106 q 980 90 969 106 q 990 51 990 74 q 981 16 990 32 q 950 0 971 0 l 563 0 q 526 10 543 0 q 510 42 510 21 l 510 460 l 206 460 l 206 49 q 197 14 206 28 q 147 0 188 0 q 107 14 119 0 q 94 49 94 28 l 94 713 q 117 853 94 796 q 180 947 140 911 q 274 999 219 983 q 389 1015 328 1015 l 950 1015 q 981 999 971 1015 q 990 964 990 983 q 980 926 990 942 q 950 910 969 910 l 626 910 l 626 557 m 206 557 l 510 557 l 510 910 l 389 910 q 254 862 303 910 q 206 713 206 814 l 206 557 z "},"Á":{"ha":764,"x_min":24,"x_max":739,"o":"m 94 0 q 47 13 71 0 q 24 49 24 26 q 26 60 24 51 l 310 983 q 338 1014 317 1004 q 382 1024 358 1024 q 426 1013 406 1024 q 454 983 447 1003 l 738 60 q 738 55 738 57 q 739 50 739 53 q 715 15 739 29 q 667 0 692 0 q 640 6 651 0 q 625 26 629 13 l 564 233 l 199 233 l 138 26 q 94 0 129 0 m 536 329 l 382 851 l 225 329 l 536 329 m 343 1165 q 335 1161 339 1163 q 328 1160 332 1160 q 298 1175 310 1160 q 286 1207 286 1190 q 304 1238 286 1228 l 467 1324 q 481 1326 475 1326 q 509 1311 499 1326 q 519 1279 519 1296 q 515 1260 519 1269 q 500 1246 511 1251 l 343 1165 z "},"Ă":{"ha":764,"x_min":24,"x_max":739,"o":"m 94 0 q 47 13 71 0 q 24 49 24 26 q 26 60 24 51 l 310 983 q 338 1014 317 1004 q 382 1024 358 1024 q 426 1013 406 1024 q 454 983 447 1003 l 738 60 q 738 55 738 57 q 739 50 739 53 q 715 15 739 29 q 667 0 692 0 q 640 6 651 0 q 625 26 629 13 l 564 233 l 199 233 l 138 26 q 94 0 129 0 m 536 329 l 382 851 l 225 329 l 536 329 m 549 1343 q 535 1279 549 1310 q 497 1226 521 1249 q 444 1189 474 1203 q 381 1175 414 1175 q 317 1189 347 1175 q 264 1226 288 1203 q 226 1279 240 1249 q 213 1343 213 1310 l 283 1343 q 313 1265 283 1296 q 381 1233 343 1233 q 448 1265 418 1233 q 478 1343 478 1296 l 549 1343 z "},"Â":{"ha":764,"x_min":24,"x_max":739,"o":"m 94 0 q 47 13 71 0 q 24 49 24 26 q 26 60 24 51 l 310 983 q 338 1014 317 1004 q 382 1024 358 1024 q 426 1013 406 1024 q 454 983 447 1003 l 738 60 q 738 55 738 57 q 739 50 739 53 q 715 15 739 29 q 667 0 692 0 q 640 6 651 0 q 625 26 629 13 l 564 233 l 199 233 l 138 26 q 94 0 129 0 m 536 329 l 382 851 l 225 329 l 536 329 m 236 1169 q 224 1165 229 1165 q 201 1178 211 1165 q 192 1206 192 1190 q 197 1226 192 1217 q 213 1242 201 1236 l 357 1319 q 381 1326 371 1326 q 404 1319 393 1326 l 549 1243 q 571 1204 571 1231 q 562 1177 571 1189 q 539 1165 553 1165 q 533 1167 536 1165 q 525 1169 529 1168 l 381 1247 l 236 1169 z "},"Ä":{"ha":764,"x_min":24,"x_max":739,"o":"m 94 0 q 47 13 71 0 q 24 49 24 26 q 26 60 24 51 l 310 983 q 338 1014 317 1004 q 382 1024 358 1024 q 426 1013 406 1024 q 454 983 447 1003 l 738 60 q 738 55 738 57 q 739 50 739 53 q 715 15 739 29 q 667 0 692 0 q 640 6 651 0 q 625 26 629 13 l 564 233 l 199 233 l 138 26 q 94 0 129 0 m 536 329 l 382 851 l 225 329 l 536 329 m 292 1281 q 331 1264 315 1281 q 347 1224 347 1247 q 331 1183 347 1200 q 292 1165 315 1165 q 251 1183 268 1165 q 235 1224 235 1200 q 251 1264 235 1247 q 292 1281 268 1281 m 472 1281 q 512 1264 496 1281 q 528 1224 528 1247 q 512 1183 528 1200 q 472 1165 496 1165 q 433 1183 449 1165 q 417 1224 417 1200 q 433 1264 417 1247 q 472 1281 449 1281 z "},"À":{"ha":764,"x_min":24,"x_max":739,"o":"m 94 0 q 47 13 71 0 q 24 49 24 26 q 26 60 24 51 l 310 983 q 338 1014 317 1004 q 382 1024 358 1024 q 426 1013 406 1024 q 454 983 447 1003 l 738 60 q 738 55 738 57 q 739 50 739 53 q 715 15 739 29 q 667 0 692 0 q 640 6 651 0 q 625 26 629 13 l 564 233 l 199 233 l 138 26 q 94 0 129 0 m 536 329 l 382 851 l 225 329 l 536 329 m 275 1246 q 260 1260 264 1251 q 256 1279 256 1269 q 267 1311 256 1296 q 294 1326 278 1326 q 308 1324 300 1326 l 471 1238 q 489 1207 489 1228 q 477 1175 489 1190 q 447 1160 465 1160 q 432 1165 443 1160 l 275 1246 z "},"Ā":{"ha":764,"x_min":24,"x_max":739,"o":"m 94 0 q 47 13 71 0 q 24 49 24 26 q 26 60 24 51 l 310 983 q 338 1014 317 1004 q 382 1024 358 1024 q 426 1013 406 1024 q 454 983 447 1003 l 738 60 q 738 55 738 57 q 739 50 739 53 q 715 15 739 29 q 667 0 692 0 q 640 6 651 0 q 625 26 629 13 l 564 233 l 199 233 l 138 26 q 94 0 129 0 m 536 329 l 382 851 l 225 329 l 536 329 m 193 1263 q 204 1293 193 1281 q 233 1306 215 1306 l 528 1306 q 556 1293 543 1306 q 569 1263 569 1281 q 556 1232 569 1243 q 528 1221 543 1221 l 233 1221 q 204 1232 215 1221 q 193 1263 193 1243 z "},"Ą":{"ha":764,"x_min":24,"x_max":739,"o":"m 681 -226 q 701 -235 694 -226 q 708 -257 708 -244 q 701 -276 708 -269 q 672 -283 694 -283 q 572 -257 613 -283 q 531 -174 531 -231 q 558 -72 531 -121 q 629 15 585 -24 l 564 233 l 199 233 l 138 26 q 94 0 129 0 q 47 13 71 0 q 24 49 24 26 q 26 60 24 51 l 310 983 q 338 1014 317 1004 q 382 1024 358 1024 q 426 1013 406 1024 q 454 983 447 1003 l 738 60 q 738 55 738 57 q 739 50 739 53 q 726 24 739 35 q 696 6 714 13 q 624 -73 653 -31 q 596 -164 596 -115 q 681 -226 596 -226 m 536 329 l 382 851 l 225 329 l 536 329 z "},"Å":{"ha":764,"x_min":24,"x_max":739,"o":"m 94 0 q 47 13 71 0 q 24 49 24 26 q 26 60 24 51 l 310 983 q 338 1014 317 1004 q 382 1024 358 1024 q 426 1013 406 1024 q 454 983 447 1003 l 738 60 q 738 55 738 57 q 739 50 739 53 q 715 15 739 29 q 667 0 692 0 q 640 6 651 0 q 625 26 629 13 l 564 233 l 199 233 l 138 26 q 94 0 129 0 m 536 329 l 382 851 l 225 329 l 536 329 m 381 1415 q 429 1404 406 1415 q 471 1375 453 1393 q 500 1333 489 1357 q 511 1283 511 1310 q 500 1233 511 1257 q 471 1190 489 1208 q 429 1160 453 1171 q 381 1149 406 1149 q 329 1160 353 1149 q 288 1190 306 1171 q 260 1233 271 1208 q 250 1283 250 1257 q 260 1333 250 1308 q 288 1375 269 1357 q 329 1404 306 1393 q 381 1415 353 1415 m 457 1283 q 435 1335 457 1311 q 381 1360 413 1360 q 326 1335 349 1360 q 303 1283 303 1311 q 326 1227 303 1253 q 381 1201 349 1201 q 435 1227 413 1201 q 457 1283 457 1253 z "},"Ã":{"ha":764,"x_min":24,"x_max":739,"o":"m 94 0 q 47 13 71 0 q 24 49 24 26 q 26 60 24 51 l 310 983 q 338 1014 317 1004 q 382 1024 358 1024 q 426 1013 406 1024 q 454 983 447 1003 l 738 60 q 738 55 738 57 q 739 50 739 53 q 715 15 739 29 q 667 0 692 0 q 640 6 651 0 q 625 26 629 13 l 564 233 l 199 233 l 138 26 q 94 0 129 0 m 536 329 l 382 851 l 225 329 l 536 329 m 297 1232 q 259 1226 275 1232 q 231 1212 243 1219 q 210 1198 219 1204 q 192 1192 201 1192 q 167 1206 174 1192 q 160 1232 160 1221 q 173 1271 160 1254 q 205 1297 186 1288 q 244 1312 224 1307 q 281 1317 265 1317 q 331 1310 308 1317 q 375 1294 354 1303 q 418 1278 396 1285 q 468 1271 440 1271 q 506 1276 490 1271 q 532 1290 521 1282 q 551 1303 543 1297 q 569 1308 560 1308 q 595 1294 588 1308 q 603 1269 603 1279 q 590 1228 603 1244 q 558 1203 576 1213 q 519 1190 539 1194 q 486 1186 500 1186 q 433 1193 456 1186 q 389 1209 410 1200 q 347 1225 368 1218 q 297 1232 325 1232 z "},"B":{"ha":757,"x_min":99,"x_max":697,"o":"m 99 974 q 115 1005 99 994 q 151 1015 132 1015 l 390 1015 q 499 1006 447 1015 q 588 969 550 996 q 649 897 626 943 q 672 778 672 850 q 640 632 672 690 q 554 550 608 574 q 613 519 586 538 q 658 472 639 500 q 687 406 676 444 q 697 314 697 367 l 697 289 q 676 154 697 210 q 617 65 654 99 q 531 15 581 31 q 422 0 481 0 l 151 0 q 113 13 128 0 q 99 40 99 25 l 99 974 m 403 106 q 533 151 486 106 q 581 296 581 196 l 581 319 q 533 460 581 419 q 403 501 486 501 l 215 501 l 215 106 l 403 106 m 215 599 l 389 599 q 515 636 474 599 q 556 761 556 674 q 543 831 556 803 q 508 877 531 860 q 454 902 486 894 q 385 910 422 910 l 215 910 l 215 599 z "},"C":{"ha":738,"x_min":89,"x_max":688,"o":"m 571 750 q 563 799 569 771 q 538 851 557 826 q 484 892 519 875 q 390 910 449 910 q 253 862 300 910 q 206 713 206 814 l 206 294 q 253 145 206 193 q 394 97 301 97 q 486 114 453 97 q 538 156 519 131 q 562 209 556 181 q 571 263 568 238 q 629 303 575 303 q 673 290 658 303 q 688 238 688 278 q 667 141 688 186 q 607 63 646 96 q 512 10 568 29 q 386 -8 456 -8 q 271 8 325 -8 q 176 60 217 24 q 113 153 136 96 q 89 294 89 211 l 89 713 q 113 853 89 796 q 177 947 136 911 q 272 999 218 983 q 388 1015 326 1015 q 513 997 457 1015 q 607 945 568 978 q 667 869 646 913 q 688 774 688 825 q 673 722 688 733 q 629 710 658 710 q 571 750 574 710 z "},"\r":{"ha":0,"x_min":0,"x_max":0,"o":""},"Ć":{"ha":738,"x_min":89,"x_max":688,"o":"m 342 1165 q 334 1161 338 1163 q 326 1160 331 1160 q 297 1175 308 1160 q 285 1207 285 1190 q 303 1238 285 1228 l 465 1324 q 479 1326 474 1326 q 508 1311 497 1326 q 518 1279 518 1296 q 514 1260 518 1269 q 499 1246 510 1251 l 342 1165 m 571 750 q 563 799 569 771 q 538 851 557 826 q 484 892 519 875 q 390 910 449 910 q 253 862 300 910 q 206 713 206 814 l 206 294 q 253 145 206 193 q 394 97 301 97 q 486 114 453 97 q 538 156 519 131 q 562 209 556 181 q 571 263 568 238 q 629 303 575 303 q 673 290 658 303 q 688 238 688 278 q 667 141 688 186 q 607 63 646 96 q 512 10 568 29 q 386 -8 456 -8 q 271 8 325 -8 q 176 60 217 24 q 113 153 136 96 q 89 294 89 211 l 89 713 q 113 853 89 796 q 177 947 136 911 q 272 999 218 983 q 388 1015 326 1015 q 513 997 457 1015 q 607 945 568 978 q 667 869 646 913 q 688 774 688 825 q 673 722 688 733 q 629 710 658 710 q 571 750 574 710 z "},"Č":{"ha":738,"x_min":89,"x_max":688,"o":"m 386 1239 l 526 1356 q 536 1363 531 1361 q 546 1364 542 1364 q 567 1352 558 1364 q 575 1326 575 1340 q 554 1289 575 1303 l 414 1174 q 386 1161 399 1161 q 360 1174 372 1161 l 218 1289 q 199 1326 199 1303 q 206 1352 199 1340 q 228 1364 214 1364 q 247 1356 239 1364 l 386 1239 m 571 750 q 563 799 569 771 q 538 851 557 826 q 484 892 519 875 q 390 910 449 910 q 253 862 300 910 q 206 713 206 814 l 206 294 q 253 145 206 193 q 394 97 301 97 q 486 114 453 97 q 538 156 519 131 q 562 209 556 181 q 571 263 568 238 q 629 303 575 303 q 673 290 658 303 q 688 238 688 278 q 667 141 688 186 q 607 63 646 96 q 512 10 568 29 q 386 -8 456 -8 q 271 8 325 -8 q 176 60 217 24 q 113 153 136 96 q 89 294 89 211 l 89 713 q 113 853 89 796 q 177 947 136 911 q 272 999 218 983 q 388 1015 326 1015 q 513 997 457 1015 q 607 945 568 978 q 667 869 646 913 q 688 774 688 825 q 673 722 688 733 q 629 710 658 710 q 571 750 574 710 z "},"Ç":{"ha":738,"x_min":89,"x_max":688,"o":"m 571 750 q 563 799 569 771 q 538 851 557 826 q 484 892 519 875 q 390 910 449 910 q 253 862 300 910 q 206 713 206 814 l 206 294 q 253 145 206 193 q 394 97 301 97 q 486 114 453 97 q 538 156 519 131 q 562 209 556 181 q 571 263 568 238 q 629 303 575 303 q 673 290 658 303 q 688 238 688 278 q 670 149 688 190 q 620 75 653 107 q 540 22 588 43 q 435 -6 493 0 l 415 -81 q 517 -113 486 -83 q 549 -182 549 -143 q 541 -222 549 -201 q 518 -258 533 -242 q 478 -284 503 -274 q 419 -294 454 -294 q 385 -292 404 -294 q 349 -285 365 -290 q 320 -274 332 -281 q 308 -257 308 -267 q 315 -234 308 -250 q 333 -218 321 -218 q 360 -228 343 -218 q 411 -237 378 -237 q 466 -223 449 -237 q 483 -186 483 -208 q 462 -145 483 -158 q 401 -129 440 -132 l 342 -125 l 372 -8 q 262 10 314 -7 q 172 64 210 28 q 111 157 133 100 q 89 294 89 214 l 89 713 q 113 853 89 796 q 177 947 136 911 q 272 999 218 983 q 388 1015 326 1015 q 513 997 457 1015 q 607 945 568 978 q 667 869 646 913 q 688 774 688 825 q 673 722 688 733 q 629 710 658 710 q 571 750 574 710 z "},"Ĉ":{"ha":738,"x_min":89,"x_max":688,"o":"m 243 1169 q 231 1165 236 1165 q 208 1178 218 1165 q 199 1206 199 1190 q 203 1226 199 1217 q 219 1242 208 1236 l 364 1319 q 388 1326 378 1326 q 411 1319 400 1326 l 556 1243 q 578 1204 578 1231 q 569 1177 578 1189 q 546 1165 560 1165 q 540 1167 543 1165 q 532 1169 536 1168 l 388 1247 l 243 1169 m 571 750 q 563 799 569 771 q 538 851 557 826 q 484 892 519 875 q 390 910 449 910 q 253 862 300 910 q 206 713 206 814 l 206 294 q 253 145 206 193 q 394 97 301 97 q 486 114 453 97 q 538 156 519 131 q 562 209 556 181 q 571 263 568 238 q 629 303 575 303 q 673 290 658 303 q 688 238 688 278 q 667 141 688 186 q 607 63 646 96 q 512 10 568 29 q 386 -8 456 -8 q 271 8 325 -8 q 176 60 217 24 q 113 153 136 96 q 89 294 89 211 l 89 713 q 113 853 89 796 q 177 947 136 911 q 272 999 218 983 q 388 1015 326 1015 q 513 997 457 1015 q 607 945 568 978 q 667 869 646 913 q 688 774 688 825 q 673 722 688 733 q 629 710 658 710 q 571 750 574 710 z "},"Ċ":{"ha":738,"x_min":89,"x_max":688,"o":"m 571 750 q 563 799 569 771 q 538 851 557 826 q 484 892 519 875 q 390 910 449 910 q 253 862 300 910 q 206 713 206 814 l 206 294 q 253 145 206 193 q 394 97 301 97 q 486 114 453 97 q 538 156 519 131 q 562 209 556 181 q 571 263 568 238 q 629 303 575 303 q 673 290 658 303 q 688 238 688 278 q 667 141 688 186 q 607 63 646 96 q 512 10 568 29 q 386 -8 456 -8 q 271 8 325 -8 q 176 60 217 24 q 113 153 136 96 q 89 294 89 211 l 89 713 q 113 853 89 796 q 177 947 136 911 q 272 999 218 983 q 388 1015 326 1015 q 513 997 457 1015 q 607 945 568 978 q 667 869 646 913 q 688 774 688 825 q 673 722 688 733 q 629 710 658 710 q 571 750 574 710 m 390 1281 q 430 1264 414 1281 q 446 1224 446 1247 q 430 1183 446 1200 q 390 1165 414 1165 q 350 1183 367 1165 q 333 1224 333 1200 q 350 1264 333 1247 q 390 1281 367 1281 z "},"D":{"ha":786,"x_min":99,"x_max":697,"o":"m 397 1015 q 515 999 460 1015 q 610 947 569 983 q 674 853 651 911 q 697 713 697 796 l 697 303 q 674 162 697 219 q 610 68 651 104 q 515 16 569 32 q 397 0 460 0 l 151 0 q 113 13 128 0 q 99 40 99 25 l 99 975 q 113 1003 99 990 q 151 1015 128 1015 l 397 1015 m 215 910 l 215 106 l 397 106 q 532 153 483 106 q 581 303 581 201 l 581 713 q 532 862 581 814 q 397 910 483 910 l 215 910 z "},"Ď":{"ha":786,"x_min":99,"x_max":697,"o":"m 382 1239 l 522 1356 q 532 1363 526 1361 q 542 1364 538 1364 q 563 1352 554 1364 q 571 1326 571 1340 q 550 1289 571 1303 l 410 1174 q 382 1161 394 1161 q 356 1174 368 1161 l 214 1289 q 194 1326 194 1303 q 202 1352 194 1340 q 224 1364 210 1364 q 243 1356 235 1364 l 382 1239 m 397 1015 q 515 999 460 1015 q 610 947 569 983 q 674 853 651 911 q 697 713 697 796 l 697 303 q 674 162 697 219 q 610 68 651 104 q 515 16 569 32 q 397 0 460 0 l 151 0 q 113 13 128 0 q 99 40 99 25 l 99 975 q 113 1003 99 990 q 151 1015 128 1015 l 397 1015 m 215 910 l 215 106 l 397 106 q 532 153 483 106 q 581 303 581 201 l 581 713 q 532 862 581 814 q 397 910 483 910 l 215 910 z "},"Đ":{"ha":797,"x_min":-4,"x_max":708,"o":"m 408 1015 q 526 999 471 1015 q 622 947 581 983 q 685 853 663 911 q 708 713 708 796 l 708 303 q 685 162 708 219 q 622 68 663 104 q 526 16 581 32 q 408 0 471 0 l 163 0 q 124 13 139 0 q 110 40 110 25 l 110 488 l 31 488 q 5 501 14 488 q -4 532 -4 514 q 5 564 -4 550 q 31 578 14 578 l 110 578 l 110 975 q 124 1003 110 990 q 163 1015 139 1015 l 408 1015 m 226 910 l 226 578 l 369 578 q 395 564 385 578 q 406 532 406 550 q 395 501 406 514 q 369 488 385 488 l 226 488 l 226 106 l 408 106 q 543 153 494 106 q 592 303 592 201 l 592 713 q 543 862 592 814 q 408 910 494 910 l 226 910 z "},"∆":{"ha":746,"x_min":32,"x_max":714,"o":"m 710 67 q 714 43 714 54 q 664 0 714 0 l 82 0 q 32 43 32 0 q 36 67 32 54 l 301 979 q 374 1024 315 1024 q 446 979 432 1024 l 710 67 m 579 106 l 374 857 l 167 106 l 579 106 z "},"E":{"ha":714,"x_min":99,"x_max":686,"o":"m 215 557 l 432 557 q 462 542 451 557 q 472 507 472 526 q 463 475 472 490 q 432 460 453 460 l 215 460 l 215 106 l 646 106 q 676 90 665 106 q 686 51 686 74 q 676 16 686 32 q 646 0 667 0 l 151 0 q 115 10 132 0 q 99 42 99 21 l 99 974 q 115 1005 99 994 q 151 1015 132 1015 l 646 1015 q 676 999 667 1015 q 686 964 686 983 q 676 926 686 942 q 646 910 665 910 l 215 910 l 215 557 z "},"É":{"ha":714,"x_min":99,"x_max":686,"o":"m 346 1165 q 338 1161 342 1163 q 331 1160 335 1160 q 301 1175 313 1160 q 289 1207 289 1190 q 307 1238 289 1228 l 469 1324 q 483 1326 478 1326 q 512 1311 501 1326 q 522 1279 522 1296 q 518 1260 522 1269 q 503 1246 514 1251 l 346 1165 m 215 557 l 432 557 q 462 542 451 557 q 472 507 472 526 q 463 475 472 490 q 432 460 453 460 l 215 460 l 215 106 l 646 106 q 676 90 665 106 q 686 51 686 74 q 676 16 686 32 q 646 0 667 0 l 151 0 q 115 10 132 0 q 99 42 99 21 l 99 974 q 115 1005 99 994 q 151 1015 132 1015 l 646 1015 q 676 999 667 1015 q 686 964 686 983 q 676 926 686 942 q 646 910 665 910 l 215 910 l 215 557 z "},"Ĕ":{"ha":714,"x_min":99,"x_max":686,"o":"m 215 557 l 432 557 q 462 542 451 557 q 472 507 472 526 q 463 475 472 490 q 432 460 453 460 l 215 460 l 215 106 l 646 106 q 676 90 665 106 q 686 51 686 74 q 676 16 686 32 q 646 0 667 0 l 151 0 q 115 10 132 0 q 99 42 99 21 l 99 974 q 115 1005 99 994 q 151 1015 132 1015 l 646 1015 q 676 999 667 1015 q 686 964 686 983 q 676 926 686 942 q 646 910 665 910 l 215 910 l 215 557 m 558 1343 q 544 1279 558 1310 q 507 1226 531 1249 q 453 1189 483 1203 q 390 1175 424 1175 q 327 1189 357 1175 q 274 1226 297 1203 q 236 1279 250 1249 q 222 1343 222 1310 l 293 1343 q 323 1265 293 1296 q 390 1233 353 1233 q 458 1265 428 1233 q 488 1343 488 1296 l 558 1343 z "},"Ě":{"ha":714,"x_min":99,"x_max":686,"o":"m 389 1239 l 529 1356 q 539 1363 533 1361 q 549 1364 544 1364 q 569 1352 561 1364 q 578 1326 578 1340 q 557 1289 578 1303 l 417 1174 q 389 1161 401 1161 q 363 1174 375 1161 l 221 1289 q 201 1326 201 1303 q 209 1352 201 1340 q 231 1364 217 1364 q 250 1356 242 1364 l 389 1239 m 215 557 l 432 557 q 462 542 451 557 q 472 507 472 526 q 463 475 472 490 q 432 460 453 460 l 215 460 l 215 106 l 646 106 q 676 90 665 106 q 686 51 686 74 q 676 16 686 32 q 646 0 667 0 l 151 0 q 115 10 132 0 q 99 42 99 21 l 99 974 q 115 1005 99 994 q 151 1015 132 1015 l 646 1015 q 676 999 667 1015 q 686 964 686 983 q 676 926 686 942 q 646 910 665 910 l 215 910 l 215 557 z "},"Ê":{"ha":714,"x_min":99,"x_max":686,"o":"m 251 1169 q 239 1165 244 1165 q 217 1178 226 1165 q 207 1206 207 1190 q 212 1226 207 1217 q 228 1242 217 1236 l 372 1319 q 396 1326 386 1326 q 419 1319 408 1326 l 564 1243 q 586 1204 586 1231 q 577 1177 586 1189 q 554 1165 568 1165 q 548 1167 551 1165 q 540 1169 544 1168 l 396 1247 l 251 1169 m 215 557 l 432 557 q 462 542 451 557 q 472 507 472 526 q 463 475 472 490 q 432 460 453 460 l 215 460 l 215 106 l 646 106 q 676 90 665 106 q 686 51 686 74 q 676 16 686 32 q 646 0 667 0 l 151 0 q 115 10 132 0 q 99 42 99 21 l 99 974 q 115 1005 99 994 q 151 1015 132 1015 l 646 1015 q 676 999 667 1015 q 686 964 686 983 q 676 926 686 942 q 646 910 665 910 l 215 910 l 215 557 z "},"Ë":{"ha":714,"x_min":99,"x_max":686,"o":"m 303 1281 q 342 1264 326 1281 q 358 1224 358 1247 q 342 1183 358 1200 q 303 1165 326 1165 q 263 1183 279 1165 q 246 1224 246 1200 q 263 1264 246 1247 q 303 1281 279 1281 m 483 1281 q 523 1264 507 1281 q 539 1224 539 1247 q 523 1183 539 1200 q 483 1165 507 1165 q 444 1183 460 1165 q 428 1224 428 1200 q 444 1264 428 1247 q 483 1281 460 1281 m 215 557 l 432 557 q 462 542 451 557 q 472 507 472 526 q 463 475 472 490 q 432 460 453 460 l 215 460 l 215 106 l 646 106 q 676 90 665 106 q 686 51 686 74 q 676 16 686 32 q 646 0 667 0 l 151 0 q 115 10 132 0 q 99 42 99 21 l 99 974 q 115 1005 99 994 q 151 1015 132 1015 l 646 1015 q 676 999 667 1015 q 686 964 686 983 q 676 926 686 942 q 646 910 665 910 l 215 910 l 215 557 z "},"Ė":{"ha":714,"x_min":99,"x_max":686,"o":"m 215 557 l 432 557 q 462 542 451 557 q 472 507 472 526 q 463 475 472 490 q 432 460 453 460 l 215 460 l 215 106 l 646 106 q 676 90 665 106 q 686 51 686 74 q 676 16 686 32 q 646 0 667 0 l 151 0 q 115 10 132 0 q 99 42 99 21 l 99 974 q 115 1005 99 994 q 151 1015 132 1015 l 646 1015 q 676 999 667 1015 q 686 964 686 983 q 676 926 686 942 q 646 910 665 910 l 215 910 l 215 557 m 400 1281 q 440 1264 424 1281 q 456 1224 456 1247 q 440 1183 456 1200 q 400 1165 424 1165 q 360 1183 376 1165 q 343 1224 343 1200 q 360 1264 343 1247 q 400 1281 376 1281 z "},"È":{"ha":714,"x_min":99,"x_max":686,"o":"m 215 557 l 432 557 q 462 542 451 557 q 472 507 472 526 q 463 475 472 490 q 432 460 453 460 l 215 460 l 215 106 l 646 106 q 676 90 665 106 q 686 51 686 74 q 676 16 686 32 q 646 0 667 0 l 151 0 q 115 10 132 0 q 99 42 99 21 l 99 974 q 115 1005 99 994 q 151 1015 132 1015 l 646 1015 q 676 999 667 1015 q 686 964 686 983 q 676 926 686 942 q 646 910 665 910 l 215 910 l 215 557 m 292 1246 q 276 1260 281 1251 q 272 1279 272 1269 q 283 1311 272 1296 q 311 1326 294 1326 q 325 1324 317 1326 l 488 1238 q 506 1207 506 1228 q 494 1175 506 1190 q 464 1160 482 1160 q 449 1165 460 1160 l 292 1246 z "},"Ē":{"ha":714,"x_min":99,"x_max":686,"o":"m 215 557 l 432 557 q 462 542 451 557 q 472 507 472 526 q 463 475 472 490 q 432 460 453 460 l 215 460 l 215 106 l 646 106 q 676 90 665 106 q 686 51 686 74 q 676 16 686 32 q 646 0 667 0 l 151 0 q 115 10 132 0 q 99 42 99 21 l 99 974 q 115 1005 99 994 q 151 1015 132 1015 l 646 1015 q 676 999 667 1015 q 686 964 686 983 q 676 926 686 942 q 646 910 665 910 l 215 910 l 215 557 m 207 1263 q 218 1293 207 1281 q 247 1306 229 1306 l 542 1306 q 570 1293 557 1306 q 583 1263 583 1281 q 570 1232 583 1243 q 542 1221 557 1221 l 247 1221 q 218 1232 229 1221 q 207 1263 207 1243 z "},"Ŋ":{"ha":808,"x_min":99,"x_max":708,"o":"m 506 -217 q 551 -205 535 -217 q 577 -172 568 -193 q 589 -120 586 -150 q 592 -56 592 -90 l 592 4 q 576 53 592 24 l 215 751 l 215 42 q 197 10 215 21 q 157 0 179 0 q 117 10 135 0 q 99 42 99 21 l 99 975 q 116 1006 99 997 q 157 1015 133 1015 q 208 997 189 1015 q 246 942 226 978 l 592 265 l 592 975 q 610 1006 592 996 q 650 1015 628 1015 q 690 1006 672 1015 q 708 975 708 996 l 708 -56 q 697 -162 708 -114 q 663 -244 686 -210 q 604 -299 640 -279 q 518 -318 568 -318 q 471 -303 483 -318 q 458 -268 458 -287 q 472 -231 458 -244 q 506 -217 486 -217 z "},"Ę":{"ha":714,"x_min":99,"x_max":686,"o":"m 215 557 l 432 557 q 462 542 451 557 q 472 507 472 526 q 463 475 472 490 q 432 460 453 460 l 215 460 l 215 106 l 646 106 q 676 90 665 106 q 686 51 686 74 q 680 22 686 36 q 660 1 674 7 q 590 -75 618 -33 q 563 -164 563 -117 q 647 -226 563 -226 q 668 -235 661 -226 q 675 -257 675 -244 q 668 -276 675 -269 q 639 -283 661 -283 q 538 -257 579 -283 q 497 -174 497 -231 q 519 -81 497 -125 q 579 0 542 -36 l 151 0 q 115 10 132 0 q 99 42 99 21 l 99 974 q 115 1005 99 994 q 151 1015 132 1015 l 646 1015 q 676 999 667 1015 q 686 964 686 983 q 676 926 686 942 q 646 910 665 910 l 215 910 l 215 557 z "},"Ð":{"ha":797,"x_min":-4,"x_max":708,"o":"m 408 1015 q 526 999 471 1015 q 622 947 581 983 q 685 853 663 911 q 708 713 708 796 l 708 303 q 685 162 708 219 q 622 68 663 104 q 526 16 581 32 q 408 0 471 0 l 163 0 q 124 13 139 0 q 110 40 110 25 l 110 488 l 31 488 q 5 501 14 488 q -4 532 -4 514 q 5 564 -4 550 q 31 578 14 578 l 110 578 l 110 975 q 124 1003 110 990 q 163 1015 139 1015 l 408 1015 m 226 910 l 226 578 l 369 578 q 395 564 385 578 q 406 532 406 550 q 395 501 406 514 q 369 488 385 488 l 226 488 l 226 106 l 408 106 q 543 153 494 106 q 592 303 592 201 l 592 713 q 543 862 592 814 q 408 910 494 910 l 226 910 z "},"€":{"ha":821,"x_min":40,"x_max":760,"o":"m 278 285 q 288 212 278 246 q 321 152 299 178 q 378 112 343 126 q 463 97 414 97 q 597 143 550 97 q 643 263 643 189 q 701 301 643 301 q 745 290 731 301 q 760 244 760 278 q 738 142 760 189 q 677 63 717 96 q 582 10 638 29 q 458 -8 526 -8 q 242 65 324 -8 q 161 285 161 139 l 161 340 l 81 340 q 51 352 63 340 q 40 383 40 364 q 51 416 40 403 q 81 429 63 429 l 161 429 l 161 551 l 81 551 q 51 563 63 551 q 40 594 40 575 q 51 627 40 614 q 81 640 63 640 l 161 640 l 161 713 q 184 853 161 796 q 247 947 207 911 q 342 999 288 983 q 458 1015 396 1015 q 582 997 526 1015 q 677 947 638 979 q 738 868 717 914 q 760 767 760 822 q 745 723 760 735 q 701 711 731 711 q 643 750 643 711 q 598 863 643 817 q 461 910 553 910 q 326 862 374 910 q 278 713 278 814 l 278 640 l 483 640 q 512 628 499 640 q 525 596 525 615 q 512 564 525 576 q 483 551 499 551 l 278 551 l 278 429 l 483 429 q 512 416 499 429 q 525 383 525 403 q 512 352 525 364 q 483 340 499 340 l 278 340 l 278 285 z "},"F":{"ha":690,"x_min":99,"x_max":681,"o":"m 99 974 q 115 1005 99 994 q 151 1015 132 1015 l 640 1015 q 671 999 661 1015 q 681 964 681 983 q 670 926 681 942 q 640 910 660 910 l 215 910 l 215 557 l 432 557 q 462 542 451 557 q 472 507 472 526 q 463 475 472 490 q 432 460 453 460 l 215 460 l 215 40 q 197 10 215 19 q 157 0 179 0 q 117 10 135 0 q 99 40 99 19 l 99 974 z "},"G":{"ha":761,"x_min":89,"x_max":688,"o":"m 571 750 q 520 866 563 822 q 388 910 478 910 q 253 862 301 910 q 206 713 206 814 l 206 294 q 253 145 206 193 q 388 97 301 97 q 522 145 474 97 q 571 294 571 193 l 571 436 l 406 436 q 376 451 386 436 q 365 485 365 465 q 376 518 365 503 q 406 533 386 533 l 647 533 q 677 520 667 533 q 688 490 688 507 l 688 294 q 665 153 688 211 q 601 60 642 96 q 505 8 560 24 q 388 -8 450 -8 q 270 8 325 -8 q 175 60 215 24 q 112 153 135 96 q 89 294 89 211 l 89 713 q 112 853 89 796 q 175 947 135 911 q 269 999 215 983 q 385 1015 324 1015 q 509 997 453 1015 q 605 947 565 979 q 666 868 644 914 q 688 767 688 822 q 672 722 688 733 q 629 710 657 710 q 589 719 606 710 q 571 750 572 728 z "},"Ğ":{"ha":761,"x_min":89,"x_max":688,"o":"m 571 750 q 520 866 563 822 q 388 910 478 910 q 253 862 301 910 q 206 713 206 814 l 206 294 q 253 145 206 193 q 388 97 301 97 q 522 145 474 97 q 571 294 571 193 l 571 436 l 406 436 q 376 451 386 436 q 365 485 365 465 q 376 518 365 503 q 406 533 386 533 l 647 533 q 677 520 667 533 q 688 490 688 507 l 688 294 q 665 153 688 211 q 601 60 642 96 q 505 8 560 24 q 388 -8 450 -8 q 270 8 325 -8 q 175 60 215 24 q 112 153 135 96 q 89 294 89 211 l 89 713 q 112 853 89 796 q 175 947 135 911 q 269 999 215 983 q 385 1015 324 1015 q 509 997 453 1015 q 605 947 565 979 q 666 868 644 914 q 688 767 688 822 q 672 722 688 733 q 629 710 657 710 q 589 719 606 710 q 571 750 572 728 m 554 1343 q 540 1279 554 1310 q 503 1226 526 1249 q 449 1189 479 1203 q 386 1175 419 1175 q 323 1189 353 1175 q 269 1226 293 1203 q 232 1279 246 1249 q 218 1343 218 1310 l 289 1343 q 319 1265 289 1296 q 386 1233 349 1233 q 453 1265 424 1233 q 483 1343 483 1296 l 554 1343 z "},"Ĝ":{"ha":761,"x_min":89,"x_max":688,"o":"m 235 1169 q 222 1165 228 1165 q 200 1178 210 1165 q 190 1206 190 1190 q 195 1226 190 1217 q 211 1242 200 1236 l 356 1319 q 379 1326 369 1326 q 403 1319 392 1326 l 547 1243 q 569 1204 569 1231 q 560 1177 569 1189 q 538 1165 551 1165 q 531 1167 535 1165 q 524 1169 528 1168 l 379 1247 l 235 1169 m 571 750 q 520 866 563 822 q 388 910 478 910 q 253 862 301 910 q 206 713 206 814 l 206 294 q 253 145 206 193 q 388 97 301 97 q 522 145 474 97 q 571 294 571 193 l 571 436 l 406 436 q 376 451 386 436 q 365 485 365 465 q 376 518 365 503 q 406 533 386 533 l 647 533 q 677 520 667 533 q 688 490 688 507 l 688 294 q 665 153 688 211 q 601 60 642 96 q 505 8 560 24 q 388 -8 450 -8 q 270 8 325 -8 q 175 60 215 24 q 112 153 135 96 q 89 294 89 211 l 89 713 q 112 853 89 796 q 175 947 135 911 q 269 999 215 983 q 385 1015 324 1015 q 509 997 453 1015 q 605 947 565 979 q 666 868 644 914 q 688 767 688 822 q 672 722 688 733 q 629 710 657 710 q 589 719 606 710 q 571 750 572 728 z "},"Ģ":{"ha":761,"x_min":89,"x_max":688,"o":"m 326 -229 q 310 -233 318 -233 q 281 -219 293 -233 q 268 -186 268 -204 q 286 -156 268 -165 l 449 -69 q 463 -67 460 -67 q 492 -82 481 -67 q 503 -114 503 -97 q 483 -147 503 -136 l 326 -229 m 571 750 q 520 866 563 822 q 388 910 478 910 q 253 862 301 910 q 206 713 206 814 l 206 294 q 253 145 206 193 q 388 97 301 97 q 522 145 474 97 q 571 294 571 193 l 571 436 l 406 436 q 376 451 386 436 q 365 485 365 465 q 376 518 365 503 q 406 533 386 533 l 647 533 q 677 520 667 533 q 688 490 688 507 l 688 294 q 665 153 688 211 q 601 60 642 96 q 505 8 560 24 q 388 -8 450 -8 q 270 8 325 -8 q 175 60 215 24 q 112 153 135 96 q 89 294 89 211 l 89 713 q 112 853 89 796 q 175 947 135 911 q 269 999 215 983 q 385 1015 324 1015 q 509 997 453 1015 q 605 947 565 979 q 666 868 644 914 q 688 767 688 822 q 672 722 688 733 q 629 710 657 710 q 589 719 606 710 q 571 750 572 728 z "},"Ġ":{"ha":761,"x_min":89,"x_max":688,"o":"m 571 750 q 520 866 563 822 q 388 910 478 910 q 253 862 301 910 q 206 713 206 814 l 206 294 q 253 145 206 193 q 388 97 301 97 q 522 145 474 97 q 571 294 571 193 l 571 436 l 406 436 q 376 451 386 436 q 365 485 365 465 q 376 518 365 503 q 406 533 386 533 l 647 533 q 677 520 667 533 q 688 490 688 507 l 688 294 q 665 153 688 211 q 601 60 642 96 q 505 8 560 24 q 388 -8 450 -8 q 270 8 325 -8 q 175 60 215 24 q 112 153 135 96 q 89 294 89 211 l 89 713 q 112 853 89 796 q 175 947 135 911 q 269 999 215 983 q 385 1015 324 1015 q 509 997 453 1015 q 605 947 565 979 q 666 868 644 914 q 688 767 688 822 q 672 722 688 733 q 629 710 657 710 q 589 719 606 710 q 571 750 572 728 m 386 1281 q 426 1264 410 1281 q 442 1224 442 1247 q 426 1183 442 1200 q 386 1165 410 1165 q 346 1183 363 1165 q 329 1224 329 1200 q 346 1264 329 1247 q 386 1281 363 1281 z "},"H":{"ha":807,"x_min":99,"x_max":708,"o":"m 592 478 l 215 478 l 215 42 q 197 10 215 21 q 157 0 179 0 q 117 10 135 0 q 99 42 99 21 l 99 975 q 117 1006 99 996 q 157 1015 135 1015 q 197 1006 179 1015 q 215 975 215 996 l 215 575 l 592 575 l 592 975 q 610 1006 592 996 q 650 1015 628 1015 q 690 1006 672 1015 q 708 975 708 996 l 708 42 q 690 10 708 21 q 650 0 672 0 q 610 10 628 0 q 592 42 592 21 l 592 478 z "},"Ħ":{"ha":813,"x_min":26,"x_max":785,"o":"m 594 478 l 218 478 l 218 42 q 200 10 218 21 q 160 0 182 0 q 119 10 138 0 q 101 42 101 21 l 101 749 l 63 749 q 36 760 46 749 q 26 789 26 772 q 36 819 26 806 q 63 832 46 832 l 101 832 l 101 975 q 119 1006 101 996 q 160 1015 138 1015 q 200 1006 182 1015 q 218 975 218 996 l 218 832 l 594 832 l 594 975 q 613 1006 594 996 q 653 1015 631 1015 q 693 1006 675 1015 q 711 975 711 996 l 711 832 l 749 832 q 775 819 765 832 q 785 789 785 806 q 775 760 785 772 q 749 749 765 749 l 711 749 l 711 42 q 693 10 711 21 q 653 0 675 0 q 613 10 631 0 q 594 42 594 21 l 594 478 m 594 575 l 594 749 l 218 749 l 218 575 l 594 575 z "},"Ĥ":{"ha":807,"x_min":99,"x_max":708,"o":"m 258 1169 q 246 1165 251 1165 q 224 1178 233 1165 q 214 1206 214 1190 q 219 1226 214 1217 q 235 1242 224 1236 l 379 1319 q 403 1326 393 1326 q 426 1319 415 1326 l 571 1243 q 593 1204 593 1231 q 584 1177 593 1189 q 561 1165 575 1165 q 555 1167 558 1165 q 547 1169 551 1168 l 403 1247 l 258 1169 m 592 478 l 215 478 l 215 42 q 197 10 215 21 q 157 0 179 0 q 117 10 135 0 q 99 42 99 21 l 99 975 q 117 1006 99 996 q 157 1015 135 1015 q 197 1006 179 1015 q 215 975 215 996 l 215 575 l 592 575 l 592 975 q 610 1006 592 996 q 650 1015 628 1015 q 690 1006 672 1015 q 708 975 708 996 l 708 42 q 690 10 708 21 q 650 0 672 0 q 610 10 628 0 q 592 42 592 21 l 592 478 z "},"I":{"ha":314,"x_min":99,"x_max":215,"o":"m 99 975 q 117 1006 99 996 q 157 1015 135 1015 q 197 1006 179 1015 q 215 975 215 996 l 215 42 q 197 10 215 21 q 157 0 179 0 q 117 10 135 0 q 99 42 99 21 l 99 975 z "},"Ĳ":{"ha":1026,"x_min":99,"x_max":932,"o":"m 99 975 q 117 1006 99 996 q 157 1015 135 1015 q 197 1006 179 1015 q 215 975 215 996 l 215 42 q 197 10 215 21 q 157 0 179 0 q 117 10 135 0 q 99 42 99 21 l 99 975 m 635 910 q 605 926 615 910 q 594 964 594 942 q 603 999 594 983 q 635 1015 613 1015 l 879 1015 q 915 1005 899 1015 q 932 974 932 994 l 932 294 q 909 153 932 211 q 846 60 886 96 q 751 8 806 24 q 636 -8 697 -8 q 512 10 568 -8 q 416 63 456 29 q 355 142 376 96 q 333 246 333 189 q 349 291 333 279 q 392 303 364 303 q 432 294 414 303 q 450 263 450 286 q 497 144 450 190 q 632 97 543 97 q 767 145 719 97 q 815 294 815 193 l 815 910 l 635 910 z "},"Í":{"ha":314,"x_min":44,"x_max":278,"o":"m 99 975 q 117 1006 99 996 q 157 1015 135 1015 q 197 1006 179 1015 q 215 975 215 996 l 215 42 q 197 10 215 21 q 157 0 179 0 q 117 10 135 0 q 99 42 99 21 l 99 975 m 101 1165 q 94 1161 97 1163 q 86 1160 90 1160 q 56 1175 68 1160 q 44 1207 44 1190 q 63 1238 44 1228 l 225 1324 q 239 1326 233 1326 q 267 1311 257 1326 q 278 1279 278 1296 q 274 1260 278 1269 q 258 1246 269 1251 l 101 1165 z "},"Ĭ":{"ha":314,"x_min":-11,"x_max":325,"o":"m 99 975 q 117 1006 99 996 q 157 1015 135 1015 q 197 1006 179 1015 q 215 975 215 996 l 215 42 q 197 10 215 21 q 157 0 179 0 q 117 10 135 0 q 99 42 99 21 l 99 975 m 325 1343 q 311 1279 325 1310 q 274 1226 297 1249 q 220 1189 250 1203 q 157 1175 190 1175 q 94 1189 124 1175 q 40 1226 64 1203 q 3 1279 17 1249 q -11 1343 -11 1310 l 60 1343 q 90 1265 60 1296 q 157 1233 119 1233 q 224 1265 194 1233 q 254 1343 254 1296 l 325 1343 z "},"Î":{"ha":314,"x_min":-32,"x_max":347,"o":"m 99 975 q 117 1006 99 996 q 157 1015 135 1015 q 197 1006 179 1015 q 215 975 215 996 l 215 42 q 197 10 215 21 q 157 0 179 0 q 117 10 135 0 q 99 42 99 21 l 99 975 m 13 1169 q 0 1165 6 1165 q -22 1178 -12 1165 q -32 1206 -32 1190 q -27 1226 -32 1217 q -11 1242 -22 1236 l 133 1319 q 157 1326 147 1326 q 181 1319 169 1326 l 325 1243 q 347 1204 347 1231 q 338 1177 347 1189 q 315 1165 329 1165 q 309 1167 313 1165 q 301 1169 306 1168 l 157 1247 l 13 1169 z "},"Ï":{"ha":314,"x_min":11,"x_max":304,"o":"m 99 975 q 117 1006 99 996 q 157 1015 135 1015 q 197 1006 179 1015 q 215 975 215 996 l 215 42 q 197 10 215 21 q 157 0 179 0 q 117 10 135 0 q 99 42 99 21 l 99 975 m 68 1281 q 108 1264 92 1281 q 124 1224 124 1247 q 108 1183 124 1200 q 68 1165 92 1165 q 28 1183 44 1165 q 11 1224 11 1200 q 28 1264 11 1247 q 68 1281 44 1281 m 249 1281 q 288 1264 272 1281 q 304 1224 304 1247 q 288 1183 304 1200 q 249 1165 272 1165 q 209 1183 225 1165 q 193 1224 193 1200 q 209 1264 193 1247 q 249 1281 225 1281 z "},"İ":{"ha":314,"x_min":99,"x_max":215,"o":"m 99 975 q 117 1006 99 996 q 157 1015 135 1015 q 197 1006 179 1015 q 215 975 215 996 l 215 42 q 197 10 215 21 q 157 0 179 0 q 117 10 135 0 q 99 42 99 21 l 99 975 m 157 1281 q 197 1264 181 1281 q 213 1224 213 1247 q 197 1183 213 1200 q 157 1165 181 1165 q 117 1183 133 1165 q 100 1224 100 1200 q 117 1264 100 1247 q 157 1281 133 1281 z "},"Ì":{"ha":314,"x_min":35,"x_max":268,"o":"m 99 975 q 117 1006 99 996 q 157 1015 135 1015 q 197 1006 179 1015 q 215 975 215 996 l 215 42 q 197 10 215 21 q 157 0 179 0 q 117 10 135 0 q 99 42 99 21 l 99 975 m 54 1246 q 39 1260 43 1251 q 35 1279 35 1269 q 46 1311 35 1296 q 74 1326 57 1326 q 88 1324 79 1326 l 250 1238 q 268 1207 268 1228 q 256 1175 268 1190 q 226 1160 244 1160 q 211 1165 222 1160 l 54 1246 z "},"Ī":{"ha":314,"x_min":-32,"x_max":344,"o":"m 99 975 q 117 1006 99 996 q 157 1015 135 1015 q 197 1006 179 1015 q 215 975 215 996 l 215 42 q 197 10 215 21 q 157 0 179 0 q 117 10 135 0 q 99 42 99 21 l 99 975 m -32 1263 q -21 1293 -32 1281 q 8 1306 -10 1306 l 303 1306 q 331 1293 318 1306 q 344 1263 344 1281 q 331 1232 344 1243 q 303 1221 318 1221 l 8 1221 q -21 1232 -10 1221 q -32 1263 -32 1243 z "},"Į":{"ha":314,"x_min":25,"x_max":215,"o":"m 175 -222 q 196 -231 189 -222 q 203 -253 203 -240 q 196 -272 203 -265 q 167 -279 189 -279 q 66 -253 107 -279 q 25 -169 25 -226 q 49 -72 25 -118 q 115 11 74 -26 q 99 42 99 24 l 99 975 q 117 1006 99 996 q 157 1015 135 1015 q 197 1006 179 1015 q 215 975 215 996 l 215 42 q 206 17 215 26 q 185 4 197 8 q 117 -72 144 -31 q 90 -160 90 -114 q 175 -222 90 -222 z "},"Ĩ":{"ha":314,"x_min":-65,"x_max":378,"o":"m 99 975 q 117 1006 99 996 q 157 1015 135 1015 q 197 1006 179 1015 q 215 975 215 996 l 215 42 q 197 10 215 21 q 157 0 179 0 q 117 10 135 0 q 99 42 99 21 l 99 975 m 72 1232 q 34 1226 50 1232 q 6 1212 18 1219 q -15 1198 -6 1204 q -33 1192 -24 1192 q -58 1206 -51 1192 q -65 1232 -65 1221 q -52 1271 -65 1254 q -20 1297 -39 1288 q 19 1312 -1 1307 q 56 1317 40 1317 q 106 1310 83 1317 q 150 1294 129 1303 q 193 1278 171 1285 q 243 1271 215 1271 q 281 1276 265 1271 q 307 1290 296 1282 q 326 1303 318 1297 q 344 1308 335 1308 q 370 1294 363 1308 q 378 1269 378 1279 q 365 1228 378 1244 q 333 1203 351 1213 q 294 1190 314 1194 q 261 1186 275 1186 q 208 1193 231 1186 q 164 1209 185 1200 q 122 1225 143 1218 q 72 1232 100 1232 z "},"J":{"ha":721,"x_min":28,"x_max":626,"o":"m 329 910 q 299 926 310 910 q 289 964 289 942 q 298 999 289 983 q 329 1015 307 1015 l 574 1015 q 610 1005 593 1015 q 626 974 626 994 l 626 294 q 603 153 626 211 q 540 60 581 96 q 446 8 500 24 q 331 -8 392 -8 q 206 10 263 -8 q 110 63 150 29 q 49 142 71 96 q 28 246 28 189 q 43 291 28 279 q 86 303 58 303 q 126 294 108 303 q 144 263 144 286 q 191 144 144 190 q 326 97 238 97 q 462 145 414 97 q 510 294 510 193 l 510 910 l 329 910 z "},"Ĵ":{"ha":721,"x_min":28,"x_max":626,"o":"m 217 1169 q 204 1165 210 1165 q 182 1178 192 1165 q 172 1206 172 1190 q 177 1226 172 1217 q 193 1242 182 1236 l 338 1319 q 361 1326 351 1326 q 385 1319 374 1326 l 529 1243 q 551 1204 551 1231 q 542 1177 551 1189 q 519 1165 533 1165 q 513 1167 517 1165 q 506 1169 510 1168 l 361 1247 l 217 1169 m 329 910 q 299 926 310 910 q 289 964 289 942 q 298 999 289 983 q 329 1015 307 1015 l 574 1015 q 610 1005 593 1015 q 626 974 626 994 l 626 294 q 603 153 626 211 q 540 60 581 96 q 446 8 500 24 q 331 -8 392 -8 q 206 10 263 -8 q 110 63 150 29 q 49 142 71 96 q 28 246 28 189 q 43 291 28 279 q 86 303 58 303 q 126 294 108 303 q 144 263 144 286 q 191 144 144 190 q 326 97 238 97 q 462 145 414 97 q 510 294 510 193 l 510 910 l 329 910 z "},"K":{"ha":735,"x_min":99,"x_max":733,"o":"m 99 975 q 117 1006 99 996 q 157 1015 135 1015 q 197 1006 179 1015 q 215 975 215 996 l 215 515 l 588 999 q 622 1015 600 1015 q 667 997 644 1015 q 689 956 689 978 q 679 931 689 942 l 396 576 l 726 76 q 733 56 733 65 q 712 15 733 32 q 665 -3 690 -3 q 622 21 638 -3 l 318 478 l 215 349 l 215 42 q 197 10 215 21 q 157 0 179 0 q 117 10 135 0 q 99 42 99 21 l 99 975 z "},"Ķ":{"ha":735,"x_min":99,"x_max":733,"o":"m 311 -229 q 294 -233 303 -233 q 265 -219 278 -233 q 253 -186 253 -204 q 271 -156 253 -165 l 433 -69 q 447 -67 444 -67 q 476 -82 465 -67 q 488 -114 488 -97 q 468 -147 488 -136 l 311 -229 m 99 975 q 117 1006 99 996 q 157 1015 135 1015 q 197 1006 179 1015 q 215 975 215 996 l 215 515 l 588 999 q 622 1015 600 1015 q 667 997 644 1015 q 689 956 689 978 q 679 931 689 942 l 396 576 l 726 76 q 733 56 733 65 q 712 15 733 32 q 665 -3 690 -3 q 622 21 638 -3 l 318 478 l 215 349 l 215 42 q 197 10 215 21 q 157 0 179 0 q 117 10 135 0 q 99 42 99 21 l 99 975 z "},"L":{"ha":650,"x_min":99,"x_max":632,"o":"m 151 0 q 115 10 132 0 q 99 42 99 21 l 99 975 q 117 1006 99 996 q 157 1015 135 1015 q 197 1006 179 1015 q 215 975 215 996 l 215 106 l 594 106 q 623 89 614 106 q 632 53 632 72 q 623 17 632 33 q 594 0 614 0 l 151 0 z "},"Ĺ":{"ha":650,"x_min":99,"x_max":632,"o":"m 299 1165 q 291 1161 294 1163 q 283 1160 288 1160 q 253 1175 265 1160 q 242 1207 242 1190 q 260 1238 242 1228 l 422 1324 q 436 1326 431 1326 q 465 1311 454 1326 q 475 1279 475 1296 q 471 1260 475 1269 q 456 1246 467 1251 l 299 1165 m 151 0 q 115 10 132 0 q 99 42 99 21 l 99 975 q 117 1006 99 996 q 157 1015 135 1015 q 197 1006 179 1015 q 215 975 215 996 l 215 106 l 594 106 q 623 89 614 106 q 632 53 632 72 q 623 17 632 33 q 594 0 614 0 l 151 0 z "},"Ľ":{"ha":651,"x_min":99,"x_max":632,"o":"m 485 1029 q 535 1008 514 1029 q 557 957 557 986 q 543 903 557 942 q 494 788 529 865 q 482 774 490 778 q 467 769 474 769 q 439 778 453 769 q 425 803 425 788 q 428 817 425 808 l 457 889 q 425 915 438 897 q 413 957 413 933 q 433 1008 413 986 q 485 1029 454 1029 m 151 0 q 115 10 132 0 q 99 42 99 21 l 99 975 q 117 1006 99 996 q 157 1015 135 1015 q 197 1006 179 1015 q 215 975 215 996 l 215 106 l 594 106 q 623 89 614 106 q 632 53 632 72 q 623 17 632 33 q 594 0 614 0 l 151 0 z "},"Ļ":{"ha":650,"x_min":99,"x_max":632,"o":"m 294 -229 q 278 -233 286 -233 q 249 -219 261 -233 q 236 -186 236 -204 q 254 -156 236 -165 l 417 -69 q 431 -67 428 -67 q 460 -82 449 -67 q 471 -114 471 -97 q 451 -147 471 -136 l 294 -229 m 151 0 q 115 10 132 0 q 99 42 99 21 l 99 975 q 117 1006 99 996 q 157 1015 135 1015 q 197 1006 179 1015 q 215 975 215 996 l 215 106 l 594 106 q 623 89 614 106 q 632 53 632 72 q 623 17 632 33 q 594 0 614 0 l 151 0 z "},"Ŀ":{"ha":651,"x_min":99,"x_max":632,"o":"m 151 0 q 115 10 132 0 q 99 42 99 21 l 99 975 q 117 1006 99 996 q 157 1015 135 1015 q 197 1006 179 1015 q 215 975 215 996 l 215 106 l 594 106 q 623 89 614 106 q 632 53 632 72 q 623 17 632 33 q 594 0 614 0 l 151 0 m 479 654 q 531 633 510 654 q 553 585 553 613 q 531 536 553 557 q 479 515 510 515 q 425 536 447 515 q 403 585 403 557 q 425 633 403 613 q 479 654 447 654 z "},"Ł":{"ha":658,"x_min":-1,"x_max":640,"o":"m 160 0 q 124 10 140 0 q 107 42 107 21 l 107 390 l 57 364 q 42 360 49 360 q 12 377 25 360 q -1 414 -1 394 q 17 444 -1 436 l 107 492 l 107 975 q 125 1006 107 996 q 165 1015 143 1015 q 206 1006 188 1015 q 224 975 224 996 l 224 554 l 344 619 q 358 622 349 622 q 390 606 376 622 q 403 571 403 589 q 385 539 403 547 l 224 453 l 224 106 l 603 106 q 631 89 622 106 q 640 53 640 72 q 631 17 640 33 q 603 0 622 0 l 160 0 z "},"M":{"ha":938,"x_min":99,"x_max":839,"o":"m 513 376 q 491 351 503 358 q 467 344 479 344 q 444 351 456 344 q 424 376 433 358 l 215 776 l 215 42 q 197 10 215 21 q 157 0 179 0 q 117 10 135 0 q 99 42 99 21 l 99 958 q 116 1003 99 990 q 157 1015 133 1015 q 210 997 189 1015 q 250 942 231 978 l 468 524 l 688 942 q 728 997 707 978 q 781 1015 749 1015 q 822 1003 804 1015 q 839 958 839 990 l 839 42 q 821 10 839 21 q 781 0 803 0 q 740 10 758 0 q 722 42 722 21 l 722 771 l 513 376 z "},"N":{"ha":807,"x_min":99,"x_max":708,"o":"m 650 0 q 608 15 626 0 q 576 53 589 29 l 215 751 l 215 42 q 197 10 215 21 q 157 0 179 0 q 117 10 135 0 q 99 42 99 21 l 99 975 q 116 1006 99 997 q 157 1015 133 1015 q 208 997 189 1015 q 246 942 226 978 l 592 265 l 592 975 q 610 1006 592 996 q 650 1015 628 1015 q 690 1006 672 1015 q 708 975 708 996 l 708 42 q 690 10 708 21 q 650 0 672 0 z "},"Ń":{"ha":807,"x_min":99,"x_max":708,"o":"m 335 1165 q 327 1161 331 1163 q 319 1160 324 1160 q 290 1175 301 1160 q 278 1207 278 1190 q 296 1238 278 1228 l 458 1324 q 472 1326 467 1326 q 501 1311 490 1326 q 511 1279 511 1296 q 507 1260 511 1269 q 492 1246 503 1251 l 335 1165 m 650 0 q 608 15 626 0 q 576 53 589 29 l 215 751 l 215 42 q 197 10 215 21 q 157 0 179 0 q 117 10 135 0 q 99 42 99 21 l 99 975 q 116 1006 99 997 q 157 1015 133 1015 q 208 997 189 1015 q 246 942 226 978 l 592 265 l 592 975 q 610 1006 592 996 q 650 1015 628 1015 q 690 1006 672 1015 q 708 975 708 996 l 708 42 q 690 10 708 21 q 650 0 672 0 z "},"Ň":{"ha":807,"x_min":99,"x_max":708,"o":"m 401 1239 l 542 1356 q 551 1363 546 1361 q 561 1364 557 1364 q 582 1352 574 1364 q 590 1326 590 1340 q 569 1289 590 1303 l 429 1174 q 401 1161 414 1161 q 375 1174 388 1161 l 233 1289 q 214 1326 214 1303 q 222 1352 214 1340 q 243 1364 229 1364 q 263 1356 254 1364 l 401 1239 m 650 0 q 608 15 626 0 q 576 53 589 29 l 215 751 l 215 42 q 197 10 215 21 q 157 0 179 0 q 117 10 135 0 q 99 42 99 21 l 99 975 q 116 1006 99 997 q 157 1015 133 1015 q 208 997 189 1015 q 246 942 226 978 l 592 265 l 592 975 q 610 1006 592 996 q 650 1015 628 1015 q 690 1006 672 1015 q 708 975 708 996 l 708 42 q 690 10 708 21 q 650 0 672 0 z "},"Ņ":{"ha":807,"x_min":99,"x_max":708,"o":"m 342 -229 q 325 -233 333 -233 q 296 -219 308 -233 q 283 -186 283 -204 q 301 -156 283 -165 l 464 -69 q 478 -67 475 -67 q 507 -82 496 -67 q 518 -114 518 -97 q 499 -147 518 -136 l 342 -229 m 650 0 q 608 15 626 0 q 576 53 589 29 l 215 751 l 215 42 q 197 10 215 21 q 157 0 179 0 q 117 10 135 0 q 99 42 99 21 l 99 975 q 116 1006 99 997 q 157 1015 133 1015 q 208 997 189 1015 q 246 942 226 978 l 592 265 l 592 975 q 610 1006 592 996 q 650 1015 628 1015 q 690 1006 672 1015 q 708 975 708 996 l 708 42 q 690 10 708 21 q 650 0 672 0 z "},"Ñ":{"ha":807,"x_min":99,"x_max":708,"o":"m 650 0 q 608 15 626 0 q 576 53 589 29 l 215 751 l 215 42 q 197 10 215 21 q 157 0 179 0 q 117 10 135 0 q 99 42 99 21 l 99 975 q 116 1006 99 997 q 157 1015 133 1015 q 208 997 189 1015 q 246 942 226 978 l 592 265 l 592 975 q 610 1006 592 996 q 650 1015 628 1015 q 690 1006 672 1015 q 708 975 708 996 l 708 42 q 690 10 708 21 q 650 0 672 0 m 314 1232 q 276 1226 292 1232 q 248 1212 260 1219 q 227 1198 236 1204 q 208 1192 218 1192 q 183 1206 190 1192 q 176 1232 176 1221 q 190 1271 176 1254 q 222 1297 203 1288 q 261 1312 240 1307 q 297 1317 282 1317 q 348 1310 325 1317 q 392 1294 371 1303 q 435 1278 413 1285 q 485 1271 457 1271 q 522 1276 507 1271 q 549 1290 538 1282 q 568 1303 560 1297 q 586 1308 576 1308 q 612 1294 604 1308 q 619 1269 619 1279 q 606 1228 619 1244 q 574 1203 593 1213 q 536 1190 556 1194 q 503 1186 517 1186 q 449 1193 472 1186 q 406 1209 426 1200 q 363 1225 385 1218 q 314 1232 342 1232 z "},"O":{"ha":776,"x_min":89,"x_max":688,"o":"m 388 -8 q 270 8 325 -8 q 175 60 215 24 q 112 153 135 96 q 89 294 89 211 l 89 713 q 112 853 89 796 q 175 947 135 911 q 270 999 215 983 q 388 1015 325 1015 q 505 999 450 1015 q 601 947 560 983 q 665 853 642 911 q 688 713 688 796 l 688 294 q 665 153 688 211 q 601 60 642 96 q 505 8 560 24 q 388 -8 450 -8 m 571 713 q 522 862 571 814 q 388 910 474 910 q 253 862 301 910 q 206 713 206 814 l 206 294 q 253 145 206 193 q 388 97 301 97 q 522 145 474 97 q 571 294 571 193 l 571 713 z "},"Œ":{"ha":1163,"x_min":89,"x_max":1135,"o":"m 371 -8 q 258 8 310 -8 q 169 60 207 24 q 110 153 132 96 q 89 294 89 211 l 89 713 q 110 853 89 796 q 169 947 132 911 q 258 999 207 983 q 371 1015 310 1015 q 493 991 435 1015 q 583 914 551 967 l 583 974 q 600 1005 583 994 q 636 1015 617 1015 l 1094 1015 q 1125 999 1115 1015 q 1135 964 1135 983 q 1124 926 1135 942 q 1094 910 1114 910 l 688 910 l 688 557 l 881 557 q 910 542 900 557 q 921 507 921 526 q 911 475 921 490 q 881 460 901 460 l 688 460 l 688 106 l 1094 106 q 1124 90 1114 106 q 1135 51 1135 74 q 1125 16 1135 32 q 1094 0 1115 0 l 636 0 q 600 10 617 0 q 583 42 583 21 l 583 93 q 493 16 551 40 q 371 -8 435 -8 m 571 713 q 522 862 571 814 q 388 910 474 910 q 253 862 301 910 q 206 713 206 814 l 206 294 q 253 145 206 193 q 388 97 301 97 q 522 145 474 97 q 571 294 571 193 l 571 713 z "},"Ó":{"ha":776,"x_min":89,"x_max":688,"o":"m 353 1165 q 345 1161 349 1163 q 338 1160 342 1160 q 308 1175 319 1160 q 296 1207 296 1190 q 314 1238 296 1228 l 476 1324 q 490 1326 485 1326 q 519 1311 508 1326 q 529 1279 529 1296 q 525 1260 529 1269 q 510 1246 521 1251 l 353 1165 m 388 -8 q 270 8 325 -8 q 175 60 215 24 q 112 153 135 96 q 89 294 89 211 l 89 713 q 112 853 89 796 q 175 947 135 911 q 270 999 215 983 q 388 1015 325 1015 q 505 999 450 1015 q 601 947 560 983 q 665 853 642 911 q 688 713 688 796 l 688 294 q 665 153 688 211 q 601 60 642 96 q 505 8 560 24 q 388 -8 450 -8 m 571 713 q 522 862 571 814 q 388 910 474 910 q 253 862 301 910 q 206 713 206 814 l 206 294 q 253 145 206 193 q 388 97 301 97 q 522 145 474 97 q 571 294 571 193 l 571 713 z "},"Ŏ":{"ha":776,"x_min":89,"x_max":688,"o":"m 388 -8 q 270 8 325 -8 q 175 60 215 24 q 112 153 135 96 q 89 294 89 211 l 89 713 q 112 853 89 796 q 175 947 135 911 q 270 999 215 983 q 388 1015 325 1015 q 505 999 450 1015 q 601 947 560 983 q 665 853 642 911 q 688 713 688 796 l 688 294 q 665 153 688 211 q 601 60 642 96 q 505 8 560 24 q 388 -8 450 -8 m 571 713 q 522 862 571 814 q 388 910 474 910 q 253 862 301 910 q 206 713 206 814 l 206 294 q 253 145 206 193 q 388 97 301 97 q 522 145 474 97 q 571 294 571 193 l 571 713 m 556 1343 q 542 1279 556 1310 q 504 1226 528 1249 q 451 1189 481 1203 q 388 1175 421 1175 q 324 1189 354 1175 q 271 1226 294 1203 q 233 1279 247 1249 q 219 1343 219 1310 l 290 1343 q 320 1265 290 1296 q 388 1233 350 1233 q 455 1265 425 1233 q 485 1343 485 1296 l 556 1343 z "},"Ô":{"ha":776,"x_min":89,"x_max":688,"o":"m 243 1169 q 231 1165 236 1165 q 208 1178 218 1165 q 199 1206 199 1190 q 203 1226 199 1217 q 219 1242 208 1236 l 364 1319 q 388 1326 378 1326 q 411 1319 400 1326 l 556 1243 q 578 1204 578 1231 q 569 1177 578 1189 q 546 1165 560 1165 q 540 1167 543 1165 q 532 1169 536 1168 l 388 1247 l 243 1169 m 388 -8 q 270 8 325 -8 q 175 60 215 24 q 112 153 135 96 q 89 294 89 211 l 89 713 q 112 853 89 796 q 175 947 135 911 q 270 999 215 983 q 388 1015 325 1015 q 505 999 450 1015 q 601 947 560 983 q 665 853 642 911 q 688 713 688 796 l 688 294 q 665 153 688 211 q 601 60 642 96 q 505 8 560 24 q 388 -8 450 -8 m 571 713 q 522 862 571 814 q 388 910 474 910 q 253 862 301 910 q 206 713 206 814 l 206 294 q 253 145 206 193 q 388 97 301 97 q 522 145 474 97 q 571 294 571 193 l 571 713 z "},"Ö":{"ha":776,"x_min":89,"x_max":688,"o":"m 299 1281 q 338 1264 322 1281 q 354 1224 354 1247 q 338 1183 354 1200 q 299 1165 322 1165 q 258 1183 275 1165 q 242 1224 242 1200 q 258 1264 242 1247 q 299 1281 275 1281 m 479 1281 q 519 1264 503 1281 q 535 1224 535 1247 q 519 1183 535 1200 q 479 1165 503 1165 q 440 1183 456 1165 q 424 1224 424 1200 q 440 1264 424 1247 q 479 1281 456 1281 m 388 -8 q 270 8 325 -8 q 175 60 215 24 q 112 153 135 96 q 89 294 89 211 l 89 713 q 112 853 89 796 q 175 947 135 911 q 270 999 215 983 q 388 1015 325 1015 q 505 999 450 1015 q 601 947 560 983 q 665 853 642 911 q 688 713 688 796 l 688 294 q 665 153 688 211 q 601 60 642 96 q 505 8 560 24 q 388 -8 450 -8 m 571 713 q 522 862 571 814 q 388 910 474 910 q 253 862 301 910 q 206 713 206 814 l 206 294 q 253 145 206 193 q 388 97 301 97 q 522 145 474 97 q 571 294 571 193 l 571 713 z "},"Ò":{"ha":776,"x_min":89,"x_max":688,"o":"m 388 -8 q 270 8 325 -8 q 175 60 215 24 q 112 153 135 96 q 89 294 89 211 l 89 713 q 112 853 89 796 q 175 947 135 911 q 270 999 215 983 q 388 1015 325 1015 q 505 999 450 1015 q 601 947 560 983 q 665 853 642 911 q 688 713 688 796 l 688 294 q 665 153 688 211 q 601 60 642 96 q 505 8 560 24 q 388 -8 450 -8 m 571 713 q 522 862 571 814 q 388 910 474 910 q 253 862 301 910 q 206 713 206 814 l 206 294 q 253 145 206 193 q 388 97 301 97 q 522 145 474 97 q 571 294 571 193 l 571 713 m 282 1246 q 267 1260 271 1251 q 263 1279 263 1269 q 274 1311 263 1296 q 301 1326 285 1326 q 315 1324 307 1326 l 478 1238 q 496 1207 496 1228 q 484 1175 496 1190 q 454 1160 472 1160 q 439 1165 450 1160 l 282 1246 z "},"Ő":{"ha":776,"x_min":89,"x_max":688,"o":"m 293 1167 q 284 1160 288 1163 q 274 1158 281 1158 q 245 1170 258 1158 q 232 1197 232 1182 q 243 1218 232 1211 l 371 1321 q 389 1328 378 1328 q 416 1315 404 1328 q 428 1289 428 1303 q 415 1265 428 1274 l 293 1167 m 504 1167 q 485 1158 496 1158 q 456 1170 469 1158 q 443 1197 443 1182 q 454 1218 443 1211 l 583 1321 q 601 1328 589 1328 q 628 1315 617 1328 q 639 1289 639 1303 q 626 1265 639 1274 l 504 1167 m 388 -8 q 270 8 325 -8 q 175 60 215 24 q 112 153 135 96 q 89 294 89 211 l 89 713 q 112 853 89 796 q 175 947 135 911 q 270 999 215 983 q 388 1015 325 1015 q 505 999 450 1015 q 601 947 560 983 q 665 853 642 911 q 688 713 688 796 l 688 294 q 665 153 688 211 q 601 60 642 96 q 505 8 560 24 q 388 -8 450 -8 m 571 713 q 522 862 571 814 q 388 910 474 910 q 253 862 301 910 q 206 713 206 814 l 206 294 q 253 145 206 193 q 388 97 301 97 q 522 145 474 97 q 571 294 571 193 l 571 713 z "},"Ō":{"ha":776,"x_min":89,"x_max":688,"o":"m 200 1263 q 211 1293 200 1281 q 240 1306 222 1306 l 535 1306 q 563 1293 550 1306 q 576 1263 576 1281 q 563 1232 576 1243 q 535 1221 550 1221 l 240 1221 q 211 1232 222 1221 q 200 1263 200 1243 m 388 -8 q 270 8 325 -8 q 175 60 215 24 q 112 153 135 96 q 89 294 89 211 l 89 713 q 112 853 89 796 q 175 947 135 911 q 270 999 215 983 q 388 1015 325 1015 q 505 999 450 1015 q 601 947 560 983 q 665 853 642 911 q 688 713 688 796 l 688 294 q 665 153 688 211 q 601 60 642 96 q 505 8 560 24 q 388 -8 450 -8 m 571 713 q 522 862 571 814 q 388 910 474 910 q 253 862 301 910 q 206 713 206 814 l 206 294 q 253 145 206 193 q 388 97 301 97 q 522 145 474 97 q 571 294 571 193 l 571 713 z "},"Ω":{"ha":771,"x_min":71,"x_max":701,"o":"m 442 239 q 536 299 504 253 q 568 429 568 346 l 568 713 q 520 862 568 814 q 386 910 472 910 q 252 862 300 910 q 204 713 204 814 l 204 429 q 331 239 204 258 l 331 0 l 111 0 q 82 15 93 0 q 71 53 71 31 q 83 90 71 76 q 111 104 96 104 l 254 104 l 254 144 q 133 239 179 171 q 88 429 88 307 l 88 713 q 110 853 88 796 q 174 947 133 911 q 269 999 214 983 q 386 1015 324 1015 q 503 999 449 1015 q 599 947 558 983 q 662 853 639 911 q 685 713 685 796 l 685 429 q 672 322 685 368 q 638 240 660 275 q 585 181 615 204 q 518 144 554 157 l 518 104 l 661 104 q 689 90 676 104 q 701 53 701 76 q 690 15 701 31 q 661 0 679 0 l 442 0 l 442 239 z "},"Ø":{"ha":776,"x_min":86,"x_max":693,"o":"m 644 1069 q 677 1056 661 1069 q 693 1024 693 1043 q 688 1004 693 1014 l 638 904 q 674 822 661 869 q 688 713 688 775 l 688 294 q 665 153 688 211 q 601 60 642 96 q 505 8 560 24 q 388 -8 450 -8 q 285 3 333 -8 q 200 40 238 15 l 169 -19 q 153 -36 164 -31 q 131 -42 142 -42 q 99 -29 111 -42 q 86 0 86 -17 q 87 9 86 4 q 90 18 88 14 l 135 107 q 101 188 113 142 q 89 294 89 233 l 89 713 q 112 853 89 796 q 175 947 135 911 q 270 999 215 983 q 388 1015 325 1015 q 571 968 494 1015 l 611 1049 q 644 1069 621 1069 m 571 713 q 567 765 571 740 l 253 146 q 388 97 297 97 q 522 145 474 97 q 571 294 571 193 l 571 713 m 206 294 q 206 272 206 283 q 208 251 207 261 l 518 865 q 388 910 471 910 q 253 862 301 910 q 206 713 206 814 l 206 294 z "},"Ǿ":{"ha":776,"x_min":86,"x_max":693,"o":"m 644 1069 q 677 1056 661 1069 q 693 1024 693 1043 q 688 1004 693 1014 l 638 904 q 674 822 661 869 q 688 713 688 775 l 688 294 q 665 153 688 211 q 601 60 642 96 q 505 8 560 24 q 388 -8 450 -8 q 285 3 333 -8 q 200 40 238 15 l 169 -19 q 153 -36 164 -31 q 131 -42 142 -42 q 99 -29 111 -42 q 86 0 86 -17 q 87 9 86 4 q 90 18 88 14 l 135 107 q 101 188 113 142 q 89 294 89 233 l 89 713 q 112 853 89 796 q 175 947 135 911 q 270 999 215 983 q 388 1015 325 1015 q 571 968 494 1015 l 611 1049 q 644 1069 621 1069 m 571 713 q 567 765 571 740 l 253 146 q 388 97 297 97 q 522 145 474 97 q 571 294 571 193 l 571 713 m 206 294 q 206 272 206 283 q 208 251 207 261 l 518 865 q 388 910 471 910 q 253 862 301 910 q 206 713 206 814 l 206 294 m 342 1165 q 334 1161 338 1163 q 326 1160 331 1160 q 297 1175 308 1160 q 285 1207 285 1190 q 303 1238 285 1228 l 465 1324 q 479 1326 474 1326 q 508 1311 497 1326 q 518 1279 518 1296 q 514 1260 518 1269 q 499 1246 510 1251 l 342 1165 z "},"Õ":{"ha":776,"x_min":89,"x_max":688,"o":"m 388 -8 q 270 8 325 -8 q 175 60 215 24 q 112 153 135 96 q 89 294 89 211 l 89 713 q 112 853 89 796 q 175 947 135 911 q 270 999 215 983 q 388 1015 325 1015 q 505 999 450 1015 q 601 947 560 983 q 665 853 642 911 q 688 713 688 796 l 688 294 q 665 153 688 211 q 601 60 642 96 q 505 8 560 24 q 388 -8 450 -8 m 571 713 q 522 862 571 814 q 388 910 474 910 q 253 862 301 910 q 206 713 206 814 l 206 294 q 253 145 206 193 q 388 97 301 97 q 522 145 474 97 q 571 294 571 193 l 571 713 m 304 1232 q 266 1226 282 1232 q 238 1212 250 1219 q 217 1198 226 1204 q 199 1192 208 1192 q 174 1206 181 1192 q 167 1232 167 1221 q 180 1271 167 1254 q 212 1297 193 1288 q 251 1312 231 1307 q 288 1317 272 1317 q 338 1310 315 1317 q 382 1294 361 1303 q 425 1278 403 1285 q 475 1271 447 1271 q 513 1276 497 1271 q 539 1290 528 1282 q 558 1303 550 1297 q 576 1308 567 1308 q 602 1294 594 1308 q 610 1269 610 1279 q 597 1228 610 1244 q 565 1203 583 1213 q 526 1190 546 1194 q 493 1186 507 1186 q 440 1193 463 1186 q 396 1209 417 1200 q 353 1225 375 1218 q 304 1232 332 1232 z "},"P":{"ha":743,"x_min":99,"x_max":703,"o":"m 99 975 q 111 1003 99 990 q 146 1015 124 1015 l 408 1015 q 524 999 469 1015 q 617 948 578 983 q 680 855 657 913 q 703 715 703 797 l 703 703 q 680 564 703 621 q 616 471 657 507 q 520 418 575 435 q 403 401 465 401 l 215 401 l 215 42 q 197 10 215 21 q 157 0 179 0 q 117 10 135 0 q 99 42 99 21 l 99 975 m 215 910 l 215 499 l 403 499 q 538 547 489 499 q 586 696 586 596 l 586 713 q 538 862 586 814 q 403 910 489 910 l 215 910 z "},"Q":{"ha":776,"x_min":89,"x_max":688,"o":"m 389 -151 q 360 -141 374 -151 q 347 -110 347 -131 l 347 -6 q 244 17 292 -1 q 163 72 197 36 q 108 163 128 108 q 89 294 89 218 l 89 713 q 112 853 89 796 q 175 947 135 911 q 270 999 215 983 q 388 1015 325 1015 q 505 999 450 1015 q 601 947 560 983 q 665 853 642 911 q 688 713 688 796 l 688 294 q 668 163 688 218 q 614 72 649 108 q 533 17 579 36 q 431 -6 486 -1 l 431 -110 q 417 -141 431 -131 q 389 -151 404 -151 m 571 713 q 522 862 571 814 q 388 910 474 910 q 253 862 301 910 q 206 713 206 814 l 206 294 q 242 160 206 207 q 347 103 279 114 l 347 197 q 360 228 347 218 q 389 238 374 238 q 417 228 404 238 q 431 197 431 218 l 431 104 q 534 160 497 114 q 571 294 571 207 l 571 713 z "},"R":{"ha":754,"x_min":99,"x_max":707,"o":"m 99 975 q 110 1002 99 990 q 140 1015 121 1014 l 394 1015 q 513 1001 457 1015 q 612 956 569 988 q 678 870 654 924 q 703 738 703 817 q 687 627 703 674 q 643 548 671 581 q 577 495 615 515 q 496 467 539 475 l 701 76 q 707 57 707 67 q 685 15 707 33 q 638 -3 663 -3 q 607 11 619 -3 q 585 43 594 25 l 375 450 l 215 450 l 215 42 q 197 10 215 21 q 157 0 179 0 q 117 10 135 0 q 99 42 99 21 l 99 975 m 215 910 l 215 547 l 394 547 q 533 589 481 547 q 586 729 586 631 q 533 868 586 826 q 394 910 481 910 l 215 910 z "},"Ŕ":{"ha":754,"x_min":99,"x_max":707,"o":"m 354 1165 q 347 1161 350 1163 q 339 1160 343 1160 q 309 1175 321 1160 q 297 1207 297 1190 q 315 1238 297 1228 l 478 1324 q 492 1326 486 1326 q 520 1311 510 1326 q 531 1279 531 1296 q 526 1260 531 1269 q 511 1246 522 1251 l 354 1165 m 99 975 q 110 1002 99 990 q 140 1015 121 1014 l 394 1015 q 513 1001 457 1015 q 612 956 569 988 q 678 870 654 924 q 703 738 703 817 q 687 627 703 674 q 643 548 671 581 q 577 495 615 515 q 496 467 539 475 l 701 76 q 707 57 707 67 q 685 15 707 33 q 638 -3 663 -3 q 607 11 619 -3 q 585 43 594 25 l 375 450 l 215 450 l 215 42 q 197 10 215 21 q 157 0 179 0 q 117 10 135 0 q 99 42 99 21 l 99 975 m 215 910 l 215 547 l 394 547 q 533 589 481 547 q 586 729 586 631 q 533 868 586 826 q 394 910 481 910 l 215 910 z "},"Ř":{"ha":754,"x_min":99,"x_max":707,"o":"m 382 1239 l 522 1356 q 532 1363 526 1361 q 542 1364 538 1364 q 563 1352 554 1364 q 571 1326 571 1340 q 550 1289 571 1303 l 410 1174 q 382 1161 394 1161 q 356 1174 368 1161 l 214 1289 q 194 1326 194 1303 q 202 1352 194 1340 q 224 1364 210 1364 q 243 1356 235 1364 l 382 1239 m 99 975 q 110 1002 99 990 q 140 1015 121 1014 l 394 1015 q 513 1001 457 1015 q 612 956 569 988 q 678 870 654 924 q 703 738 703 817 q 687 627 703 674 q 643 548 671 581 q 577 495 615 515 q 496 467 539 475 l 701 76 q 707 57 707 67 q 685 15 707 33 q 638 -3 663 -3 q 607 11 619 -3 q 585 43 594 25 l 375 450 l 215 450 l 215 42 q 197 10 215 21 q 157 0 179 0 q 117 10 135 0 q 99 42 99 21 l 99 975 m 215 910 l 215 547 l 394 547 q 533 589 481 547 q 586 729 586 631 q 533 868 586 826 q 394 910 481 910 l 215 910 z "},"Ŗ":{"ha":754,"x_min":99,"x_max":707,"o":"m 304 -229 q 288 -233 296 -233 q 258 -219 271 -233 q 246 -186 246 -204 q 264 -156 246 -165 l 426 -69 q 440 -67 438 -67 q 469 -82 458 -67 q 481 -114 481 -97 q 461 -147 481 -136 l 304 -229 m 99 975 q 110 1002 99 990 q 140 1015 121 1014 l 394 1015 q 513 1001 457 1015 q 612 956 569 988 q 678 870 654 924 q 703 738 703 817 q 687 627 703 674 q 643 548 671 581 q 577 495 615 515 q 496 467 539 475 l 701 76 q 707 57 707 67 q 685 15 707 33 q 638 -3 663 -3 q 607 11 619 -3 q 585 43 594 25 l 375 450 l 215 450 l 215 42 q 197 10 215 21 q 157 0 179 0 q 117 10 135 0 q 99 42 99 21 l 99 975 m 215 910 l 215 547 l 394 547 q 533 589 481 547 q 586 729 586 631 q 533 868 586 826 q 394 910 481 910 l 215 910 z "},"S":{"ha":697,"x_min":46,"x_max":644,"o":"m 335 97 q 475 140 422 97 q 528 269 528 182 q 494 379 528 339 q 409 446 460 419 q 299 493 358 472 q 190 545 240 514 q 105 626 139 576 q 71 760 71 675 q 99 886 71 836 q 172 965 128 936 q 271 1006 217 994 q 376 1018 325 1018 q 456 1013 414 1018 q 535 996 499 1007 q 595 967 571 985 q 619 926 619 950 q 606 886 619 910 q 569 863 593 863 q 542 871 557 863 q 506 889 528 879 q 453 907 485 899 q 376 915 422 915 q 303 908 338 915 q 244 883 269 900 q 203 839 218 867 q 188 771 188 811 q 222 679 188 713 q 306 623 256 646 q 416 579 357 600 q 526 524 475 558 q 610 432 576 489 q 644 281 644 375 q 622 151 644 206 q 558 60 599 96 q 463 6 518 24 q 340 -11 407 -11 q 219 5 274 -11 q 126 45 164 21 q 67 97 88 69 q 46 146 46 124 q 62 188 46 167 q 97 210 78 210 q 128 192 113 210 q 170 153 144 175 q 235 115 196 132 q 335 97 274 97 z "},"Ś":{"ha":697,"x_min":46,"x_max":644,"o":"m 299 1165 q 291 1161 294 1163 q 283 1160 288 1160 q 253 1175 265 1160 q 242 1207 242 1190 q 260 1238 242 1228 l 422 1324 q 436 1326 431 1326 q 465 1311 454 1326 q 475 1279 475 1296 q 471 1260 475 1269 q 456 1246 467 1251 l 299 1165 m 335 97 q 475 140 422 97 q 528 269 528 182 q 494 379 528 339 q 409 446 460 419 q 299 493 358 472 q 190 545 240 514 q 105 626 139 576 q 71 760 71 675 q 99 886 71 836 q 172 965 128 936 q 271 1006 217 994 q 376 1018 325 1018 q 456 1013 414 1018 q 535 996 499 1007 q 595 967 571 985 q 619 926 619 950 q 606 886 619 910 q 569 863 593 863 q 542 871 557 863 q 506 889 528 879 q 453 907 485 899 q 376 915 422 915 q 303 908 338 915 q 244 883 269 900 q 203 839 218 867 q 188 771 188 811 q 222 679 188 713 q 306 623 256 646 q 416 579 357 600 q 526 524 475 558 q 610 432 576 489 q 644 281 644 375 q 622 151 644 206 q 558 60 599 96 q 463 6 518 24 q 340 -11 407 -11 q 219 5 274 -11 q 126 45 164 21 q 67 97 88 69 q 46 146 46 124 q 62 188 46 167 q 97 210 78 210 q 128 192 113 210 q 170 153 144 175 q 235 115 196 132 q 335 97 274 97 z "},"Š":{"ha":697,"x_min":46,"x_max":644,"o":"m 343 1239 l 483 1356 q 493 1363 488 1361 q 503 1364 499 1364 q 524 1352 515 1364 q 532 1326 532 1340 q 511 1289 532 1303 l 371 1174 q 343 1161 356 1161 q 317 1174 329 1161 l 175 1289 q 156 1326 156 1303 q 163 1352 156 1340 q 185 1364 171 1364 q 204 1356 196 1364 l 343 1239 m 335 97 q 475 140 422 97 q 528 269 528 182 q 494 379 528 339 q 409 446 460 419 q 299 493 358 472 q 190 545 240 514 q 105 626 139 576 q 71 760 71 675 q 99 886 71 836 q 172 965 128 936 q 271 1006 217 994 q 376 1018 325 1018 q 456 1013 414 1018 q 535 996 499 1007 q 595 967 571 985 q 619 926 619 950 q 606 886 619 910 q 569 863 593 863 q 542 871 557 863 q 506 889 528 879 q 453 907 485 899 q 376 915 422 915 q 303 908 338 915 q 244 883 269 900 q 203 839 218 867 q 188 771 188 811 q 222 679 188 713 q 306 623 256 646 q 416 579 357 600 q 526 524 475 558 q 610 432 576 489 q 644 281 644 375 q 622 151 644 206 q 558 60 599 96 q 463 6 518 24 q 340 -11 407 -11 q 219 5 274 -11 q 126 45 164 21 q 67 97 88 69 q 46 146 46 124 q 62 188 46 167 q 97 210 78 210 q 128 192 113 210 q 170 153 144 175 q 235 115 196 132 q 335 97 274 97 z "},"Ş":{"ha":697,"x_min":46,"x_max":644,"o":"m 335 97 q 475 140 422 97 q 528 269 528 182 q 494 379 528 339 q 409 446 460 419 q 299 493 358 472 q 190 545 240 514 q 105 626 139 576 q 71 760 71 675 q 99 886 71 836 q 172 965 128 936 q 271 1006 217 994 q 376 1018 325 1018 q 456 1013 414 1018 q 535 996 499 1007 q 595 967 571 985 q 619 926 619 950 q 606 886 619 910 q 569 863 593 863 q 542 871 557 863 q 506 889 528 879 q 453 907 485 899 q 376 915 422 915 q 303 908 338 915 q 244 883 269 900 q 203 839 218 867 q 188 771 188 811 q 222 679 188 713 q 306 623 256 646 q 416 579 357 600 q 526 524 475 558 q 610 432 576 489 q 644 281 644 375 q 627 165 644 215 q 578 80 610 115 q 501 23 546 44 q 404 -7 457 1 l 385 -81 q 487 -113 456 -83 q 518 -182 518 -143 q 510 -222 518 -201 q 488 -258 503 -242 q 448 -284 472 -274 q 389 -294 424 -294 q 354 -292 374 -294 q 318 -285 335 -290 q 290 -274 301 -281 q 278 -257 278 -267 q 284 -234 278 -250 q 303 -218 290 -218 q 330 -228 313 -218 q 381 -237 347 -237 q 435 -223 418 -237 q 453 -186 453 -208 q 431 -145 453 -158 q 371 -129 410 -132 l 311 -125 l 340 -11 q 219 5 274 -11 q 126 45 164 21 q 67 97 88 69 q 46 146 46 124 q 62 188 46 167 q 97 210 78 210 q 128 192 113 210 q 170 153 144 175 q 235 115 196 132 q 335 97 274 97 z "},"Ŝ":{"ha":697,"x_min":46,"x_max":644,"o":"m 199 1169 q 186 1165 192 1165 q 164 1178 174 1165 q 154 1206 154 1190 q 159 1226 154 1217 q 175 1242 164 1236 l 319 1319 q 343 1326 333 1326 q 367 1319 356 1326 l 511 1243 q 533 1204 533 1231 q 524 1177 533 1189 q 501 1165 515 1165 q 495 1167 499 1165 q 488 1169 492 1168 l 343 1247 l 199 1169 m 335 97 q 475 140 422 97 q 528 269 528 182 q 494 379 528 339 q 409 446 460 419 q 299 493 358 472 q 190 545 240 514 q 105 626 139 576 q 71 760 71 675 q 99 886 71 836 q 172 965 128 936 q 271 1006 217 994 q 376 1018 325 1018 q 456 1013 414 1018 q 535 996 499 1007 q 595 967 571 985 q 619 926 619 950 q 606 886 619 910 q 569 863 593 863 q 542 871 557 863 q 506 889 528 879 q 453 907 485 899 q 376 915 422 915 q 303 908 338 915 q 244 883 269 900 q 203 839 218 867 q 188 771 188 811 q 222 679 188 713 q 306 623 256 646 q 416 579 357 600 q 526 524 475 558 q 610 432 576 489 q 644 281 644 375 q 622 151 644 206 q 558 60 599 96 q 463 6 518 24 q 340 -11 407 -11 q 219 5 274 -11 q 126 45 164 21 q 67 97 88 69 q 46 146 46 124 q 62 188 46 167 q 97 210 78 210 q 128 192 113 210 q 170 153 144 175 q 235 115 196 132 q 335 97 274 97 z "},"Ș":{"ha":697,"x_min":46,"x_max":644,"o":"m 304 -229 q 288 -233 296 -233 q 258 -219 271 -233 q 246 -186 246 -204 q 264 -156 246 -165 l 426 -69 q 440 -67 438 -67 q 469 -82 458 -67 q 481 -114 481 -97 q 461 -147 481 -136 l 304 -229 m 335 97 q 475 140 422 97 q 528 269 528 182 q 494 379 528 339 q 409 446 460 419 q 299 493 358 472 q 190 545 240 514 q 105 626 139 576 q 71 760 71 675 q 99 886 71 836 q 172 965 128 936 q 271 1006 217 994 q 376 1018 325 1018 q 456 1013 414 1018 q 535 996 499 1007 q 595 967 571 985 q 619 926 619 950 q 606 886 619 910 q 569 863 593 863 q 542 871 557 863 q 506 889 528 879 q 453 907 485 899 q 376 915 422 915 q 303 908 338 915 q 244 883 269 900 q 203 839 218 867 q 188 771 188 811 q 222 679 188 713 q 306 623 256 646 q 416 579 357 600 q 526 524 475 558 q 610 432 576 489 q 644 281 644 375 q 622 151 644 206 q 558 60 599 96 q 463 6 518 24 q 340 -11 407 -11 q 219 5 274 -11 q 126 45 164 21 q 67 97 88 69 q 46 146 46 124 q 62 188 46 167 q 97 210 78 210 q 128 192 113 210 q 170 153 144 175 q 235 115 196 132 q 335 97 274 97 z "},"T":{"ha":686,"x_min":18,"x_max":667,"o":"m 625 1015 q 656 999 646 1015 q 667 963 667 982 q 656 924 667 942 q 625 907 646 907 l 401 907 l 401 42 q 383 10 401 21 q 343 0 365 0 q 303 10 321 0 q 285 42 285 21 l 285 907 l 60 907 q 29 924 40 907 q 18 963 18 940 q 28 999 18 982 q 60 1015 39 1015 l 625 1015 z "},"Ŧ":{"ha":689,"x_min":19,"x_max":668,"o":"m 626 1015 q 658 999 647 1015 q 668 963 668 982 q 658 924 668 942 q 626 907 647 907 l 403 907 l 403 553 l 563 553 q 590 539 581 553 q 599 508 599 525 q 590 476 599 490 q 563 461 581 461 l 403 461 l 403 42 q 385 10 403 21 q 344 0 367 0 q 304 10 322 0 q 286 42 286 21 l 286 461 l 125 461 q 98 475 107 461 q 89 507 89 489 q 98 538 89 524 q 125 553 107 553 l 286 553 l 286 907 l 61 907 q 31 924 42 907 q 19 963 19 940 q 30 999 19 982 q 61 1015 40 1015 l 626 1015 z "},"Ť":{"ha":686,"x_min":18,"x_max":667,"o":"m 340 1239 l 481 1356 q 490 1363 485 1361 q 500 1364 496 1364 q 521 1352 513 1364 q 529 1326 529 1340 q 508 1289 529 1303 l 368 1174 q 340 1161 353 1161 q 314 1174 326 1161 l 172 1289 q 153 1326 153 1303 q 160 1352 153 1340 q 182 1364 168 1364 q 201 1356 193 1364 l 340 1239 m 625 1015 q 656 999 646 1015 q 667 963 667 982 q 656 924 667 942 q 625 907 646 907 l 401 907 l 401 42 q 383 10 401 21 q 343 0 365 0 q 303 10 321 0 q 285 42 285 21 l 285 907 l 60 907 q 29 924 40 907 q 18 963 18 940 q 28 999 18 982 q 60 1015 39 1015 l 625 1015 z "},"Ţ":{"ha":686,"x_min":18,"x_max":667,"o":"m 281 -229 q 264 -233 272 -233 q 235 -219 247 -233 q 222 -186 222 -204 q 240 -156 222 -165 l 403 -69 q 417 -67 414 -67 q 446 -82 435 -67 q 457 -114 457 -97 q 438 -147 457 -136 l 281 -229 m 625 1015 q 656 999 646 1015 q 667 963 667 982 q 656 924 667 942 q 625 907 646 907 l 401 907 l 401 42 q 383 10 401 21 q 343 0 365 0 q 303 10 321 0 q 285 42 285 21 l 285 907 l 60 907 q 29 924 40 907 q 18 963 18 940 q 28 999 18 982 q 60 1015 39 1015 l 625 1015 z "},"Þ":{"ha":696,"x_min":99,"x_max":644,"o":"m 154 1025 q 198 1014 182 1025 q 214 985 214 1003 l 214 756 q 285 829 238 797 q 403 861 332 861 q 495 844 451 861 q 572 797 539 828 q 625 722 606 765 q 644 624 644 678 l 644 425 q 624 328 644 372 q 572 251 604 283 q 497 202 539 219 q 410 185 454 185 q 347 193 378 185 q 289 217 315 201 q 243 251 263 232 q 214 294 224 271 l 214 42 q 197 13 214 26 q 157 0 181 0 q 115 13 132 0 q 99 42 99 26 l 99 985 q 115 1015 99 1004 q 154 1025 131 1025 m 529 624 q 517 679 529 654 q 483 722 504 704 q 433 748 461 739 q 376 757 406 757 q 315 747 344 757 q 263 720 286 738 q 227 678 240 703 q 214 624 214 654 l 214 418 q 226 374 214 397 q 260 333 238 351 q 311 301 282 314 q 376 289 340 289 q 433 298 406 289 q 482 324 461 307 q 516 367 503 342 q 529 425 529 393 l 529 624 z "},"U":{"ha":796,"x_min":94,"x_max":701,"o":"m 585 975 q 602 1006 585 996 q 643 1015 619 1015 q 683 1006 664 1015 q 701 975 701 996 l 701 294 q 678 153 701 211 q 613 60 654 96 q 517 8 572 24 q 397 -8 461 -8 q 278 8 333 -8 q 182 60 222 24 q 118 153 142 96 q 94 294 94 211 l 94 975 q 113 1006 94 996 q 153 1015 131 1015 q 193 1006 175 1015 q 211 975 211 996 l 211 294 q 260 145 211 193 q 397 97 310 97 q 535 145 485 97 q 585 294 585 193 l 585 975 z "},"Ú":{"ha":796,"x_min":94,"x_max":701,"o":"m 353 1165 q 345 1161 349 1163 q 338 1160 342 1160 q 308 1175 319 1160 q 296 1207 296 1190 q 314 1238 296 1228 l 476 1324 q 490 1326 485 1326 q 519 1311 508 1326 q 529 1279 529 1296 q 525 1260 529 1269 q 510 1246 521 1251 l 353 1165 m 585 975 q 602 1006 585 996 q 643 1015 619 1015 q 683 1006 664 1015 q 701 975 701 996 l 701 294 q 678 153 701 211 q 613 60 654 96 q 517 8 572 24 q 397 -8 461 -8 q 278 8 333 -8 q 182 60 222 24 q 118 153 142 96 q 94 294 94 211 l 94 975 q 113 1006 94 996 q 153 1015 131 1015 q 193 1006 175 1015 q 211 975 211 996 l 211 294 q 260 145 211 193 q 397 97 310 97 q 535 145 485 97 q 585 294 585 193 l 585 975 z "},"Ŭ":{"ha":796,"x_min":94,"x_max":701,"o":"m 585 975 q 602 1006 585 996 q 643 1015 619 1015 q 683 1006 664 1015 q 701 975 701 996 l 701 294 q 678 153 701 211 q 613 60 654 96 q 517 8 572 24 q 397 -8 461 -8 q 278 8 333 -8 q 182 60 222 24 q 118 153 142 96 q 94 294 94 211 l 94 975 q 113 1006 94 996 q 153 1015 131 1015 q 193 1006 175 1015 q 211 975 211 996 l 211 294 q 260 145 211 193 q 397 97 310 97 q 535 145 485 97 q 585 294 585 193 l 585 975 m 563 1343 q 549 1279 563 1310 q 511 1226 535 1249 q 458 1189 488 1203 q 394 1175 428 1175 q 331 1189 361 1175 q 278 1226 301 1203 q 240 1279 254 1249 q 226 1343 226 1310 l 297 1343 q 327 1265 297 1296 q 394 1233 357 1233 q 462 1265 432 1233 q 492 1343 492 1296 l 563 1343 z "},"Û":{"ha":796,"x_min":94,"x_max":701,"o":"m 249 1169 q 236 1165 242 1165 q 214 1178 224 1165 q 204 1206 204 1190 q 209 1226 204 1217 q 225 1242 214 1236 l 369 1319 q 393 1326 383 1326 q 417 1319 406 1326 l 561 1243 q 583 1204 583 1231 q 574 1177 583 1189 q 551 1165 565 1165 q 545 1167 549 1165 q 538 1169 542 1168 l 393 1247 l 249 1169 m 585 975 q 602 1006 585 996 q 643 1015 619 1015 q 683 1006 664 1015 q 701 975 701 996 l 701 294 q 678 153 701 211 q 613 60 654 96 q 517 8 572 24 q 397 -8 461 -8 q 278 8 333 -8 q 182 60 222 24 q 118 153 142 96 q 94 294 94 211 l 94 975 q 113 1006 94 996 q 153 1015 131 1015 q 193 1006 175 1015 q 211 975 211 996 l 211 294 q 260 145 211 193 q 397 97 310 97 q 535 145 485 97 q 585 294 585 193 l 585 975 z "},"Ü":{"ha":796,"x_min":94,"x_max":701,"o":"m 307 1281 q 347 1264 331 1281 q 363 1224 363 1247 q 347 1183 363 1200 q 307 1165 331 1165 q 267 1183 283 1165 q 250 1224 250 1200 q 267 1264 250 1247 q 307 1281 283 1281 m 488 1281 q 527 1264 511 1281 q 543 1224 543 1247 q 527 1183 543 1200 q 488 1165 511 1165 q 448 1183 464 1165 q 432 1224 432 1200 q 448 1264 432 1247 q 488 1281 464 1281 m 585 975 q 602 1006 585 996 q 643 1015 619 1015 q 683 1006 664 1015 q 701 975 701 996 l 701 294 q 678 153 701 211 q 613 60 654 96 q 517 8 572 24 q 397 -8 461 -8 q 278 8 333 -8 q 182 60 222 24 q 118 153 142 96 q 94 294 94 211 l 94 975 q 113 1006 94 996 q 153 1015 131 1015 q 193 1006 175 1015 q 211 975 211 996 l 211 294 q 260 145 211 193 q 397 97 310 97 q 535 145 485 97 q 585 294 585 193 l 585 975 z "},"Ù":{"ha":796,"x_min":94,"x_max":701,"o":"m 585 975 q 602 1006 585 996 q 643 1015 619 1015 q 683 1006 664 1015 q 701 975 701 996 l 701 294 q 678 153 701 211 q 613 60 654 96 q 517 8 572 24 q 397 -8 461 -8 q 278 8 333 -8 q 182 60 222 24 q 118 153 142 96 q 94 294 94 211 l 94 975 q 113 1006 94 996 q 153 1015 131 1015 q 193 1006 175 1015 q 211 975 211 996 l 211 294 q 260 145 211 193 q 397 97 310 97 q 535 145 485 97 q 585 294 585 193 l 585 975 m 288 1246 q 272 1260 276 1251 q 268 1279 268 1269 q 279 1311 268 1296 q 307 1326 290 1326 q 321 1324 313 1326 l 483 1238 q 501 1207 501 1228 q 490 1175 501 1190 q 460 1160 478 1160 q 444 1165 456 1160 l 288 1246 z "},"Ű":{"ha":796,"x_min":94,"x_max":701,"o":"m 585 975 q 602 1006 585 996 q 643 1015 619 1015 q 683 1006 664 1015 q 701 975 701 996 l 701 294 q 678 153 701 211 q 613 60 654 96 q 517 8 572 24 q 397 -8 461 -8 q 278 8 333 -8 q 182 60 222 24 q 118 153 142 96 q 94 294 94 211 l 94 975 q 113 1006 94 996 q 153 1015 131 1015 q 193 1006 175 1015 q 211 975 211 996 l 211 294 q 260 145 211 193 q 397 97 310 97 q 535 145 485 97 q 585 294 585 193 l 585 975 m 310 1167 q 301 1160 304 1163 q 290 1158 297 1158 q 262 1170 275 1158 q 249 1197 249 1182 q 260 1218 249 1211 l 388 1321 q 406 1328 394 1328 q 433 1315 421 1328 q 444 1289 444 1303 q 432 1265 444 1274 l 310 1167 m 521 1167 q 501 1158 513 1158 q 473 1170 486 1158 q 460 1197 460 1182 q 471 1218 460 1211 l 600 1321 q 618 1328 606 1328 q 644 1315 633 1328 q 656 1289 656 1303 q 643 1265 656 1274 l 521 1167 z "},"Ū":{"ha":796,"x_min":94,"x_max":701,"o":"m 585 975 q 602 1006 585 996 q 643 1015 619 1015 q 683 1006 664 1015 q 701 975 701 996 l 701 294 q 678 153 701 211 q 613 60 654 96 q 517 8 572 24 q 397 -8 461 -8 q 278 8 333 -8 q 182 60 222 24 q 118 153 142 96 q 94 294 94 211 l 94 975 q 113 1006 94 996 q 153 1015 131 1015 q 193 1006 175 1015 q 211 975 211 996 l 211 294 q 260 145 211 193 q 397 97 310 97 q 535 145 485 97 q 585 294 585 193 l 585 975 m 208 1263 q 219 1293 208 1281 q 249 1306 231 1306 l 543 1306 q 572 1293 558 1306 q 585 1263 585 1281 q 572 1232 585 1243 q 543 1221 558 1221 l 249 1221 q 219 1232 231 1221 q 208 1263 208 1243 z "},"Ų":{"ha":796,"x_min":94,"x_max":701,"o":"m 585 975 q 602 1006 585 996 q 643 1015 619 1015 q 683 1006 664 1015 q 701 975 701 996 l 701 294 q 688 182 701 231 q 648 98 674 133 q 587 40 622 63 q 510 6 551 18 q 437 -72 465 -29 q 408 -164 408 -115 q 493 -226 408 -226 q 514 -235 507 -226 q 521 -257 521 -244 q 514 -276 521 -269 q 485 -283 507 -283 q 384 -257 425 -283 q 343 -174 343 -231 q 363 -85 343 -128 q 418 -7 382 -43 q 408 -8 413 -7 q 397 -8 403 -8 q 278 8 333 -8 q 182 60 222 24 q 118 153 142 96 q 94 294 94 211 l 94 975 q 113 1006 94 996 q 153 1015 131 1015 q 193 1006 175 1015 q 211 975 211 996 l 211 294 q 260 145 211 193 q 397 97 310 97 q 535 145 485 97 q 585 294 585 193 l 585 975 z "},"Ů":{"ha":796,"x_min":94,"x_max":701,"o":"m 397 1415 q 446 1404 422 1415 q 488 1375 469 1393 q 517 1333 506 1357 q 528 1283 528 1310 q 517 1233 528 1257 q 488 1190 506 1208 q 446 1160 469 1171 q 397 1149 422 1149 q 346 1160 369 1149 q 305 1190 322 1171 q 277 1233 288 1208 q 267 1283 267 1257 q 276 1333 267 1308 q 304 1375 286 1357 q 346 1404 322 1393 q 397 1415 369 1415 m 474 1283 q 451 1335 474 1311 q 397 1360 429 1360 q 342 1335 365 1360 q 319 1283 319 1311 q 342 1227 319 1253 q 397 1201 365 1201 q 451 1227 429 1201 q 474 1283 474 1253 m 585 975 q 602 1006 585 996 q 643 1015 619 1015 q 683 1006 664 1015 q 701 975 701 996 l 701 294 q 678 153 701 211 q 613 60 654 96 q 517 8 572 24 q 397 -8 461 -8 q 278 8 333 -8 q 182 60 222 24 q 118 153 142 96 q 94 294 94 211 l 94 975 q 113 1006 94 996 q 153 1015 131 1015 q 193 1006 175 1015 q 211 975 211 996 l 211 294 q 260 145 211 193 q 397 97 310 97 q 535 145 485 97 q 585 294 585 193 l 585 975 z "},"Ũ":{"ha":796,"x_min":94,"x_max":701,"o":"m 585 975 q 602 1006 585 996 q 643 1015 619 1015 q 683 1006 664 1015 q 701 975 701 996 l 701 294 q 678 153 701 211 q 613 60 654 96 q 517 8 572 24 q 397 -8 461 -8 q 278 8 333 -8 q 182 60 222 24 q 118 153 142 96 q 94 294 94 211 l 94 975 q 113 1006 94 996 q 153 1015 131 1015 q 193 1006 175 1015 q 211 975 211 996 l 211 294 q 260 145 211 193 q 397 97 310 97 q 535 145 485 97 q 585 294 585 193 l 585 975 m 310 1232 q 272 1226 288 1232 q 244 1212 256 1219 q 223 1198 232 1204 q 204 1192 214 1192 q 179 1206 186 1192 q 172 1232 172 1221 q 185 1271 172 1254 q 217 1297 199 1288 q 257 1312 236 1307 q 293 1317 278 1317 q 344 1310 321 1317 q 388 1294 367 1303 q 431 1278 408 1285 q 481 1271 453 1271 q 518 1276 503 1271 q 544 1290 533 1282 q 564 1303 556 1297 q 582 1308 572 1308 q 608 1294 600 1308 q 615 1269 615 1279 q 602 1228 615 1244 q 570 1203 589 1213 q 532 1190 551 1194 q 499 1186 513 1186 q 445 1193 468 1186 q 401 1209 422 1200 q 359 1225 381 1218 q 310 1232 338 1232 z "},"V":{"ha":763,"x_min":24,"x_max":739,"o":"m 26 956 q 24 967 24 964 q 47 1002 24 989 q 94 1015 71 1015 q 138 989 129 1015 l 382 164 l 625 989 q 667 1015 635 1015 q 715 1001 692 1015 q 739 965 739 986 q 738 960 739 963 q 738 956 738 958 l 456 32 q 428 2 449 13 q 382 -8 407 -8 q 338 1 358 -8 q 311 32 318 11 l 26 956 z "},"W":{"ha":1129,"x_min":24,"x_max":1104,"o":"m 829 32 q 801 2 822 13 q 757 -8 781 -8 q 712 1 733 -8 q 685 32 690 11 l 565 490 l 444 32 q 418 2 439 13 q 374 -8 397 -8 q 328 1 349 -8 q 301 32 308 11 l 26 956 q 24 961 25 958 q 24 968 24 964 q 47 1002 24 989 q 94 1015 71 1015 q 122 1009 110 1015 q 138 989 133 1003 l 372 164 l 504 672 q 527 700 510 692 q 565 708 544 708 q 601 700 585 708 q 624 672 618 692 l 757 164 l 990 989 q 1007 1009 994 1003 q 1035 1015 1019 1015 q 1081 1002 1058 1015 q 1104 968 1104 989 q 1103 956 1104 960 l 829 32 z "},"Ẃ":{"ha":1129,"x_min":24,"x_max":1104,"o":"m 515 1165 q 508 1161 511 1163 q 500 1160 504 1160 q 470 1175 482 1160 q 458 1207 458 1190 q 476 1238 458 1228 l 639 1324 q 653 1326 647 1326 q 681 1311 671 1326 q 692 1279 692 1296 q 688 1260 692 1269 q 672 1246 683 1251 l 515 1165 m 829 32 q 801 2 822 13 q 757 -8 781 -8 q 712 1 733 -8 q 685 32 690 11 l 565 490 l 444 32 q 418 2 439 13 q 374 -8 397 -8 q 328 1 349 -8 q 301 32 308 11 l 26 956 q 24 961 25 958 q 24 968 24 964 q 47 1002 24 989 q 94 1015 71 1015 q 122 1009 110 1015 q 138 989 133 1003 l 372 164 l 504 672 q 527 700 510 692 q 565 708 544 708 q 601 700 585 708 q 624 672 618 692 l 757 164 l 990 989 q 1007 1009 994 1003 q 1035 1015 1019 1015 q 1081 1002 1058 1015 q 1104 968 1104 989 q 1103 956 1104 960 l 829 32 z "},"Ŵ":{"ha":1129,"x_min":24,"x_max":1104,"o":"m 419 1169 q 407 1165 413 1165 q 385 1178 394 1165 q 375 1206 375 1190 q 380 1226 375 1217 q 396 1242 385 1236 l 540 1319 q 564 1326 554 1326 q 588 1319 576 1326 l 732 1243 q 754 1204 754 1231 q 745 1177 754 1189 q 722 1165 736 1165 q 716 1167 719 1165 q 708 1169 713 1168 l 564 1247 l 419 1169 m 829 32 q 801 2 822 13 q 757 -8 781 -8 q 712 1 733 -8 q 685 32 690 11 l 565 490 l 444 32 q 418 2 439 13 q 374 -8 397 -8 q 328 1 349 -8 q 301 32 308 11 l 26 956 q 24 961 25 958 q 24 968 24 964 q 47 1002 24 989 q 94 1015 71 1015 q 122 1009 110 1015 q 138 989 133 1003 l 372 164 l 504 672 q 527 700 510 692 q 565 708 544 708 q 601 700 585 708 q 624 672 618 692 l 757 164 l 990 989 q 1007 1009 994 1003 q 1035 1015 1019 1015 q 1081 1002 1058 1015 q 1104 968 1104 989 q 1103 956 1104 960 l 829 32 z "},"Ẅ":{"ha":1129,"x_min":24,"x_max":1104,"o":"m 475 1281 q 515 1264 499 1281 q 531 1224 531 1247 q 515 1183 531 1200 q 475 1165 499 1165 q 435 1183 451 1165 q 418 1224 418 1200 q 435 1264 418 1247 q 475 1281 451 1281 m 656 1281 q 695 1264 679 1281 q 711 1224 711 1247 q 695 1183 711 1200 q 656 1165 679 1165 q 616 1183 632 1165 q 600 1224 600 1200 q 616 1264 600 1247 q 656 1281 632 1281 m 829 32 q 801 2 822 13 q 757 -8 781 -8 q 712 1 733 -8 q 685 32 690 11 l 565 490 l 444 32 q 418 2 439 13 q 374 -8 397 -8 q 328 1 349 -8 q 301 32 308 11 l 26 956 q 24 961 25 958 q 24 968 24 964 q 47 1002 24 989 q 94 1015 71 1015 q 122 1009 110 1015 q 138 989 133 1003 l 372 164 l 504 672 q 527 700 510 692 q 565 708 544 708 q 601 700 585 708 q 624 672 618 692 l 757 164 l 990 989 q 1007 1009 994 1003 q 1035 1015 1019 1015 q 1081 1002 1058 1015 q 1104 968 1104 989 q 1103 956 1104 960 l 829 32 z "},"Ẁ":{"ha":1129,"x_min":24,"x_max":1104,"o":"m 829 32 q 801 2 822 13 q 757 -8 781 -8 q 712 1 733 -8 q 685 32 690 11 l 565 490 l 444 32 q 418 2 439 13 q 374 -8 397 -8 q 328 1 349 -8 q 301 32 308 11 l 26 956 q 24 961 25 958 q 24 968 24 964 q 47 1002 24 989 q 94 1015 71 1015 q 122 1009 110 1015 q 138 989 133 1003 l 372 164 l 504 672 q 527 700 510 692 q 565 708 544 708 q 601 700 585 708 q 624 672 618 692 l 757 164 l 990 989 q 1007 1009 994 1003 q 1035 1015 1019 1015 q 1081 1002 1058 1015 q 1104 968 1104 989 q 1103 956 1104 960 l 829 32 m 456 1246 q 440 1260 444 1251 q 436 1279 436 1269 q 447 1311 436 1296 q 475 1326 458 1326 q 489 1324 481 1326 l 651 1238 q 669 1207 669 1228 q 658 1175 669 1190 q 628 1160 646 1160 q 613 1165 624 1160 l 456 1246 z "},"X":{"ha":701,"x_min":28,"x_max":674,"o":"m 350 415 l 146 36 q 128 10 139 22 q 101 -3 117 -3 q 53 14 78 -3 q 28 54 28 31 q 36 79 28 67 l 275 508 l 42 935 q 32 965 32 950 q 54 1003 32 989 q 103 1018 76 1018 q 133 1004 121 1018 q 154 974 146 990 l 350 604 l 547 974 q 568 1004 556 990 q 599 1018 581 1018 q 647 1003 625 1018 q 669 965 669 989 q 660 935 669 950 l 425 508 l 665 79 q 674 54 674 67 q 649 14 674 31 q 600 -3 624 -3 q 574 10 585 -3 q 556 36 563 22 l 350 415 z "},"Y":{"ha":757,"x_min":24,"x_max":733,"o":"m 321 393 q 317 407 321 400 l 29 943 q 24 967 24 956 q 47 1002 24 989 q 93 1015 71 1015 q 117 1008 108 1015 q 135 985 126 1000 l 379 508 l 622 985 q 664 1015 639 1015 q 710 1002 688 1015 q 733 967 733 989 q 728 943 733 956 l 440 407 q 438 393 438 403 l 438 42 q 419 10 438 21 q 379 0 401 0 q 339 10 357 0 q 321 42 321 21 l 321 393 z "},"Ý":{"ha":757,"x_min":24,"x_max":733,"o":"m 321 393 q 317 407 321 400 l 29 943 q 24 967 24 956 q 47 1002 24 989 q 93 1015 71 1015 q 117 1008 108 1015 q 135 985 126 1000 l 379 508 l 622 985 q 664 1015 639 1015 q 710 1002 688 1015 q 733 967 733 989 q 728 943 733 956 l 440 407 q 438 393 438 403 l 438 42 q 419 10 438 21 q 379 0 401 0 q 339 10 357 0 q 321 42 321 21 l 321 393 m 329 1165 q 322 1161 325 1163 q 314 1160 318 1160 q 284 1175 296 1160 q 272 1207 272 1190 q 290 1238 272 1228 l 453 1324 q 467 1326 461 1326 q 495 1311 485 1326 q 506 1279 506 1296 q 501 1260 506 1269 q 486 1246 497 1251 l 329 1165 z "},"Ŷ":{"ha":757,"x_min":24,"x_max":733,"o":"m 321 393 q 317 407 321 400 l 29 943 q 24 967 24 956 q 47 1002 24 989 q 93 1015 71 1015 q 117 1008 108 1015 q 135 985 126 1000 l 379 508 l 622 985 q 664 1015 639 1015 q 710 1002 688 1015 q 733 967 733 989 q 728 943 733 956 l 440 407 q 438 393 438 403 l 438 42 q 419 10 438 21 q 379 0 401 0 q 339 10 357 0 q 321 42 321 21 l 321 393 m 233 1169 q 221 1165 226 1165 q 199 1178 208 1165 q 189 1206 189 1190 q 194 1226 189 1217 q 210 1242 199 1236 l 354 1319 q 378 1326 368 1326 q 401 1319 390 1326 l 546 1243 q 568 1204 568 1231 q 559 1177 568 1189 q 536 1165 550 1165 q 530 1167 533 1165 q 522 1169 526 1168 l 378 1247 l 233 1169 z "},"Ÿ":{"ha":757,"x_min":24,"x_max":733,"o":"m 321 393 q 317 407 321 400 l 29 943 q 24 967 24 956 q 47 1002 24 989 q 93 1015 71 1015 q 117 1008 108 1015 q 135 985 126 1000 l 379 508 l 622 985 q 664 1015 639 1015 q 710 1002 688 1015 q 733 967 733 989 q 728 943 733 956 l 440 407 q 438 393 438 403 l 438 42 q 419 10 438 21 q 379 0 401 0 q 339 10 357 0 q 321 42 321 21 l 321 393 m 289 1281 q 328 1264 313 1281 q 344 1224 344 1247 q 328 1183 344 1200 q 289 1165 313 1165 q 249 1183 265 1165 q 232 1224 232 1200 q 249 1264 232 1247 q 289 1281 265 1281 m 469 1281 q 509 1264 493 1281 q 525 1224 525 1247 q 509 1183 525 1200 q 469 1165 493 1165 q 430 1183 446 1165 q 414 1224 414 1200 q 430 1264 414 1247 q 469 1281 446 1281 z "},"Ỳ":{"ha":757,"x_min":24,"x_max":733,"o":"m 321 393 q 317 407 321 400 l 29 943 q 24 967 24 956 q 47 1002 24 989 q 93 1015 71 1015 q 117 1008 108 1015 q 135 985 126 1000 l 379 508 l 622 985 q 664 1015 639 1015 q 710 1002 688 1015 q 733 967 733 989 q 728 943 733 956 l 440 407 q 438 393 438 403 l 438 42 q 419 10 438 21 q 379 0 401 0 q 339 10 357 0 q 321 42 321 21 l 321 393 m 271 1246 q 256 1260 260 1251 q 251 1279 251 1269 q 263 1311 251 1296 q 290 1326 274 1326 q 304 1324 296 1326 l 467 1238 q 485 1207 485 1228 q 473 1175 485 1190 q 443 1160 461 1160 q 428 1165 439 1160 l 271 1246 z "},"Z":{"ha":688,"x_min":29,"x_max":660,"o":"m 179 106 l 618 106 q 649 89 638 106 q 660 53 660 72 q 649 17 660 33 q 618 0 638 0 l 69 0 q 40 10 50 0 q 29 38 29 21 q 40 78 29 56 l 489 910 l 89 910 q 59 926 69 910 q 49 963 49 942 q 58 999 49 982 q 89 1015 68 1015 l 600 1015 q 640 981 640 1015 q 626 936 640 961 l 179 106 z "},"Ź":{"ha":688,"x_min":29,"x_max":660,"o":"m 294 1165 q 287 1161 290 1163 q 279 1160 283 1160 q 249 1175 261 1160 q 238 1207 238 1190 q 256 1238 238 1228 l 418 1324 q 432 1326 426 1326 q 460 1311 450 1326 q 471 1279 471 1296 q 467 1260 471 1269 q 451 1246 463 1251 l 294 1165 m 179 106 l 618 106 q 649 89 638 106 q 660 53 660 72 q 649 17 660 33 q 618 0 638 0 l 69 0 q 40 10 50 0 q 29 38 29 21 q 40 78 29 56 l 489 910 l 89 910 q 59 926 69 910 q 49 963 49 942 q 58 999 49 982 q 89 1015 68 1015 l 600 1015 q 640 981 640 1015 q 626 936 640 961 l 179 106 z "},"Ž":{"ha":688,"x_min":29,"x_max":660,"o":"m 338 1239 l 478 1356 q 488 1363 482 1361 q 497 1364 493 1364 q 518 1352 510 1364 q 526 1326 526 1340 q 506 1289 526 1303 l 365 1174 q 338 1161 350 1161 q 311 1174 324 1161 l 169 1289 q 150 1326 150 1303 q 158 1352 150 1340 q 179 1364 165 1364 q 199 1356 190 1364 l 338 1239 m 179 106 l 618 106 q 649 89 638 106 q 660 53 660 72 q 649 17 660 33 q 618 0 638 0 l 69 0 q 40 10 50 0 q 29 38 29 21 q 40 78 29 56 l 489 910 l 89 910 q 59 926 69 910 q 49 963 49 942 q 58 999 49 982 q 89 1015 68 1015 l 600 1015 q 640 981 640 1015 q 626 936 640 961 l 179 106 z "},"Ż":{"ha":688,"x_min":29,"x_max":660,"o":"m 179 106 l 618 106 q 649 89 638 106 q 660 53 660 72 q 649 17 660 33 q 618 0 638 0 l 69 0 q 40 10 50 0 q 29 38 29 21 q 40 78 29 56 l 489 910 l 89 910 q 59 926 69 910 q 49 963 49 942 q 58 999 49 982 q 89 1015 68 1015 l 600 1015 q 640 981 640 1015 q 626 936 640 961 l 179 106 m 344 1281 q 384 1264 368 1281 q 400 1224 400 1247 q 384 1183 400 1200 q 344 1165 368 1165 q 304 1183 321 1165 q 288 1224 288 1200 q 304 1264 288 1247 q 344 1281 321 1281 z "},"a":{"ha":622,"x_min":39,"x_max":546,"o":"m 281 667 q 403 644 353 667 q 486 583 454 621 q 532 497 518 546 q 546 397 546 449 l 546 42 q 530 12 546 24 q 489 0 514 0 q 451 12 465 0 q 436 42 436 24 l 436 97 q 349 22 400 56 q 226 -11 297 -11 q 153 0 188 -11 q 94 34 119 11 q 53 92 68 57 q 39 174 39 126 q 63 269 39 232 q 129 328 86 306 q 232 358 172 350 q 364 367 292 367 l 431 367 l 431 396 q 422 457 431 426 q 396 513 414 488 q 349 553 378 538 q 278 568 319 568 q 217 562 242 568 q 175 548 192 556 q 147 534 158 540 q 126 528 136 528 q 94 547 106 528 q 83 586 83 567 q 101 617 83 603 q 148 643 119 632 q 211 660 176 654 q 281 667 246 667 m 431 296 l 382 296 q 297 292 338 296 q 224 278 256 289 q 174 245 193 267 q 156 186 156 224 q 186 107 156 132 q 263 82 217 82 q 322 95 292 82 q 376 129 353 108 q 415 175 400 150 q 431 224 431 200 l 431 296 z "},"á":{"ha":622,"x_min":39,"x_max":546,"o":"m 281 667 q 403 644 353 667 q 486 583 454 621 q 532 497 518 546 q 546 397 546 449 l 546 42 q 530 12 546 24 q 489 0 514 0 q 451 12 465 0 q 436 42 436 24 l 436 97 q 349 22 400 56 q 226 -11 297 -11 q 153 0 188 -11 q 94 34 119 11 q 53 92 68 57 q 39 174 39 126 q 63 269 39 232 q 129 328 86 306 q 232 358 172 350 q 364 367 292 367 l 431 367 l 431 396 q 422 457 431 426 q 396 513 414 488 q 349 553 378 538 q 278 568 319 568 q 217 562 242 568 q 175 548 192 556 q 147 534 158 540 q 126 528 136 528 q 94 547 106 528 q 83 586 83 567 q 101 617 83 603 q 148 643 119 632 q 211 660 176 654 q 281 667 246 667 m 431 296 l 382 296 q 297 292 338 296 q 224 278 256 289 q 174 245 193 267 q 156 186 156 224 q 186 107 156 132 q 263 82 217 82 q 322 95 292 82 q 376 129 353 108 q 415 175 400 150 q 431 224 431 200 l 431 296 m 246 817 q 238 813 242 814 q 231 811 235 811 q 201 826 213 811 q 189 858 189 842 q 207 889 189 879 l 369 975 q 383 978 378 978 q 412 963 401 978 q 422 931 422 947 q 418 912 422 921 q 403 897 414 903 l 246 817 z "},"ă":{"ha":622,"x_min":39,"x_max":546,"o":"m 281 667 q 403 644 353 667 q 486 583 454 621 q 532 497 518 546 q 546 397 546 449 l 546 42 q 530 12 546 24 q 489 0 514 0 q 451 12 465 0 q 436 42 436 24 l 436 97 q 349 22 400 56 q 226 -11 297 -11 q 153 0 188 -11 q 94 34 119 11 q 53 92 68 57 q 39 174 39 126 q 63 269 39 232 q 129 328 86 306 q 232 358 172 350 q 364 367 292 367 l 431 367 l 431 396 q 422 457 431 426 q 396 513 414 488 q 349 553 378 538 q 278 568 319 568 q 217 562 242 568 q 175 548 192 556 q 147 534 158 540 q 126 528 136 528 q 94 547 106 528 q 83 586 83 567 q 101 617 83 603 q 148 643 119 632 q 211 660 176 654 q 281 667 246 667 m 431 296 l 382 296 q 297 292 338 296 q 224 278 256 289 q 174 245 193 267 q 156 186 156 224 q 186 107 156 132 q 263 82 217 82 q 322 95 292 82 q 376 129 353 108 q 415 175 400 150 q 431 224 431 200 l 431 296 m 469 994 q 456 931 469 961 q 418 877 442 900 q 365 840 394 854 q 301 826 335 826 q 238 840 268 826 q 185 877 208 854 q 147 931 161 900 q 133 994 133 961 l 204 994 q 234 916 204 947 q 301 885 264 885 q 369 916 339 885 q 399 994 399 947 l 469 994 z "},"â":{"ha":622,"x_min":39,"x_max":546,"o":"m 149 821 q 136 817 142 817 q 114 829 124 817 q 104 857 104 842 q 109 878 104 868 q 125 893 114 888 l 269 971 q 293 978 283 978 q 317 971 306 978 l 461 894 q 483 856 483 882 q 474 828 483 840 q 451 817 465 817 q 445 818 449 817 q 438 821 442 819 l 293 899 l 149 821 m 281 667 q 403 644 353 667 q 486 583 454 621 q 532 497 518 546 q 546 397 546 449 l 546 42 q 530 12 546 24 q 489 0 514 0 q 451 12 465 0 q 436 42 436 24 l 436 97 q 349 22 400 56 q 226 -11 297 -11 q 153 0 188 -11 q 94 34 119 11 q 53 92 68 57 q 39 174 39 126 q 63 269 39 232 q 129 328 86 306 q 232 358 172 350 q 364 367 292 367 l 431 367 l 431 396 q 422 457 431 426 q 396 513 414 488 q 349 553 378 538 q 278 568 319 568 q 217 562 242 568 q 175 548 192 556 q 147 534 158 540 q 126 528 136 528 q 94 547 106 528 q 83 586 83 567 q 101 617 83 603 q 148 643 119 632 q 211 660 176 654 q 281 667 246 667 m 431 296 l 382 296 q 297 292 338 296 q 224 278 256 289 q 174 245 193 267 q 156 186 156 224 q 186 107 156 132 q 263 82 217 82 q 322 95 292 82 q 376 129 353 108 q 415 175 400 150 q 431 224 431 200 l 431 296 z "},"´":{"ha":233,"x_min":0,"x_max":233,"o":"m 57 817 q 49 813 53 814 q 42 811 46 811 q 12 826 24 811 q 0 858 0 842 q 18 889 0 879 l 181 975 q 194 978 189 978 q 223 963 213 978 q 233 931 233 947 q 229 912 233 921 q 214 897 225 903 l 57 817 z "},"ä":{"ha":622,"x_min":39,"x_max":546,"o":"m 204 932 q 244 915 228 932 q 260 875 260 899 q 244 834 260 851 q 204 817 228 817 q 164 834 181 817 q 147 875 147 851 q 164 915 147 899 q 204 932 181 932 m 385 932 q 424 915 408 932 q 440 875 440 899 q 424 834 440 851 q 385 817 408 817 q 345 834 361 817 q 329 875 329 851 q 345 915 329 899 q 385 932 361 932 m 281 667 q 403 644 353 667 q 486 583 454 621 q 532 497 518 546 q 546 397 546 449 l 546 42 q 530 12 546 24 q 489 0 514 0 q 451 12 465 0 q 436 42 436 24 l 436 97 q 349 22 400 56 q 226 -11 297 -11 q 153 0 188 -11 q 94 34 119 11 q 53 92 68 57 q 39 174 39 126 q 63 269 39 232 q 129 328 86 306 q 232 358 172 350 q 364 367 292 367 l 431 367 l 431 396 q 422 457 431 426 q 396 513 414 488 q 349 553 378 538 q 278 568 319 568 q 217 562 242 568 q 175 548 192 556 q 147 534 158 540 q 126 528 136 528 q 94 547 106 528 q 83 586 83 567 q 101 617 83 603 q 148 643 119 632 q 211 660 176 654 q 281 667 246 667 m 431 296 l 382 296 q 297 292 338 296 q 224 278 256 289 q 174 245 193 267 q 156 186 156 224 q 186 107 156 132 q 263 82 217 82 q 322 95 292 82 q 376 129 353 108 q 415 175 400 150 q 431 224 431 200 l 431 296 z "},"æ":{"ha":1018,"x_min":39,"x_max":974,"o":"m 706 667 q 801 651 753 667 q 887 601 849 635 q 949 517 925 568 q 974 399 974 467 q 966 344 974 364 q 943 313 958 324 q 904 299 928 303 q 850 296 881 296 l 547 296 l 547 254 q 602 131 547 176 q 742 86 657 86 q 806 94 779 86 q 852 113 833 103 q 885 132 871 124 q 911 140 899 140 q 944 122 931 140 q 957 88 957 104 q 938 53 957 71 q 887 22 918 36 q 814 -2 856 7 q 729 -11 772 -11 q 583 25 650 -11 q 479 128 517 61 q 369 23 435 57 q 240 -11 303 -11 q 164 0 200 -11 q 100 34 128 11 q 56 91 72 57 q 39 172 39 125 q 63 268 39 231 q 128 328 86 306 q 230 358 171 350 q 361 367 289 367 l 428 367 l 428 397 q 420 458 428 428 q 394 514 413 489 q 347 554 376 539 q 274 569 317 569 q 215 563 239 569 q 173 549 190 557 q 144 534 156 540 q 124 528 133 528 q 92 548 104 528 q 81 588 81 568 q 99 617 81 603 q 145 643 117 632 q 209 660 174 654 q 279 667 244 667 q 414 632 363 667 q 493 543 465 597 q 583 632 528 597 q 706 667 638 667 m 801 374 q 853 383 842 374 q 864 417 864 392 q 852 477 864 449 q 819 528 840 506 q 768 563 797 550 q 704 575 739 575 q 642 563 671 575 q 593 531 614 551 q 560 483 572 511 q 547 424 547 456 l 547 374 l 801 374 m 428 296 l 381 296 q 294 292 335 296 q 223 278 254 289 q 174 244 192 267 q 156 183 156 221 q 186 107 156 132 q 261 82 217 82 q 324 95 294 82 q 377 129 354 108 q 414 175 400 150 q 428 224 428 200 l 428 296 z "},"ǽ":{"ha":1018,"x_min":39,"x_max":974,"o":"m 457 817 q 449 813 453 814 q 442 811 446 811 q 412 826 424 811 q 400 858 400 842 q 418 889 400 879 l 581 975 q 594 978 589 978 q 623 963 613 978 q 633 931 633 947 q 629 912 633 921 q 614 897 625 903 l 457 817 m 706 667 q 801 651 753 667 q 887 601 849 635 q 949 517 925 568 q 974 399 974 467 q 966 344 974 364 q 943 313 958 324 q 904 299 928 303 q 850 296 881 296 l 547 296 l 547 254 q 602 131 547 176 q 742 86 657 86 q 806 94 779 86 q 852 113 833 103 q 885 132 871 124 q 911 140 899 140 q 944 122 931 140 q 957 88 957 104 q 938 53 957 71 q 887 22 918 36 q 814 -2 856 7 q 729 -11 772 -11 q 583 25 650 -11 q 479 128 517 61 q 369 23 435 57 q 240 -11 303 -11 q 164 0 200 -11 q 100 34 128 11 q 56 91 72 57 q 39 172 39 125 q 63 268 39 231 q 128 328 86 306 q 230 358 171 350 q 361 367 289 367 l 428 367 l 428 397 q 420 458 428 428 q 394 514 413 489 q 347 554 376 539 q 274 569 317 569 q 215 563 239 569 q 173 549 190 557 q 144 534 156 540 q 124 528 133 528 q 92 548 104 528 q 81 588 81 568 q 99 617 81 603 q 145 643 117 632 q 209 660 174 654 q 279 667 244 667 q 414 632 363 667 q 493 543 465 597 q 583 632 528 597 q 706 667 638 667 m 801 374 q 853 383 842 374 q 864 417 864 392 q 852 477 864 449 q 819 528 840 506 q 768 563 797 550 q 704 575 739 575 q 642 563 671 575 q 593 531 614 551 q 560 483 572 511 q 547 424 547 456 l 547 374 l 801 374 m 428 296 l 381 296 q 294 292 335 296 q 223 278 254 289 q 174 244 192 267 q 156 183 156 221 q 186 107 156 132 q 261 82 217 82 q 324 95 294 82 q 377 129 354 108 q 414 175 400 150 q 428 224 428 200 l 428 296 z "},"à":{"ha":622,"x_min":39,"x_max":546,"o":"m 281 667 q 403 644 353 667 q 486 583 454 621 q 532 497 518 546 q 546 397 546 449 l 546 42 q 530 12 546 24 q 489 0 514 0 q 451 12 465 0 q 436 42 436 24 l 436 97 q 349 22 400 56 q 226 -11 297 -11 q 153 0 188 -11 q 94 34 119 11 q 53 92 68 57 q 39 174 39 126 q 63 269 39 232 q 129 328 86 306 q 232 358 172 350 q 364 367 292 367 l 431 367 l 431 396 q 422 457 431 426 q 396 513 414 488 q 349 553 378 538 q 278 568 319 568 q 217 562 242 568 q 175 548 192 556 q 147 534 158 540 q 126 528 136 528 q 94 547 106 528 q 83 586 83 567 q 101 617 83 603 q 148 643 119 632 q 211 660 176 654 q 281 667 246 667 m 431 296 l 382 296 q 297 292 338 296 q 224 278 256 289 q 174 245 193 267 q 156 186 156 224 q 186 107 156 132 q 263 82 217 82 q 322 95 292 82 q 376 129 353 108 q 415 175 400 150 q 431 224 431 200 l 431 296 m 197 897 q 182 912 186 903 q 178 931 178 921 q 189 963 178 947 q 217 978 200 978 q 231 975 222 978 l 393 889 q 411 858 411 879 q 399 826 411 842 q 369 811 388 811 q 354 817 365 811 l 197 897 z "},"ā":{"ha":622,"x_min":39,"x_max":546,"o":"m 281 667 q 403 644 353 667 q 486 583 454 621 q 532 497 518 546 q 546 397 546 449 l 546 42 q 530 12 546 24 q 489 0 514 0 q 451 12 465 0 q 436 42 436 24 l 436 97 q 349 22 400 56 q 226 -11 297 -11 q 153 0 188 -11 q 94 34 119 11 q 53 92 68 57 q 39 174 39 126 q 63 269 39 232 q 129 328 86 306 q 232 358 172 350 q 364 367 292 367 l 431 367 l 431 396 q 422 457 431 426 q 396 513 414 488 q 349 553 378 538 q 278 568 319 568 q 217 562 242 568 q 175 548 192 556 q 147 534 158 540 q 126 528 136 528 q 94 547 106 528 q 83 586 83 567 q 101 617 83 603 q 148 643 119 632 q 211 660 176 654 q 281 667 246 667 m 431 296 l 382 296 q 297 292 338 296 q 224 278 256 289 q 174 245 193 267 q 156 186 156 224 q 186 107 156 132 q 263 82 217 82 q 322 95 292 82 q 376 129 353 108 q 415 175 400 150 q 431 224 431 200 l 431 296 m 117 914 q 128 944 117 932 q 157 957 139 957 l 451 957 q 480 944 467 957 q 493 914 493 932 q 480 883 493 894 q 451 872 467 872 l 157 872 q 128 883 139 872 q 117 914 117 894 z "},"&":{"ha":858,"x_min":42,"x_max":838,"o":"m 368 -14 q 231 10 292 -14 q 128 76 171 35 q 64 171 86 117 q 42 285 42 225 q 57 379 42 336 q 99 458 72 422 q 158 519 125 493 q 226 563 190 546 q 186 613 206 588 q 151 667 167 639 q 127 728 136 696 q 118 799 118 761 q 139 901 118 856 q 195 976 160 946 q 278 1023 231 1007 q 381 1039 326 1039 q 483 1023 439 1039 q 558 985 528 1007 q 604 938 589 963 q 619 897 619 914 q 603 859 619 875 q 565 843 588 843 q 535 858 549 843 q 504 892 522 874 q 458 927 486 911 q 383 943 429 943 q 274 903 315 943 q 233 792 233 863 q 245 726 233 757 q 276 665 257 694 q 319 609 296 636 q 367 557 343 582 l 632 268 q 654 332 646 300 q 667 394 663 364 q 673 453 671 425 q 675 503 675 481 q 687 535 676 525 q 726 544 697 544 q 766 530 756 544 q 776 486 776 515 q 774 431 776 464 q 763 358 771 397 q 740 276 754 318 q 704 193 726 233 l 819 69 q 838 38 838 51 q 820 3 838 18 q 783 -11 803 -11 q 753 4 768 -11 l 647 115 q 533 22 601 57 q 368 -14 464 -14 m 383 90 q 501 117 454 90 q 576 189 547 144 l 292 492 q 247 460 269 478 q 204 419 224 443 q 172 365 185 396 q 160 294 160 335 q 174 216 160 253 q 217 151 189 179 q 288 107 246 124 q 383 90 329 90 z "},"ą":{"ha":622,"x_min":39,"x_max":546,"o":"m 501 -226 q 522 -235 515 -226 q 529 -257 529 -244 q 522 -276 529 -269 q 493 -283 515 -283 q 392 -257 433 -283 q 351 -174 351 -231 q 378 -73 351 -121 q 449 14 404 -25 q 436 42 436 24 l 436 97 q 349 22 400 56 q 226 -11 297 -11 q 153 0 188 -11 q 94 34 119 11 q 53 92 68 57 q 39 174 39 126 q 63 269 39 232 q 129 328 86 306 q 232 358 172 350 q 364 367 292 367 l 431 367 l 431 396 q 422 457 431 426 q 396 513 414 488 q 349 553 378 538 q 278 568 319 568 q 217 562 242 568 q 175 548 192 556 q 147 534 158 540 q 126 528 136 528 q 94 547 106 528 q 83 586 83 567 q 101 617 83 603 q 148 643 119 632 q 211 660 176 654 q 281 667 246 667 q 403 644 353 667 q 486 583 454 621 q 532 497 518 546 q 546 397 546 449 l 546 42 q 517 6 546 17 q 445 -73 474 -31 q 417 -164 417 -115 q 501 -226 417 -226 m 431 296 l 382 296 q 297 292 338 296 q 224 278 256 289 q 174 245 193 267 q 156 186 156 224 q 186 107 156 132 q 263 82 217 82 q 322 95 292 82 q 376 129 353 108 q 415 175 400 150 q 431 224 431 200 l 431 296 z "},"≈":{"ha":617,"x_min":88,"x_max":531,"o":"m 225 504 q 188 498 203 504 q 160 484 172 492 q 138 470 147 476 q 119 464 129 464 q 95 480 103 464 q 88 507 88 496 q 101 547 88 531 q 133 574 114 564 q 174 589 153 585 q 210 593 194 593 q 260 586 238 593 q 304 570 283 579 q 347 554 325 561 q 396 547 368 547 q 435 553 419 547 q 461 567 450 560 q 481 580 472 574 q 499 586 489 586 q 523 570 515 586 q 531 544 531 554 q 517 503 531 519 q 486 476 504 486 q 448 463 468 467 q 414 458 428 458 q 362 465 385 458 q 317 481 339 472 q 274 497 296 490 q 225 504 253 504 m 225 221 q 188 215 203 221 q 160 201 172 208 q 138 187 147 193 q 119 181 129 181 q 95 197 103 181 q 88 224 88 213 q 101 264 88 247 q 133 291 114 281 q 174 306 153 301 q 210 310 194 310 q 260 303 238 310 q 304 287 283 296 q 347 271 325 278 q 396 264 368 264 q 435 270 419 264 q 461 283 450 276 q 481 297 472 290 q 499 303 489 303 q 523 287 515 303 q 531 260 531 271 q 517 218 531 235 q 486 192 504 201 q 448 179 468 183 q 414 175 428 175 q 362 182 385 175 q 317 198 339 189 q 274 214 296 207 q 225 221 253 221 z "},"å":{"ha":622,"x_min":39,"x_max":546,"o":"m 281 667 q 403 644 353 667 q 486 583 454 621 q 532 497 518 546 q 546 397 546 449 l 546 42 q 530 12 546 24 q 489 0 514 0 q 451 12 465 0 q 436 42 436 24 l 436 97 q 349 22 400 56 q 226 -11 297 -11 q 153 0 188 -11 q 94 34 119 11 q 53 92 68 57 q 39 174 39 126 q 63 269 39 232 q 129 328 86 306 q 232 358 172 350 q 364 367 292 367 l 431 367 l 431 396 q 422 457 431 426 q 396 513 414 488 q 349 553 378 538 q 278 568 319 568 q 217 562 242 568 q 175 548 192 556 q 147 534 158 540 q 126 528 136 528 q 94 547 106 528 q 83 586 83 567 q 101 617 83 603 q 148 643 119 632 q 211 660 176 654 q 281 667 246 667 m 431 296 l 382 296 q 297 292 338 296 q 224 278 256 289 q 174 245 193 267 q 156 186 156 224 q 186 107 156 132 q 263 82 217 82 q 322 95 292 82 q 376 129 353 108 q 415 175 400 150 q 431 224 431 200 l 431 296 m 296 1067 q 344 1056 321 1067 q 386 1026 368 1044 q 415 985 404 1008 q 426 935 426 961 q 415 884 426 908 q 386 841 404 860 q 344 811 368 822 q 296 800 321 800 q 244 811 268 800 q 203 841 221 822 q 176 884 186 860 q 165 935 165 908 q 175 984 165 960 q 203 1026 185 1008 q 244 1056 221 1044 q 296 1067 268 1067 m 372 935 q 350 987 372 963 q 296 1011 328 1011 q 241 987 264 1011 q 218 935 218 963 q 241 878 218 904 q 296 853 264 853 q 350 878 328 853 q 372 935 372 904 z "},"↓":{"ha":1071,"x_min":207,"x_max":864,"o":"m 207 226 q 224 264 207 247 q 263 281 242 281 q 289 269 279 281 l 486 72 l 486 732 q 500 761 486 750 q 535 772 514 772 q 572 761 558 772 q 585 732 585 750 l 585 72 l 782 269 q 808 281 793 281 q 847 263 829 281 q 864 226 864 246 q 853 199 864 213 l 568 -86 q 535 -104 550 -104 q 503 -86 521 -104 l 218 199 q 207 226 207 210 z "},"←":{"ha":1071,"x_min":97,"x_max":974,"o":"m 428 663 q 465 645 447 663 q 482 607 482 628 q 471 581 482 592 l 274 383 l 933 383 q 963 369 951 383 q 974 333 974 354 q 963 298 974 311 q 933 285 951 285 l 274 285 l 471 88 q 482 61 482 78 q 465 23 482 40 q 428 6 449 6 q 400 17 411 6 l 115 301 q 97 333 97 319 q 115 367 97 350 l 400 651 q 428 663 414 663 z "},"→":{"ha":1071,"x_min":97,"x_max":974,"o":"m 643 663 q 671 651 657 663 l 956 367 q 974 333 974 349 q 956 301 974 319 l 671 17 q 643 6 660 6 q 606 23 622 6 q 589 61 589 40 q 600 88 589 78 l 797 285 l 138 285 q 108 298 119 285 q 97 333 97 311 q 108 369 97 354 q 138 383 119 383 l 797 383 l 600 581 q 589 607 589 592 q 606 645 589 628 q 643 663 624 663 z "},"↑":{"ha":1071,"x_min":207,"x_max":864,"o":"m 207 442 q 218 469 207 458 l 503 754 q 535 772 521 772 q 568 754 550 772 l 853 469 q 864 442 864 456 q 847 405 864 422 q 808 388 829 388 q 782 399 793 388 l 585 596 l 585 -64 q 572 -93 585 -82 q 535 -104 558 -104 q 500 -93 514 -104 q 486 -64 486 -82 l 486 596 l 289 399 q 263 388 279 388 q 224 404 242 388 q 207 442 207 421 z "},"^":{"ha":379,"x_min":0,"x_max":379,"o":"m 44 821 q 32 817 38 817 q 10 829 19 817 q 0 857 0 842 q 5 878 0 868 q 21 893 10 888 l 165 971 q 189 978 179 978 q 213 971 201 978 l 357 894 q 379 856 379 882 q 370 828 379 840 q 347 817 361 817 q 341 818 344 817 q 333 821 338 819 l 189 899 l 44 821 z "},"~":{"ha":558,"x_min":57,"x_max":500,"o":"m 194 339 q 156 333 172 339 q 128 319 140 326 q 108 305 117 311 q 89 299 99 299 q 64 313 71 299 q 57 339 57 328 q 70 378 57 361 q 102 404 83 394 q 142 419 121 414 q 178 424 163 424 q 228 417 206 424 q 272 401 251 410 q 315 385 293 392 q 365 378 338 378 q 403 383 388 378 q 429 397 418 389 q 449 410 440 404 q 467 415 457 415 q 492 401 485 415 q 500 376 500 386 q 487 335 500 351 q 455 310 474 319 q 417 297 436 301 q 383 293 397 293 q 330 300 353 293 q 286 316 307 307 q 244 332 265 325 q 194 339 222 339 z "},"*":{"ha":608,"x_min":39,"x_max":569,"o":"m 482 578 q 489 554 489 568 q 473 521 489 533 q 439 508 457 508 q 423 511 432 508 q 407 525 414 514 l 304 676 l 201 524 q 188 511 196 514 q 172 508 181 508 q 139 520 157 508 q 121 551 121 532 q 131 579 121 568 l 238 722 l 68 772 q 46 788 53 776 q 39 814 39 799 q 52 847 39 832 q 85 861 65 861 q 97 860 92 861 l 267 801 l 260 975 q 274 1005 261 994 q 304 1015 288 1015 q 335 1005 322 1015 q 350 975 349 994 l 343 799 l 513 860 q 526 861 517 861 q 557 845 544 861 q 569 811 569 829 q 540 772 569 781 l 372 726 l 482 578 z "},"@":{"ha":1003,"x_min":68,"x_max":953,"o":"m 324 511 q 340 540 324 526 q 383 564 357 554 q 441 579 408 574 q 506 585 474 585 q 654 539 597 585 q 711 406 711 493 l 711 174 q 735 123 715 140 q 781 106 756 106 q 827 126 810 106 q 854 178 844 147 q 867 246 864 210 q 871 314 871 282 q 783 599 871 497 q 514 701 696 701 q 340 668 410 701 q 228 579 269 635 q 168 451 186 524 q 150 299 150 378 q 166 157 150 225 q 219 36 182 89 q 318 -48 257 -17 q 471 -79 379 -79 q 547 -73 515 -79 q 601 -58 579 -67 q 638 -44 624 -50 q 664 -37 653 -37 q 688 -51 679 -37 q 697 -74 697 -64 q 674 -105 697 -90 q 616 -131 651 -119 q 538 -148 581 -142 q 458 -154 496 -154 q 312 -127 382 -154 q 188 -45 242 -100 q 101 95 133 10 q 68 297 68 181 q 94 485 68 397 q 174 639 119 574 q 314 742 229 704 q 515 779 399 779 q 840 662 726 779 q 953 328 953 544 q 943 218 953 271 q 912 125 933 165 q 856 60 890 85 q 774 36 822 36 q 682 64 719 36 q 636 129 644 92 q 563 69 600 90 q 465 47 525 47 q 399 56 431 47 q 343 82 367 64 q 305 130 319 100 q 290 201 290 160 q 310 280 290 249 q 365 330 329 311 q 452 356 401 349 q 565 363 503 363 l 621 363 l 621 388 q 590 472 621 444 q 490 499 558 499 q 435 493 457 499 q 399 481 414 488 q 376 469 385 475 q 358 464 367 464 q 333 481 343 464 q 324 511 324 499 m 624 300 l 574 300 q 498 296 532 300 q 440 281 464 292 q 401 251 415 271 q 388 201 388 232 q 414 138 388 157 q 481 118 440 118 q 539 128 513 118 q 584 156 565 139 q 613 192 603 172 q 624 232 624 213 l 624 300 z "},"ã":{"ha":622,"x_min":39,"x_max":546,"o":"m 281 667 q 403 644 353 667 q 486 583 454 621 q 532 497 518 546 q 546 397 546 449 l 546 42 q 530 12 546 24 q 489 0 514 0 q 451 12 465 0 q 436 42 436 24 l 436 97 q 349 22 400 56 q 226 -11 297 -11 q 153 0 188 -11 q 94 34 119 11 q 53 92 68 57 q 39 174 39 126 q 63 269 39 232 q 129 328 86 306 q 232 358 172 350 q 364 367 292 367 l 431 367 l 431 396 q 422 457 431 426 q 396 513 414 488 q 349 553 378 538 q 278 568 319 568 q 217 562 242 568 q 175 548 192 556 q 147 534 158 540 q 126 528 136 528 q 94 547 106 528 q 83 586 83 567 q 101 617 83 603 q 148 643 119 632 q 211 660 176 654 q 281 667 246 667 m 431 296 l 382 296 q 297 292 338 296 q 224 278 256 289 q 174 245 193 267 q 156 186 156 224 q 186 107 156 132 q 263 82 217 82 q 322 95 292 82 q 376 129 353 108 q 415 175 400 150 q 431 224 431 200 l 431 296 m 211 883 q 173 877 189 883 q 145 863 157 871 q 124 849 133 856 q 106 843 115 843 q 81 858 88 843 q 74 883 74 872 q 87 922 74 906 q 119 949 100 939 q 158 963 138 958 q 194 968 179 968 q 245 961 222 968 q 289 945 268 954 q 332 929 310 936 q 382 922 354 922 q 419 928 404 922 q 446 941 435 933 q 465 954 457 949 q 483 960 474 960 q 509 945 501 960 q 517 921 517 931 q 503 880 517 896 q 472 855 490 864 q 433 842 453 846 q 400 838 414 838 q 347 844 369 838 q 303 860 324 851 q 260 876 282 869 q 211 883 239 883 z "},"b":{"ha":686,"x_min":83,"x_max":629,"o":"m 140 1056 q 181 1044 164 1056 q 199 1015 199 1033 l 199 561 q 268 634 222 601 q 381 667 314 667 q 477 646 432 667 q 556 588 522 625 q 610 503 590 551 q 629 400 629 454 l 629 258 q 609 157 629 206 q 556 71 589 108 q 478 11 522 33 q 385 -11 433 -11 q 267 22 318 -11 q 193 97 215 54 l 193 42 q 178 13 193 26 q 140 0 163 0 q 99 13 115 0 q 83 42 83 26 l 83 1015 q 99 1044 83 1033 q 140 1056 115 1056 m 514 400 q 501 460 514 431 q 467 512 489 489 q 417 549 446 535 q 356 563 389 563 q 298 551 326 563 q 248 519 269 540 q 213 468 226 499 q 199 400 199 438 l 199 221 q 210 185 199 207 q 244 143 222 164 q 294 108 265 122 q 357 93 324 93 q 417 107 389 93 q 467 144 446 121 q 501 197 489 168 q 514 258 514 226 l 514 400 z "},"\\":{"ha":488,"x_min":29,"x_max":458,"o":"m 32 989 q 29 1004 29 994 q 43 1035 29 1022 q 76 1047 57 1047 q 98 1042 88 1047 q 113 1024 108 1036 l 456 54 q 458 42 458 50 q 445 13 458 25 q 413 0 432 0 q 389 7 400 0 q 374 28 378 14 l 32 989 z "},"|":{"ha":296,"x_min":90,"x_max":207,"o":"m 149 1067 q 190 1056 172 1067 q 207 1026 207 1044 l 207 11 q 190 -17 207 -4 q 149 -29 172 -29 q 107 -17 124 -29 q 90 11 90 -4 l 90 1026 q 107 1056 90 1044 q 149 1067 124 1067 z "},"{":{"ha":451,"x_min":39,"x_max":426,"o":"m 39 535 q 52 568 39 560 q 81 580 65 576 q 109 589 96 583 q 122 613 122 594 q 118 652 122 622 q 109 717 114 682 q 100 785 104 753 q 96 835 96 818 q 118 922 96 881 q 177 997 140 964 q 263 1048 214 1029 q 364 1067 311 1067 q 413 1051 399 1067 q 426 1015 426 1035 q 416 981 426 996 q 386 965 406 965 q 323 955 354 965 q 267 925 292 944 q 228 879 243 906 q 213 821 213 853 q 217 774 213 806 q 226 707 221 742 q 235 642 231 672 q 239 601 239 613 q 220 556 239 575 q 189 533 201 536 q 220 513 201 531 q 239 467 239 494 q 235 417 239 454 q 226 335 231 379 q 217 253 221 292 q 213 197 213 214 q 232 137 213 161 q 278 99 251 113 q 335 79 306 85 q 386 74 365 74 q 418 56 410 74 q 426 24 426 39 q 409 -15 426 -1 q 363 -28 392 -28 q 262 -12 310 -28 q 177 32 214 4 q 118 99 140 60 q 96 188 96 139 q 100 246 96 206 q 109 329 104 286 q 118 409 114 372 q 122 457 122 446 q 109 480 122 475 q 81 489 96 485 q 52 501 65 493 q 39 535 39 510 z "},"}":{"ha":451,"x_min":25,"x_max":413,"o":"m 413 535 q 399 501 413 510 q 371 489 386 493 q 342 480 356 485 q 329 457 329 475 q 333 409 329 446 q 342 329 338 372 q 351 246 347 286 q 356 188 356 206 q 333 99 356 139 q 274 32 311 60 q 190 -12 238 4 q 89 -28 142 -28 q 42 -15 60 -28 q 25 24 25 -1 q 33 56 25 39 q 65 74 42 74 q 116 79 86 74 q 173 99 146 85 q 219 137 200 113 q 239 197 239 161 q 235 253 239 214 q 226 335 231 292 q 217 417 221 379 q 213 467 213 454 q 231 513 213 494 q 263 533 249 531 q 231 556 250 536 q 213 601 213 575 q 217 642 213 613 q 226 707 221 672 q 235 774 231 742 q 239 821 239 806 q 224 879 239 853 q 184 925 208 906 q 128 955 160 944 q 65 965 97 965 q 35 981 46 965 q 25 1015 25 996 q 39 1051 25 1035 q 88 1067 53 1067 q 189 1048 140 1067 q 274 997 238 1029 q 333 922 311 964 q 356 835 356 881 q 351 785 356 818 q 342 717 347 753 q 333 652 338 682 q 329 613 329 622 q 342 589 329 594 q 371 580 356 583 q 399 568 386 576 q 413 535 413 560 z "},"[":{"ha":436,"x_min":90,"x_max":411,"o":"m 207 75 l 371 75 q 401 60 390 75 q 411 22 411 44 q 401 -13 411 3 q 371 -29 390 -29 l 143 -29 q 107 -19 124 -29 q 90 11 90 -8 l 90 1026 q 107 1056 90 1046 q 143 1067 124 1067 l 371 1067 q 401 1051 390 1067 q 411 1015 411 1035 q 401 978 411 993 q 371 963 390 963 l 207 963 l 207 75 z "},"]":{"ha":436,"x_min":25,"x_max":346,"o":"m 229 963 l 65 963 q 35 978 46 963 q 25 1015 25 993 q 35 1051 25 1035 q 65 1067 46 1067 l 293 1067 q 329 1056 313 1067 q 346 1026 346 1046 l 346 11 q 329 -19 346 -8 q 293 -29 313 -29 l 65 -29 q 35 -13 46 -29 q 25 22 25 3 q 35 60 25 44 q 65 75 46 75 l 229 75 l 229 963 z "},"˘":{"ha":336,"x_min":0,"x_max":336,"o":"m 336 994 q 322 931 336 961 q 285 877 308 900 q 231 840 261 854 q 168 826 201 826 q 105 840 135 826 q 51 877 75 854 q 14 931 28 900 q 0 994 0 961 l 71 994 q 101 916 71 947 q 168 885 131 885 q 235 916 206 885 q 265 994 265 947 l 336 994 z "},"¦":{"ha":296,"x_min":90,"x_max":206,"o":"m 147 1067 q 188 1056 171 1067 q 206 1026 206 1044 l 206 657 q 188 629 206 642 q 147 617 171 617 q 106 629 122 617 q 90 657 90 642 l 90 1026 q 106 1056 90 1044 q 147 1067 122 1067 m 147 421 q 188 410 171 421 q 206 381 206 399 l 206 11 q 188 -17 206 -4 q 147 -29 171 -29 q 106 -17 122 -29 q 90 11 90 -4 l 90 381 q 106 410 90 399 q 147 421 122 421 z "},"•":{"ha":442,"x_min":63,"x_max":379,"o":"m 222 569 q 281 557 253 569 q 332 524 310 544 q 367 475 354 503 q 379 417 379 447 q 367 358 379 386 q 332 309 354 331 q 281 275 310 288 q 222 263 253 263 q 161 275 190 263 q 110 309 132 288 q 75 358 88 331 q 63 417 63 386 q 75 475 63 447 q 110 524 88 503 q 161 557 132 544 q 222 569 190 569 z "},"c":{"ha":579,"x_min":58,"x_max":547,"o":"m 336 -11 q 212 10 264 -11 q 126 67 160 31 q 75 152 92 103 q 58 258 58 201 l 58 397 q 75 502 58 453 q 126 588 92 551 q 212 646 160 625 q 335 667 264 667 q 418 658 381 667 q 483 635 456 649 q 524 603 510 621 q 539 571 539 586 q 525 533 539 553 q 490 514 511 514 q 469 522 479 514 q 442 538 458 529 q 403 555 426 547 q 343 563 379 563 q 215 519 257 563 q 174 397 174 475 l 174 258 q 215 137 174 181 q 344 93 257 93 q 406 101 382 93 q 447 118 431 108 q 474 135 463 128 q 496 143 485 143 q 533 124 519 143 q 547 88 547 106 q 532 53 547 71 q 489 22 517 36 q 422 -2 461 7 q 336 -11 383 -11 z "},"ć":{"ha":579,"x_min":58,"x_max":547,"o":"m 256 817 q 248 813 251 814 q 240 811 244 811 q 210 826 222 811 q 199 858 199 842 q 217 889 199 879 l 379 975 q 393 978 388 978 q 422 963 411 978 q 432 931 432 947 q 428 912 432 921 q 413 897 424 903 l 256 817 m 336 -11 q 212 10 264 -11 q 126 67 160 31 q 75 152 92 103 q 58 258 58 201 l 58 397 q 75 502 58 453 q 126 588 92 551 q 212 646 160 625 q 335 667 264 667 q 418 658 381 667 q 483 635 456 649 q 524 603 510 621 q 539 571 539 586 q 525 533 539 553 q 490 514 511 514 q 469 522 479 514 q 442 538 458 529 q 403 555 426 547 q 343 563 379 563 q 215 519 257 563 q 174 397 174 475 l 174 258 q 215 137 174 181 q 344 93 257 93 q 406 101 382 93 q 447 118 431 108 q 474 135 463 128 q 496 143 485 143 q 533 124 519 143 q 547 88 547 106 q 532 53 547 71 q 489 22 517 36 q 422 -2 461 7 q 336 -11 383 -11 z "},"ˇ":{"ha":396,"x_min":10,"x_max":386,"o":"m 197 890 l 338 1007 q 347 1014 342 1013 q 357 1015 353 1015 q 378 1003 369 1015 q 386 978 386 992 q 365 940 386 954 l 225 825 q 197 813 210 813 q 171 825 183 813 l 29 940 q 10 978 10 954 q 17 1003 10 992 q 39 1015 25 1015 q 58 1007 50 1015 l 197 890 z "},"č":{"ha":579,"x_min":58,"x_max":547,"o":"m 304 890 l 444 1007 q 454 1014 449 1013 q 464 1015 460 1015 q 485 1003 476 1015 q 493 978 493 992 q 472 940 493 954 l 332 825 q 304 813 317 813 q 278 825 290 813 l 136 940 q 117 978 117 954 q 124 1003 117 992 q 146 1015 132 1015 q 165 1007 157 1015 l 304 890 m 336 -11 q 212 10 264 -11 q 126 67 160 31 q 75 152 92 103 q 58 258 58 201 l 58 397 q 75 502 58 453 q 126 588 92 551 q 212 646 160 625 q 335 667 264 667 q 418 658 381 667 q 483 635 456 649 q 524 603 510 621 q 539 571 539 586 q 525 533 539 553 q 490 514 511 514 q 469 522 479 514 q 442 538 458 529 q 403 555 426 547 q 343 563 379 563 q 215 519 257 563 q 174 397 174 475 l 174 258 q 215 137 174 181 q 344 93 257 93 q 406 101 382 93 q 447 118 431 108 q 474 135 463 128 q 496 143 485 143 q 533 124 519 143 q 547 88 547 106 q 532 53 547 71 q 489 22 517 36 q 422 -2 461 7 q 336 -11 383 -11 z "},"ç":{"ha":579,"x_min":58,"x_max":547,"o":"m 547 88 q 497 26 547 57 q 363 -10 446 -4 l 344 -81 q 447 -113 415 -83 q 478 -182 478 -143 q 470 -222 478 -201 q 447 -258 463 -242 q 408 -284 432 -274 q 349 -294 383 -294 q 314 -292 333 -294 q 278 -285 294 -290 q 249 -274 261 -281 q 238 -257 238 -267 q 244 -234 238 -250 q 263 -218 250 -218 q 290 -228 272 -218 q 340 -237 307 -237 q 395 -223 378 -237 q 413 -186 413 -208 q 391 -145 413 -158 q 331 -129 369 -132 l 271 -125 l 301 -10 q 193 17 239 -6 q 117 76 147 40 q 73 158 88 111 q 58 258 58 204 l 58 397 q 75 502 58 453 q 126 588 92 551 q 212 646 160 625 q 335 667 264 667 q 418 658 381 667 q 483 635 456 649 q 524 603 510 621 q 539 571 539 586 q 525 533 539 553 q 490 514 511 514 q 469 522 479 514 q 442 538 458 529 q 403 555 426 547 q 343 563 379 563 q 215 519 257 563 q 174 397 174 475 l 174 258 q 215 137 174 181 q 344 93 257 93 q 406 101 382 93 q 447 118 431 108 q 474 135 463 128 q 496 143 485 143 q 533 124 519 143 q 547 88 547 106 z "},"ĉ":{"ha":579,"x_min":58,"x_max":547,"o":"m 165 821 q 153 817 158 817 q 131 829 140 817 q 121 857 121 842 q 126 878 121 868 q 142 893 131 888 l 286 971 q 310 978 300 978 q 333 971 322 978 l 478 894 q 500 856 500 882 q 491 828 500 840 q 468 817 482 817 q 462 818 465 817 q 454 821 458 819 l 310 899 l 165 821 m 336 -11 q 212 10 264 -11 q 126 67 160 31 q 75 152 92 103 q 58 258 58 201 l 58 397 q 75 502 58 453 q 126 588 92 551 q 212 646 160 625 q 335 667 264 667 q 418 658 381 667 q 483 635 456 649 q 524 603 510 621 q 539 571 539 586 q 525 533 539 553 q 490 514 511 514 q 469 522 479 514 q 442 538 458 529 q 403 555 426 547 q 343 563 379 563 q 215 519 257 563 q 174 397 174 475 l 174 258 q 215 137 174 181 q 344 93 257 93 q 406 101 382 93 q 447 118 431 108 q 474 135 463 128 q 496 143 485 143 q 533 124 519 143 q 547 88 547 106 q 532 53 547 71 q 489 22 517 36 q 422 -2 461 7 q 336 -11 383 -11 z "},"ċ":{"ha":579,"x_min":58,"x_max":547,"o":"m 336 -11 q 212 10 264 -11 q 126 67 160 31 q 75 152 92 103 q 58 258 58 201 l 58 397 q 75 502 58 453 q 126 588 92 551 q 212 646 160 625 q 335 667 264 667 q 418 658 381 667 q 483 635 456 649 q 524 603 510 621 q 539 571 539 586 q 525 533 539 553 q 490 514 511 514 q 469 522 479 514 q 442 538 458 529 q 403 555 426 547 q 343 563 379 563 q 215 519 257 563 q 174 397 174 475 l 174 258 q 215 137 174 181 q 344 93 257 93 q 406 101 382 93 q 447 118 431 108 q 474 135 463 128 q 496 143 485 143 q 533 124 519 143 q 547 88 547 106 q 532 53 547 71 q 489 22 517 36 q 422 -2 461 7 q 336 -11 383 -11 m 308 932 q 348 915 332 932 q 364 875 364 899 q 348 834 364 851 q 308 817 332 817 q 268 834 285 817 q 251 875 251 851 q 268 915 251 899 q 308 932 285 932 z "},"¸":{"ha":240,"x_min":0,"x_max":240,"o":"m 107 -81 q 209 -113 178 -83 q 240 -182 240 -143 q 233 -222 240 -201 q 210 -258 225 -242 q 170 -284 194 -274 q 111 -294 146 -294 q 76 -292 96 -294 q 40 -285 57 -290 q 12 -274 24 -281 q 0 -257 0 -267 q 6 -234 0 -250 q 25 -218 13 -218 q 52 -228 35 -218 q 103 -237 69 -237 q 158 -223 140 -237 q 175 -186 175 -208 q 153 -145 175 -158 q 93 -129 132 -132 l 33 -125 l 69 13 l 132 13 l 107 -81 z "},"¢":{"ha":581,"x_min":44,"x_max":533,"o":"m 308 964 q 336 953 324 964 q 349 928 349 943 l 349 792 q 419 781 386 789 q 477 760 453 772 q 515 732 501 747 q 529 700 529 717 q 515 663 529 681 q 481 644 501 644 q 463 651 472 644 q 438 665 453 657 q 402 681 424 674 q 349 692 381 689 l 349 332 q 401 341 381 333 q 437 357 422 349 q 461 372 451 365 q 481 379 471 379 q 519 362 504 379 q 533 325 533 344 q 518 292 533 308 q 477 263 503 276 q 418 242 451 250 q 349 231 385 233 l 349 93 q 336 67 349 78 q 308 56 324 56 q 281 67 293 56 q 269 93 269 78 l 269 232 q 169 262 211 239 q 99 319 126 285 q 58 399 71 354 q 44 497 44 444 l 44 525 q 58 622 44 576 q 99 701 71 667 q 169 760 126 736 q 269 790 211 783 l 269 928 q 281 953 269 943 q 308 964 293 964 m 149 497 q 178 389 149 431 q 269 333 207 347 l 269 689 q 178 633 207 675 q 149 525 149 590 l 149 497 z "},"ˆ":{"ha":379,"x_min":0,"x_max":379,"o":"m 44 821 q 32 817 38 817 q 10 829 19 817 q 0 857 0 842 q 5 878 0 868 q 21 893 10 888 l 165 971 q 189 978 179 978 q 213 971 201 978 l 357 894 q 379 856 379 882 q 370 828 379 840 q 347 817 361 817 q 341 818 344 817 q 333 821 338 819 l 189 899 l 44 821 z "},":":{"ha":290,"x_min":74,"x_max":217,"o":"m 146 138 q 196 116 175 138 q 217 64 217 94 q 196 14 217 36 q 146 -8 175 -8 q 94 14 114 -8 q 74 64 74 36 q 94 116 74 94 q 146 138 114 138 m 146 586 q 196 565 175 586 q 217 513 217 543 q 196 463 217 485 q 146 440 175 440 q 94 463 114 440 q 74 513 74 485 q 94 565 74 543 q 146 586 114 586 z "},",":{"ha":244,"x_min":50,"x_max":193,"o":"m 121 138 q 171 117 149 138 q 193 64 193 97 q 192 53 193 60 q 185 28 190 46 q 167 -20 179 11 q 133 -104 156 -51 q 103 -124 125 -124 q 76 -115 89 -124 q 63 -90 63 -106 q 65 -75 63 -81 l 94 -3 q 63 24 75 6 q 50 64 50 42 q 70 116 50 94 q 121 138 90 138 z "},"":{"ha":314,"x_min":31,"x_max":265,"o":"m 89 -229 q 72 -233 81 -233 q 43 -219 56 -233 q 31 -186 31 -204 q 49 -156 31 -165 l 211 -69 q 225 -67 222 -67 q 254 -82 243 -67 q 265 -114 265 -97 q 246 -147 265 -136 l 89 -229 z "},"©":{"ha":986,"x_min":67,"x_max":919,"o":"m 67 497 q 107 699 67 614 q 210 841 147 785 q 349 924 272 897 q 497 951 425 951 q 646 924 571 951 q 782 840 721 896 q 881 700 843 785 q 919 503 919 615 q 879 301 919 386 q 776 159 839 215 q 638 76 714 103 q 489 49 561 49 q 340 76 415 49 q 204 160 265 104 q 105 300 143 215 q 67 497 67 385 m 851 503 q 826 656 851 586 q 755 776 801 725 q 643 855 708 826 q 497 883 578 883 q 351 856 418 883 q 237 776 285 828 q 162 654 189 725 q 135 497 135 583 q 160 344 135 414 q 231 224 185 275 q 343 145 278 174 q 489 117 408 117 q 635 144 568 117 q 749 224 701 172 q 824 346 797 275 q 851 503 851 417 m 574 633 q 571 658 574 643 q 560 685 568 672 q 538 706 553 697 q 497 715 522 715 q 439 691 460 715 q 418 615 418 667 l 418 404 q 439 327 418 351 q 497 303 460 303 q 537 312 522 303 q 559 334 551 321 q 569 363 567 347 q 574 390 572 378 q 585 411 575 406 q 611 417 596 417 q 640 408 631 417 q 649 375 649 399 q 606 274 649 313 q 493 235 564 235 q 435 244 463 235 q 388 273 408 253 q 355 326 367 293 q 343 404 343 358 l 343 615 q 355 694 343 661 q 388 747 367 726 q 436 776 408 767 q 494 785 464 785 q 607 747 565 785 q 649 647 649 708 q 640 615 649 624 q 611 607 631 607 q 584 613 594 607 q 574 633 574 619 z "},"¤":{"ha":653,"x_min":81,"x_max":575,"o":"m 328 906 q 410 891 371 906 q 481 850 449 876 l 517 886 q 535 893 526 893 q 557 883 547 893 q 567 861 567 874 q 560 843 567 853 l 521 807 q 575 656 575 742 q 560 575 575 614 q 521 504 546 536 l 560 467 q 567 450 567 457 q 557 428 567 439 q 535 418 547 418 q 518 425 524 418 l 481 461 q 410 418 449 433 q 328 403 371 403 q 243 419 283 403 q 171 464 203 436 l 129 425 q 113 418 122 418 q 90 428 100 418 q 81 450 81 438 q 88 467 81 460 l 131 508 q 94 578 107 540 q 82 656 82 615 q 94 733 82 696 q 131 801 107 771 l 94 838 q 86 856 86 846 q 97 878 86 868 q 118 888 107 888 q 136 881 126 888 l 171 846 q 243 890 203 874 q 328 906 283 906 m 499 656 q 485 720 499 689 q 449 776 472 751 q 395 815 426 800 q 328 829 364 829 q 261 815 292 829 q 208 776 231 800 q 172 720 185 751 q 158 656 158 689 q 172 590 158 622 q 208 533 185 558 q 261 494 231 508 q 328 479 292 479 q 394 494 363 479 q 449 533 425 508 q 485 590 472 558 q 499 656 499 622 z "},"d":{"ha":686,"x_min":57,"x_max":603,"o":"m 546 1056 q 587 1044 571 1056 q 603 1015 603 1033 l 603 42 q 587 13 603 26 q 546 0 571 0 q 508 13 524 0 q 493 42 493 26 l 493 97 q 419 22 471 54 q 301 -11 368 -11 q 208 11 253 -11 q 131 71 164 33 q 77 157 97 108 q 57 258 57 206 l 57 400 q 76 503 57 454 q 130 588 96 551 q 209 646 164 625 q 306 667 254 667 q 418 634 372 667 q 488 561 464 601 l 488 1015 q 505 1044 488 1033 q 546 1056 522 1056 m 172 258 q 185 197 172 226 q 219 144 197 168 q 269 107 240 121 q 329 93 297 93 q 392 108 363 93 q 442 143 421 122 q 476 185 464 164 q 488 221 488 207 l 488 400 q 474 468 488 438 q 438 519 460 499 q 388 551 417 540 q 331 563 360 563 q 269 549 297 563 q 219 512 240 535 q 185 460 197 489 q 172 400 172 431 l 172 258 z "},"†":{"ha":586,"x_min":31,"x_max":557,"o":"m 31 631 q 42 664 31 650 q 71 679 53 678 l 235 671 l 235 975 q 252 1003 235 990 q 293 1015 269 1015 q 333 1003 315 1015 q 351 975 351 990 l 351 671 l 515 679 q 544 664 531 678 q 557 631 557 650 q 544 597 557 610 q 515 583 531 585 l 351 592 l 351 17 q 333 -15 351 -1 q 293 -29 315 -29 q 252 -15 269 -29 q 235 17 235 -1 l 235 592 l 71 583 q 42 597 53 585 q 31 631 31 610 z "},"‡":{"ha":613,"x_min":43,"x_max":569,"o":"m 43 335 q 54 367 43 354 q 83 382 65 381 l 247 374 l 247 592 l 83 583 q 54 597 65 585 q 43 631 43 610 q 54 664 43 650 q 83 679 65 678 l 247 671 l 247 975 q 265 1003 247 990 q 306 1015 282 1015 q 346 1003 328 1015 q 364 975 364 990 l 364 671 l 528 679 q 556 664 543 678 q 569 631 569 650 q 556 597 569 610 q 528 583 543 585 l 364 592 l 364 374 l 528 382 q 556 367 543 381 q 569 335 569 354 q 556 301 569 314 q 528 288 543 289 l 364 296 l 364 17 q 346 -15 364 -1 q 306 -29 328 -29 q 265 -15 282 -29 q 247 17 247 -1 l 247 296 l 83 288 q 54 301 65 289 q 43 335 43 314 z "},"ď":{"ha":686,"x_min":57,"x_max":826,"o":"m 754 1029 q 805 1008 783 1029 q 826 957 826 986 q 813 903 826 942 q 764 788 799 865 q 751 774 760 778 q 736 769 743 769 q 708 778 722 769 q 694 803 694 788 q 697 817 694 808 l 726 889 q 694 915 707 897 q 682 957 682 933 q 703 1008 682 986 q 754 1029 724 1029 m 546 1056 q 587 1044 571 1056 q 603 1015 603 1033 l 603 42 q 587 13 603 26 q 546 0 571 0 q 508 13 524 0 q 493 42 493 26 l 493 97 q 419 22 471 54 q 301 -11 368 -11 q 208 11 253 -11 q 131 71 164 33 q 77 157 97 108 q 57 258 57 206 l 57 400 q 76 503 57 454 q 130 588 96 551 q 209 646 164 625 q 306 667 254 667 q 418 634 372 667 q 488 561 464 601 l 488 1015 q 505 1044 488 1033 q 546 1056 522 1056 m 172 258 q 185 197 172 226 q 219 144 197 168 q 269 107 240 121 q 329 93 297 93 q 392 108 363 93 q 442 143 421 122 q 476 185 464 164 q 488 221 488 207 l 488 400 q 474 468 488 438 q 438 519 460 499 q 388 551 417 540 q 331 563 360 563 q 269 549 297 563 q 219 512 240 535 q 185 460 197 489 q 172 400 172 431 l 172 258 z "},"đ":{"ha":686,"x_min":57,"x_max":699,"o":"m 546 1056 q 587 1044 571 1056 q 603 1015 603 1033 l 603 879 l 663 879 q 688 865 678 879 q 699 833 699 851 q 688 801 699 814 q 663 789 678 789 l 603 789 l 603 42 q 587 13 603 26 q 546 0 571 0 q 508 13 524 0 q 493 42 493 26 l 493 97 q 419 22 471 54 q 301 -11 368 -11 q 208 11 253 -11 q 131 71 164 33 q 77 157 97 108 q 57 258 57 206 l 57 400 q 76 503 57 454 q 130 588 96 551 q 209 646 164 625 q 306 667 254 667 q 418 634 372 667 q 488 561 464 601 l 488 789 l 339 789 q 313 802 322 789 q 303 833 303 815 q 313 865 303 851 q 339 879 322 879 l 488 879 l 488 1015 q 505 1044 488 1033 q 546 1056 522 1056 m 172 258 q 185 197 172 226 q 219 144 197 168 q 269 107 240 121 q 329 93 297 93 q 392 108 363 93 q 442 143 421 122 q 476 185 464 164 q 488 221 488 207 l 488 400 q 474 468 488 438 q 438 519 460 499 q 388 551 417 540 q 331 563 360 563 q 269 549 297 563 q 219 512 240 535 q 185 460 197 489 q 172 400 172 431 l 172 258 z "},"°":{"ha":574,"x_min":40,"x_max":533,"o":"m 286 1067 q 381 1047 336 1067 q 459 994 425 1028 q 513 914 493 960 q 533 817 533 868 q 513 722 533 767 q 459 641 493 676 q 381 585 425 606 q 286 564 336 564 q 192 585 236 564 q 114 640 147 606 q 60 721 81 675 q 40 817 40 767 q 60 912 40 867 q 113 992 79 957 q 191 1047 146 1026 q 286 1067 236 1067 m 457 817 q 444 881 457 850 q 408 937 431 913 q 353 976 385 961 q 286 990 322 990 q 219 976 250 990 q 166 937 189 961 q 130 881 143 913 q 117 817 117 850 q 130 751 117 783 q 166 694 143 719 q 219 655 189 669 q 286 640 250 640 q 352 655 321 640 q 407 694 383 669 q 444 751 431 719 q 457 817 457 783 z "},"¨":{"ha":293,"x_min":0,"x_max":293,"o":"m 57 932 q 97 915 81 932 q 113 875 113 899 q 97 834 113 851 q 57 817 81 817 q 17 834 33 817 q 0 875 0 851 q 17 915 0 899 q 57 932 33 932 m 238 932 q 277 915 261 932 q 293 875 293 899 q 277 834 293 851 q 238 817 261 817 q 198 834 214 817 q 182 875 182 851 q 198 915 182 899 q 238 932 214 932 z "},"÷":{"ha":624,"x_min":49,"x_max":575,"o":"m 49 332 q 60 367 49 353 q 90 381 71 381 l 532 381 q 562 367 549 381 q 575 332 575 353 q 562 298 575 311 q 532 285 549 285 l 90 285 q 60 298 71 285 q 49 332 49 311 m 307 174 q 357 153 335 174 q 379 103 379 133 q 357 53 379 75 q 307 32 335 32 q 256 53 278 32 q 233 103 233 75 q 256 153 233 133 q 307 174 278 174 m 307 633 q 357 613 335 633 q 379 563 379 592 q 357 513 379 533 q 307 492 335 492 q 256 513 278 492 q 233 563 233 533 q 256 613 233 592 q 307 633 278 633 z "},"$":{"ha":703,"x_min":49,"x_max":647,"o":"m 331 3 q 213 20 265 4 q 124 60 161 36 q 68 111 88 85 q 49 160 49 138 q 65 202 49 181 q 100 224 81 224 q 130 207 114 224 q 171 170 146 190 q 233 133 196 150 q 331 113 271 115 l 331 482 q 238 517 285 499 q 156 565 192 536 q 97 638 119 594 q 74 749 74 682 q 96 859 74 814 q 155 933 118 904 q 238 977 192 963 q 331 996 283 992 l 331 1038 q 341 1058 331 1049 q 367 1067 351 1067 q 392 1058 381 1067 q 403 1038 403 1049 l 403 999 q 479 990 440 997 q 550 972 518 983 q 602 944 582 961 q 622 907 622 928 q 609 867 622 890 q 572 843 596 843 q 548 850 561 843 q 515 867 535 857 q 467 884 494 876 q 403 894 440 892 l 403 578 q 491 540 447 561 q 569 487 535 519 q 626 406 604 454 q 647 286 647 357 q 579 90 647 158 q 403 7 511 22 l 403 -43 q 392 -63 403 -54 q 367 -72 381 -72 q 341 -63 351 -72 q 331 -43 331 -54 l 331 3 m 536 275 q 525 343 536 314 q 495 393 514 372 q 451 428 476 414 q 397 456 426 443 l 397 115 q 500 166 464 126 q 536 275 536 206 m 185 760 q 197 699 185 724 q 229 656 208 674 q 278 626 250 639 q 336 601 306 613 l 336 893 q 277 881 304 890 q 229 856 250 872 q 197 817 208 840 q 185 760 185 793 z "},"˙":{"ha":276,"x_min":89,"x_max":201,"o":"m 146 932 q 185 915 169 932 q 201 875 201 899 q 185 834 201 851 q 146 817 169 817 q 106 834 122 817 q 89 875 89 851 q 106 915 89 899 q 146 932 122 932 z "},"ı":{"ha":279,"x_min":82,"x_max":197,"o":"m 139 658 q 180 647 163 658 q 197 618 197 636 l 197 42 q 180 13 197 26 q 139 0 163 0 q 99 13 115 0 q 82 42 82 26 l 82 618 q 99 647 82 636 q 139 658 115 658 z "},"ȷ":{"ha":282,"x_min":-51,"x_max":199,"o":"m 140 658 q 181 647 164 658 q 199 618 199 636 l 199 -56 q 188 -162 199 -114 q 153 -244 176 -210 q 94 -299 131 -279 q 8 -318 58 -318 q -38 -303 -25 -318 q -51 -268 -51 -287 q -37 -231 -51 -244 q -4 -217 -24 -217 q 42 -205 25 -217 q 69 -172 60 -193 q 81 -120 78 -150 q 83 -56 83 -90 l 83 618 q 99 647 83 636 q 140 658 115 658 z "},"e":{"ha":646,"x_min":57,"x_max":600,"o":"m 333 667 q 435 648 386 667 q 520 595 483 629 q 578 514 557 561 q 600 411 600 467 q 590 347 600 369 q 562 312 579 324 q 522 298 544 300 q 476 296 500 296 l 172 296 l 172 254 q 227 131 172 176 q 369 86 282 86 q 435 94 408 86 q 480 113 461 103 q 512 132 499 124 q 538 140 525 140 q 572 122 558 140 q 585 88 585 103 q 569 57 585 74 q 526 25 554 40 q 456 -1 497 10 q 365 -11 415 -11 q 241 8 297 -11 q 144 63 185 28 q 80 148 103 99 q 57 258 57 197 l 57 404 q 78 505 57 457 q 138 589 100 553 q 226 646 175 625 q 333 667 276 667 m 429 374 q 478 382 465 374 q 490 418 490 390 q 478 477 490 449 q 446 527 467 506 q 396 562 425 549 q 332 575 367 575 q 270 563 299 575 q 219 531 242 551 q 185 483 197 511 q 172 424 172 456 l 172 374 l 429 374 z "},"é":{"ha":646,"x_min":57,"x_max":600,"o":"m 274 817 q 266 813 269 814 q 258 811 263 811 q 228 826 240 811 q 217 858 217 842 q 235 889 217 879 l 397 975 q 411 978 406 978 q 440 963 429 978 q 450 931 450 947 q 446 912 450 921 q 431 897 442 903 l 274 817 m 333 667 q 435 648 386 667 q 520 595 483 629 q 578 514 557 561 q 600 411 600 467 q 590 347 600 369 q 562 312 579 324 q 522 298 544 300 q 476 296 500 296 l 172 296 l 172 254 q 227 131 172 176 q 369 86 282 86 q 435 94 408 86 q 480 113 461 103 q 512 132 499 124 q 538 140 525 140 q 572 122 558 140 q 585 88 585 103 q 569 57 585 74 q 526 25 554 40 q 456 -1 497 10 q 365 -11 415 -11 q 241 8 297 -11 q 144 63 185 28 q 80 148 103 99 q 57 258 57 197 l 57 404 q 78 505 57 457 q 138 589 100 553 q 226 646 175 625 q 333 667 276 667 m 429 374 q 478 382 465 374 q 490 418 490 390 q 478 477 490 449 q 446 527 467 506 q 396 562 425 549 q 332 575 367 575 q 270 563 299 575 q 219 531 242 551 q 185 483 197 511 q 172 424 172 456 l 172 374 l 429 374 z "},"ĕ":{"ha":646,"x_min":57,"x_max":600,"o":"m 333 667 q 435 648 386 667 q 520 595 483 629 q 578 514 557 561 q 600 411 600 467 q 590 347 600 369 q 562 312 579 324 q 522 298 544 300 q 476 296 500 296 l 172 296 l 172 254 q 227 131 172 176 q 369 86 282 86 q 435 94 408 86 q 480 113 461 103 q 512 132 499 124 q 538 140 525 140 q 572 122 558 140 q 585 88 585 103 q 569 57 585 74 q 526 25 554 40 q 456 -1 497 10 q 365 -11 415 -11 q 241 8 297 -11 q 144 63 185 28 q 80 148 103 99 q 57 258 57 197 l 57 404 q 78 505 57 457 q 138 589 100 553 q 226 646 175 625 q 333 667 276 667 m 429 374 q 478 382 465 374 q 490 418 490 390 q 478 477 490 449 q 446 527 467 506 q 396 562 425 549 q 332 575 367 575 q 270 563 299 575 q 219 531 242 551 q 185 483 197 511 q 172 424 172 456 l 172 374 l 429 374 m 499 994 q 485 931 499 961 q 447 877 471 900 q 394 840 424 854 q 331 826 364 826 q 267 840 297 826 q 214 877 238 854 q 176 931 190 900 q 163 994 163 961 l 233 994 q 263 916 233 947 q 331 885 293 885 q 398 916 368 885 q 428 994 428 947 l 499 994 z "},"ě":{"ha":646,"x_min":57,"x_max":600,"o":"m 331 890 l 471 1007 q 481 1014 475 1013 q 490 1015 486 1015 q 511 1003 503 1015 q 519 978 519 992 q 499 940 519 954 l 358 825 q 331 813 343 813 q 304 825 317 813 l 163 940 q 143 978 143 954 q 151 1003 143 992 q 172 1015 158 1015 q 192 1007 183 1015 l 331 890 m 333 667 q 435 648 386 667 q 520 595 483 629 q 578 514 557 561 q 600 411 600 467 q 590 347 600 369 q 562 312 579 324 q 522 298 544 300 q 476 296 500 296 l 172 296 l 172 254 q 227 131 172 176 q 369 86 282 86 q 435 94 408 86 q 480 113 461 103 q 512 132 499 124 q 538 140 525 140 q 572 122 558 140 q 585 88 585 103 q 569 57 585 74 q 526 25 554 40 q 456 -1 497 10 q 365 -11 415 -11 q 241 8 297 -11 q 144 63 185 28 q 80 148 103 99 q 57 258 57 197 l 57 404 q 78 505 57 457 q 138 589 100 553 q 226 646 175 625 q 333 667 276 667 m 429 374 q 478 382 465 374 q 490 418 490 390 q 478 477 490 449 q 446 527 467 506 q 396 562 425 549 q 332 575 367 575 q 270 563 299 575 q 219 531 242 551 q 185 483 197 511 q 172 424 172 456 l 172 374 l 429 374 z "},"ê":{"ha":646,"x_min":57,"x_max":600,"o":"m 186 821 q 174 817 179 817 q 151 829 161 817 q 142 857 142 842 q 147 878 142 868 q 163 893 151 888 l 307 971 q 331 978 321 978 q 354 971 343 978 l 499 894 q 521 856 521 882 q 512 828 521 840 q 489 817 503 817 q 483 818 486 817 q 475 821 479 819 l 331 899 l 186 821 m 333 667 q 435 648 386 667 q 520 595 483 629 q 578 514 557 561 q 600 411 600 467 q 590 347 600 369 q 562 312 579 324 q 522 298 544 300 q 476 296 500 296 l 172 296 l 172 254 q 227 131 172 176 q 369 86 282 86 q 435 94 408 86 q 480 113 461 103 q 512 132 499 124 q 538 140 525 140 q 572 122 558 140 q 585 88 585 103 q 569 57 585 74 q 526 25 554 40 q 456 -1 497 10 q 365 -11 415 -11 q 241 8 297 -11 q 144 63 185 28 q 80 148 103 99 q 57 258 57 197 l 57 404 q 78 505 57 457 q 138 589 100 553 q 226 646 175 625 q 333 667 276 667 m 429 374 q 478 382 465 374 q 490 418 490 390 q 478 477 490 449 q 446 527 467 506 q 396 562 425 549 q 332 575 367 575 q 270 563 299 575 q 219 531 242 551 q 185 483 197 511 q 172 424 172 456 l 172 374 l 429 374 z "},"ë":{"ha":646,"x_min":57,"x_max":600,"o":"m 240 932 q 280 915 264 932 q 296 875 296 899 q 280 834 296 851 q 240 817 264 817 q 200 834 217 817 q 183 875 183 851 q 200 915 183 899 q 240 932 217 932 m 421 932 q 460 915 444 932 q 476 875 476 899 q 460 834 476 851 q 421 817 444 817 q 381 834 397 817 q 365 875 365 851 q 381 915 365 899 q 421 932 397 932 m 333 667 q 435 648 386 667 q 520 595 483 629 q 578 514 557 561 q 600 411 600 467 q 590 347 600 369 q 562 312 579 324 q 522 298 544 300 q 476 296 500 296 l 172 296 l 172 254 q 227 131 172 176 q 369 86 282 86 q 435 94 408 86 q 480 113 461 103 q 512 132 499 124 q 538 140 525 140 q 572 122 558 140 q 585 88 585 103 q 569 57 585 74 q 526 25 554 40 q 456 -1 497 10 q 365 -11 415 -11 q 241 8 297 -11 q 144 63 185 28 q 80 148 103 99 q 57 258 57 197 l 57 404 q 78 505 57 457 q 138 589 100 553 q 226 646 175 625 q 333 667 276 667 m 429 374 q 478 382 465 374 q 490 418 490 390 q 478 477 490 449 q 446 527 467 506 q 396 562 425 549 q 332 575 367 575 q 270 563 299 575 q 219 531 242 551 q 185 483 197 511 q 172 424 172 456 l 172 374 l 429 374 z "},"ė":{"ha":646,"x_min":57,"x_max":600,"o":"m 333 667 q 435 648 386 667 q 520 595 483 629 q 578 514 557 561 q 600 411 600 467 q 590 347 600 369 q 562 312 579 324 q 522 298 544 300 q 476 296 500 296 l 172 296 l 172 254 q 227 131 172 176 q 369 86 282 86 q 435 94 408 86 q 480 113 461 103 q 512 132 499 124 q 538 140 525 140 q 572 122 558 140 q 585 88 585 103 q 569 57 585 74 q 526 25 554 40 q 456 -1 497 10 q 365 -11 415 -11 q 241 8 297 -11 q 144 63 185 28 q 80 148 103 99 q 57 258 57 197 l 57 404 q 78 505 57 457 q 138 589 100 553 q 226 646 175 625 q 333 667 276 667 m 429 374 q 478 382 465 374 q 490 418 490 390 q 478 477 490 449 q 446 527 467 506 q 396 562 425 549 q 332 575 367 575 q 270 563 299 575 q 219 531 242 551 q 185 483 197 511 q 172 424 172 456 l 172 374 l 429 374 m 332 932 q 372 915 356 932 q 388 875 388 899 q 372 834 388 851 q 332 817 356 817 q 292 834 308 817 q 275 875 275 851 q 292 915 275 899 q 332 932 308 932 z "},"è":{"ha":646,"x_min":57,"x_max":600,"o":"m 333 667 q 435 648 386 667 q 520 595 483 629 q 578 514 557 561 q 600 411 600 467 q 590 347 600 369 q 562 312 579 324 q 522 298 544 300 q 476 296 500 296 l 172 296 l 172 254 q 227 131 172 176 q 369 86 282 86 q 435 94 408 86 q 480 113 461 103 q 512 132 499 124 q 538 140 525 140 q 572 122 558 140 q 585 88 585 103 q 569 57 585 74 q 526 25 554 40 q 456 -1 497 10 q 365 -11 415 -11 q 241 8 297 -11 q 144 63 185 28 q 80 148 103 99 q 57 258 57 197 l 57 404 q 78 505 57 457 q 138 589 100 553 q 226 646 175 625 q 333 667 276 667 m 429 374 q 478 382 465 374 q 490 418 490 390 q 478 477 490 449 q 446 527 467 506 q 396 562 425 549 q 332 575 367 575 q 270 563 299 575 q 219 531 242 551 q 185 483 197 511 q 172 424 172 456 l 172 374 l 429 374 m 225 897 q 210 912 214 903 q 206 931 206 921 q 217 963 206 947 q 244 978 228 978 q 258 975 250 978 l 421 889 q 439 858 439 879 q 427 826 439 842 q 397 811 415 811 q 382 817 393 811 l 225 897 z "},"₈":{"ha":450,"x_min":46,"x_max":404,"o":"m 226 532 q 342 503 297 532 q 388 403 388 474 q 367 329 388 357 q 313 290 347 301 q 379 244 354 276 q 404 154 404 211 l 404 146 q 390 77 404 106 q 353 31 376 49 q 297 4 329 13 q 226 -4 264 -4 q 156 4 189 -4 q 98 31 122 13 q 60 77 74 49 q 46 146 46 106 l 46 154 q 72 244 46 211 q 139 290 97 276 q 85 329 106 301 q 64 403 64 357 q 110 503 64 474 q 226 532 156 532 m 322 168 q 297 234 322 213 q 226 256 271 256 q 156 234 182 256 q 131 168 131 213 l 131 154 q 156 86 131 108 q 226 64 182 64 q 297 86 271 64 q 322 154 322 108 l 322 168 m 226 464 q 167 447 188 464 q 146 393 146 431 q 167 341 146 357 q 226 325 188 325 q 285 341 264 325 q 307 393 307 357 q 285 447 307 431 q 226 464 264 464 z "},"⁸":{"ha":450,"x_min":46,"x_max":404,"o":"m 226 1015 q 342 985 296 1015 q 388 886 388 956 q 367 813 388 840 q 313 774 347 785 q 379 726 354 758 q 404 638 404 694 l 404 629 q 390 560 404 589 q 353 514 376 532 q 297 488 329 496 q 226 479 264 479 q 156 488 189 479 q 98 514 122 496 q 60 560 74 532 q 46 629 46 589 l 46 638 q 72 726 46 694 q 139 774 97 758 q 85 813 106 785 q 64 886 64 840 q 110 986 64 957 q 226 1015 156 1015 m 322 651 q 297 717 322 696 q 226 738 271 738 q 156 717 182 738 q 131 651 131 696 l 131 638 q 156 569 131 592 q 226 547 182 547 q 297 569 271 547 q 322 638 322 592 l 322 651 m 226 946 q 167 930 188 946 q 146 876 146 914 q 226 807 146 807 q 285 824 264 807 q 307 876 307 840 q 285 930 307 914 q 226 946 264 946 z "},"…":{"ha":757,"x_min":51,"x_max":707,"o":"m 124 138 q 174 116 153 138 q 194 64 194 94 q 174 14 194 36 q 124 -8 153 -8 q 72 14 92 -8 q 51 64 51 36 q 72 116 51 94 q 124 138 92 138 m 381 138 q 431 116 410 138 q 451 64 451 94 q 431 14 451 36 q 381 -8 410 -8 q 328 14 349 -8 q 308 64 308 36 q 328 116 308 94 q 381 138 349 138 m 636 138 q 686 116 665 138 q 707 64 707 94 q 686 14 707 36 q 636 -8 665 -8 q 584 14 604 -8 q 564 64 564 36 q 584 116 564 94 q 636 138 604 138 z "},"ē":{"ha":646,"x_min":57,"x_max":600,"o":"m 333 667 q 435 648 386 667 q 520 595 483 629 q 578 514 557 561 q 600 411 600 467 q 590 347 600 369 q 562 312 579 324 q 522 298 544 300 q 476 296 500 296 l 172 296 l 172 254 q 227 131 172 176 q 369 86 282 86 q 435 94 408 86 q 480 113 461 103 q 512 132 499 124 q 538 140 525 140 q 572 122 558 140 q 585 88 585 103 q 569 57 585 74 q 526 25 554 40 q 456 -1 497 10 q 365 -11 415 -11 q 241 8 297 -11 q 144 63 185 28 q 80 148 103 99 q 57 258 57 197 l 57 404 q 78 505 57 457 q 138 589 100 553 q 226 646 175 625 q 333 667 276 667 m 429 374 q 478 382 465 374 q 490 418 490 390 q 478 477 490 449 q 446 527 467 506 q 396 562 425 549 q 332 575 367 575 q 270 563 299 575 q 219 531 242 551 q 185 483 197 511 q 172 424 172 456 l 172 374 l 429 374 m 144 914 q 156 944 144 932 q 185 957 167 957 l 479 957 q 508 944 494 957 q 521 914 521 932 q 508 883 521 894 q 479 872 494 872 l 185 872 q 156 883 167 872 q 144 914 144 894 z "},"—":{"ha":1046,"x_min":65,"x_max":981,"o":"m 65 333 q 76 369 65 354 q 106 383 86 383 l 939 383 q 967 369 954 383 q 981 333 981 354 q 967 298 981 311 q 939 285 954 285 l 106 285 q 76 298 86 285 q 65 333 65 311 z "},"–":{"ha":657,"x_min":65,"x_max":592,"o":"m 65 333 q 76 369 65 354 q 106 383 86 383 l 550 383 q 578 369 565 383 q 592 333 592 354 q 578 298 592 311 q 550 285 565 285 l 106 285 q 76 298 86 285 q 65 333 65 311 z "},"ŋ":{"ha":699,"x_min":82,"x_max":622,"o":"m 378 667 q 472 646 428 667 q 550 588 517 625 q 603 503 583 551 q 622 400 622 454 l 622 -56 q 611 -162 622 -114 q 577 -244 600 -210 q 518 -299 554 -279 q 432 -318 482 -318 q 385 -303 397 -318 q 372 -268 372 -287 q 386 -231 372 -244 q 419 -217 400 -217 q 465 -205 449 -217 q 492 -172 482 -193 q 504 -120 501 -150 q 507 -56 507 -90 l 507 400 q 494 460 507 431 q 460 512 482 489 q 410 549 439 535 q 349 563 381 563 q 294 551 321 563 q 245 519 267 540 q 210 468 224 499 q 197 400 197 438 l 197 42 q 180 13 197 26 q 139 0 163 0 q 98 13 114 0 q 82 42 82 26 l 82 618 q 98 647 82 636 q 139 658 114 658 q 176 647 160 658 q 192 618 192 636 l 192 561 q 260 634 213 601 q 378 667 307 667 z "},"ę":{"ha":646,"x_min":57,"x_max":600,"o":"m 333 667 q 435 648 386 667 q 520 595 483 629 q 578 514 557 561 q 600 411 600 467 q 590 347 600 369 q 562 312 579 324 q 522 298 544 300 q 476 296 500 296 l 172 296 l 172 254 q 227 131 172 176 q 369 86 282 86 q 435 94 408 86 q 480 113 461 103 q 512 132 499 124 q 538 140 525 140 q 572 122 558 140 q 585 88 585 103 q 566 53 585 72 q 511 18 547 33 q 447 -58 472 -17 q 421 -143 421 -99 q 506 -206 421 -206 q 526 -215 519 -206 q 533 -236 533 -224 q 526 -256 533 -249 q 497 -262 519 -262 q 397 -236 438 -262 q 356 -153 356 -210 q 370 -76 356 -112 q 411 -8 385 -40 q 388 -10 400 -10 q 365 -11 376 -11 q 241 8 297 -11 q 144 63 185 28 q 80 148 103 99 q 57 258 57 197 l 57 404 q 78 505 57 457 q 138 589 100 553 q 226 646 175 625 q 333 667 276 667 m 429 374 q 478 382 465 374 q 490 418 490 390 q 478 477 490 449 q 446 527 467 506 q 396 562 425 549 q 332 575 367 575 q 270 563 299 575 q 219 531 242 551 q 185 483 197 511 q 172 424 172 456 l 172 374 l 429 374 z "},"=":{"ha":608,"x_min":88,"x_max":522,"o":"m 88 222 q 98 258 88 243 q 128 272 108 272 l 481 272 q 509 258 496 272 q 522 222 522 243 q 509 185 522 199 q 481 172 496 172 l 128 172 q 98 185 108 172 q 88 222 88 199 m 88 504 q 98 540 88 525 q 128 554 108 554 l 481 554 q 509 540 496 554 q 522 504 522 525 q 509 467 522 481 q 481 454 496 454 l 128 454 q 98 467 108 454 q 88 504 88 481 z "},"℮":{"ha":758,"x_min":65,"x_max":700,"o":"m 392 667 q 509 648 453 667 q 608 595 565 629 q 675 514 650 561 q 700 411 700 467 q 690 349 700 371 q 661 317 679 328 q 621 303 643 306 q 576 301 599 301 l 239 301 l 239 260 q 285 124 239 174 q 425 75 331 75 q 524 85 486 75 q 584 108 561 96 q 621 130 607 119 q 647 140 635 140 q 674 122 663 140 q 685 88 685 103 q 667 57 685 74 q 615 25 649 40 q 532 -1 581 10 q 424 -11 483 -11 q 279 11 344 -11 q 166 74 214 33 q 92 170 118 114 q 65 294 65 226 l 65 368 q 91 482 65 428 q 162 577 117 536 q 266 642 207 618 q 392 667 325 667 m 479 368 q 528 376 515 368 q 540 413 540 385 q 500 539 540 490 q 390 588 460 588 q 281 543 324 588 q 239 418 239 499 l 239 368 l 479 368 z "},"ð":{"ha":683,"x_min":57,"x_max":608,"o":"m 501 886 q 579 708 550 808 q 608 494 608 607 l 608 258 q 586 157 608 206 q 526 71 564 108 q 439 11 489 33 q 333 -11 389 -11 q 228 11 278 -11 q 140 71 178 33 q 79 157 101 108 q 57 258 57 206 l 57 400 q 76 502 57 454 q 129 587 96 550 q 208 645 163 624 q 303 667 253 667 q 363 658 333 667 q 419 635 393 650 q 464 599 444 619 q 493 553 483 578 q 463 710 486 640 q 404 829 439 779 l 300 768 q 285 764 293 764 q 256 780 269 764 q 242 814 242 796 q 257 840 242 832 l 353 896 q 294 940 325 925 q 233 956 263 954 q 214 972 222 961 q 206 999 206 982 q 219 1035 206 1015 q 268 1056 232 1056 q 360 1031 313 1056 q 453 956 408 1006 l 547 1011 q 561 1015 553 1015 q 592 1000 578 1015 q 606 967 606 985 q 589 939 606 947 l 501 886 m 172 258 q 185 197 172 226 q 219 144 197 167 q 271 107 242 121 q 333 93 300 93 q 395 107 367 93 q 446 144 424 121 q 481 197 468 167 q 493 258 493 226 l 493 404 q 480 465 493 436 q 444 515 467 493 q 393 550 422 538 q 332 563 364 563 q 269 549 299 563 q 219 512 240 535 q 185 460 197 489 q 172 400 172 431 l 172 258 z "},"!":{"ha":290,"x_min":72,"x_max":217,"o":"m 207 969 q 204 801 207 889 q 199 626 201 714 q 193 449 196 538 q 190 281 190 361 q 174 252 190 261 q 144 243 158 243 q 113 252 126 243 q 99 281 99 261 q 96 449 99 361 q 90 626 93 538 q 85 801 88 714 q 82 969 82 889 q 99 1014 82 999 q 144 1029 117 1029 q 188 1014 169 1029 q 207 969 207 999 m 146 138 q 196 116 175 138 q 217 64 217 94 q 196 14 217 36 q 146 -8 175 -8 q 93 14 114 -8 q 72 64 72 36 q 93 116 72 94 q 146 138 114 138 z "},"¡":{"ha":286,"x_min":69,"x_max":214,"o":"m 81 51 q 83 219 81 132 q 89 396 86 307 q 94 572 92 485 q 97 740 97 658 q 112 769 97 760 q 142 778 126 778 q 174 769 160 778 q 188 740 188 760 q 190 572 188 658 q 197 396 193 485 q 203 219 200 307 q 206 51 206 132 q 188 7 206 22 q 142 -8 169 -8 q 99 7 117 -8 q 81 51 81 22 m 142 883 q 90 905 111 883 q 69 957 69 926 q 90 1008 69 986 q 142 1029 111 1029 q 193 1008 172 1029 q 214 957 214 986 q 193 905 214 926 q 142 883 172 883 z "},"f":{"ha":438,"x_min":83,"x_max":425,"o":"m 199 658 l 389 658 q 415 644 406 658 q 425 613 425 631 q 415 581 425 594 q 389 568 406 568 l 199 568 l 199 40 q 181 11 199 22 q 139 0 163 0 q 99 11 115 0 q 83 40 83 22 l 83 796 q 103 897 83 850 q 156 980 122 944 q 235 1035 190 1015 q 329 1056 279 1056 l 378 1056 q 413 1040 401 1056 q 425 1004 425 1024 q 413 969 425 985 q 378 954 401 954 l 349 954 q 289 942 317 954 q 242 910 261 931 q 210 863 222 890 q 199 806 199 836 l 199 658 z "},"ﬁ":{"ha":728,"x_min":83,"x_max":646,"o":"m 586 658 q 628 647 611 658 q 646 618 646 636 l 646 42 q 628 13 646 26 q 586 0 611 0 q 547 13 563 0 q 531 42 531 26 l 531 618 q 547 647 531 636 q 586 658 563 658 m 390 954 q 302 939 339 954 q 242 899 265 924 q 209 844 219 875 q 199 783 199 814 l 199 658 l 365 658 q 392 644 382 658 q 401 613 401 631 q 392 581 401 594 q 365 568 382 568 l 199 568 l 199 40 q 181 11 199 22 q 139 0 163 0 q 99 11 115 0 q 83 40 83 22 l 83 779 q 103 882 83 832 q 163 970 124 932 q 258 1032 201 1008 q 388 1056 314 1056 q 467 1049 428 1056 q 537 1029 506 1042 q 588 1000 568 1017 q 607 965 607 983 q 604 947 607 958 q 596 926 601 936 q 582 908 590 915 q 564 900 574 900 q 540 908 553 900 q 508 927 528 917 q 460 946 489 938 q 390 954 432 954 z "},"⅝":{"ha":1050,"x_min":35,"x_max":1008,"o":"m 831 532 q 947 503 901 532 q 992 403 992 474 q 972 329 992 357 q 917 290 951 301 q 983 244 958 276 q 1008 154 1008 211 l 1008 146 q 994 77 1008 106 q 957 31 981 49 q 901 4 933 13 q 831 -4 868 -4 q 760 4 793 -4 q 702 31 726 13 q 664 77 678 49 q 650 146 650 106 l 650 154 q 676 244 650 211 q 743 290 701 276 q 689 329 710 301 q 668 403 668 357 q 714 503 668 474 q 831 532 760 532 m 926 168 q 901 234 926 213 q 831 256 875 256 q 760 234 786 256 q 735 168 735 213 l 735 154 q 760 86 735 108 q 831 64 786 64 q 901 86 875 64 q 926 154 926 108 l 926 168 m 831 464 q 771 447 792 464 q 750 393 750 431 q 771 341 750 357 q 831 325 792 325 q 890 341 868 325 q 911 393 911 357 q 890 447 911 431 q 831 464 868 464 m 799 1069 q 831 1056 815 1069 q 846 1024 846 1043 q 842 1004 846 1014 l 322 -19 q 306 -36 317 -31 q 283 -42 296 -42 q 251 -29 264 -42 q 239 0 239 -17 q 243 18 239 10 l 764 1049 q 778 1065 769 1060 q 799 1069 788 1069 m 214 808 q 285 800 251 808 q 342 774 318 792 q 379 726 365 756 q 393 654 393 696 l 393 640 q 379 565 393 596 q 341 516 365 535 q 285 488 317 497 q 215 479 253 479 q 138 490 171 479 q 81 518 104 500 q 47 559 58 536 q 35 606 35 582 q 46 638 35 629 q 76 647 57 647 q 112 638 104 647 q 119 614 119 629 q 210 553 122 553 q 283 574 257 553 q 308 640 308 594 l 308 654 q 283 720 308 699 q 214 742 258 742 l 99 742 q 69 751 75 742 q 63 774 63 761 q 63 787 63 781 q 64 801 63 793 l 82 988 q 101 1015 86 1015 l 339 1015 q 358 1004 351 1015 q 364 978 364 993 q 358 953 364 964 q 339 942 351 942 l 153 942 l 142 808 l 214 808 z "},"₅":{"ha":431,"x_min":35,"x_max":393,"o":"m 214 325 q 285 317 251 325 q 342 290 318 308 q 379 242 365 272 q 393 171 393 213 l 393 157 q 379 82 393 113 q 341 33 365 51 q 285 5 317 14 q 215 -4 253 -4 q 138 7 171 -4 q 81 35 104 18 q 47 76 58 53 q 35 124 35 99 q 46 156 35 147 q 76 164 57 164 q 112 155 104 164 q 119 131 119 146 q 210 69 122 69 q 283 90 257 69 q 308 157 308 111 l 308 171 q 283 237 308 215 q 214 258 258 258 l 99 258 q 69 268 75 258 q 63 290 63 278 q 63 303 63 297 q 64 319 63 310 l 82 504 q 101 532 86 532 l 339 532 q 358 521 351 532 q 364 494 364 510 q 358 469 364 481 q 339 458 351 458 l 153 458 l 142 325 l 214 325 z "},"⁵":{"ha":431,"x_min":35,"x_max":393,"o":"m 214 808 q 285 800 251 808 q 342 774 318 792 q 379 726 365 756 q 393 654 393 696 l 393 640 q 379 565 393 596 q 341 516 365 535 q 285 488 317 497 q 215 479 253 479 q 138 490 171 479 q 81 518 104 500 q 47 559 58 536 q 35 606 35 582 q 46 638 35 629 q 76 647 57 647 q 112 638 104 647 q 119 614 119 629 q 210 553 122 553 q 283 574 257 553 q 308 640 308 594 l 308 654 q 283 720 308 699 q 214 742 258 742 l 99 742 q 69 751 75 742 q 63 774 63 761 q 63 787 63 781 q 64 801 63 793 l 82 988 q 101 1015 86 1015 l 339 1015 q 358 1004 351 1015 q 364 978 364 993 q 358 953 364 964 q 339 942 351 942 l 153 942 l 142 808 l 214 808 z "},"ﬂ":{"ha":740,"x_min":83,"x_max":646,"o":"m 531 914 q 469 949 506 938 q 397 961 433 961 q 324 949 360 961 q 260 915 289 938 q 215 858 232 892 q 199 783 199 825 l 199 658 l 365 658 q 392 644 382 658 q 401 613 401 631 q 392 581 401 594 q 365 568 382 568 l 199 568 l 199 40 q 181 11 199 22 q 139 0 163 0 q 99 11 115 0 q 83 40 83 22 l 83 779 q 110 896 83 844 q 181 983 136 947 q 283 1037 225 1018 q 401 1056 340 1056 q 468 1050 433 1056 q 535 1033 503 1044 q 597 1005 568 1022 q 646 964 625 988 l 646 42 q 629 13 646 26 q 588 0 613 0 q 547 13 564 0 q 531 42 531 26 l 531 914 z "},"ƒ":{"ha":496,"x_min":-103,"x_max":538,"o":"m 250 589 l 442 589 q 467 576 458 589 q 476 546 476 563 q 466 513 476 526 q 438 499 456 499 l 238 499 l 181 89 q 157 -16 172 35 q 116 -106 142 -67 q 53 -167 90 -144 q -33 -190 17 -190 l -64 -190 q -93 -174 -83 -190 q -103 -139 -103 -158 q -90 -98 -103 -115 q -57 -81 -76 -81 l -28 -81 q 8 -67 -7 -81 q 35 -29 24 -53 q 54 25 46 -6 q 67 89 63 56 l 165 803 q 199 905 172 857 q 267 989 226 953 q 357 1046 307 1025 q 460 1067 407 1067 l 500 1067 q 527 1052 517 1067 q 538 1017 538 1038 q 524 978 538 993 q 493 963 511 963 l 456 963 q 392 950 422 963 q 340 915 363 938 q 301 865 317 893 q 281 803 286 836 l 250 589 z "},"₄":{"ha":411,"x_min":15,"x_max":393,"o":"m 242 118 l 44 118 q 24 126 32 118 q 15 149 15 133 q 19 165 15 157 l 213 510 q 250 532 226 532 q 276 524 261 532 q 292 500 292 515 q 289 488 292 496 l 122 196 l 242 196 l 242 288 q 254 308 242 301 q 282 314 267 314 q 312 308 299 314 q 325 288 325 301 l 325 196 l 365 196 q 386 184 379 196 q 393 157 393 172 q 385 130 393 142 q 365 118 376 118 l 325 118 l 325 28 q 312 6 325 13 q 282 0 299 0 q 254 6 267 0 q 242 28 242 13 l 242 118 z "},"⁴":{"ha":408,"x_min":14,"x_max":392,"o":"m 240 601 l 43 601 q 22 609 31 601 q 14 632 14 617 q 18 649 14 638 l 211 992 q 249 1015 225 1015 q 275 1007 260 1015 q 290 983 290 999 q 288 971 290 979 l 121 679 l 240 679 l 240 771 q 253 791 240 785 q 281 797 265 797 q 310 791 297 797 q 324 771 324 785 l 324 679 l 364 679 q 385 667 378 679 q 392 640 392 656 q 383 613 392 625 q 364 601 375 601 l 324 601 l 324 511 q 310 490 324 496 q 281 483 297 483 q 253 490 265 483 q 240 511 240 496 l 240 601 z "},"⁄":{"ha":232,"x_min":-187,"x_max":419,"o":"m 372 1069 q 404 1056 389 1069 q 419 1024 419 1043 q 415 1004 419 1014 l -104 -19 q -120 -36 -110 -31 q -143 -42 -131 -42 q -175 -29 -162 -42 q -187 0 -187 -17 q -183 18 -187 10 l 338 1049 q 352 1065 343 1060 q 372 1069 361 1069 z "},"g":{"ha":635,"x_min":31,"x_max":617,"o":"m 310 161 q 207 182 253 161 q 183 163 193 174 q 172 135 172 153 q 204 94 172 106 q 283 76 236 82 q 386 63 331 69 q 489 38 442 56 q 568 -16 536 19 q 600 -115 600 -51 q 578 -205 600 -167 q 519 -268 557 -243 q 429 -306 481 -293 q 318 -318 378 -318 q 204 -305 257 -318 q 113 -268 151 -292 q 53 -210 75 -244 q 31 -131 31 -175 q 65 -35 31 -72 q 143 21 99 1 q 92 53 111 32 q 72 114 72 74 q 91 176 72 153 q 142 217 110 199 q 83 292 104 247 q 63 392 63 338 l 63 438 q 81 530 63 488 q 131 603 99 572 q 208 650 163 633 q 310 667 254 667 q 399 652 358 667 q 472 613 440 638 q 518 681 493 658 q 567 703 543 703 q 603 689 590 703 q 617 660 617 675 q 610 640 617 649 q 593 628 603 632 q 557 611 578 624 q 518 569 536 599 q 551 509 540 543 q 561 438 561 475 l 561 392 q 542 300 561 342 q 490 227 524 258 q 411 178 457 196 q 310 161 365 161 m 449 438 q 413 544 449 500 q 311 588 376 588 q 210 544 244 588 q 175 438 175 500 l 175 393 q 210 284 175 328 q 313 240 246 240 q 412 283 375 240 q 449 392 449 325 l 449 438 m 488 -118 q 463 -58 488 -79 q 401 -26 438 -36 q 324 -12 365 -15 q 250 -4 283 -8 q 173 -47 206 -19 q 140 -118 140 -74 q 188 -205 140 -172 q 317 -237 236 -237 q 442 -205 396 -237 q 488 -118 488 -172 z "},"ğ":{"ha":635,"x_min":31,"x_max":617,"o":"m 310 161 q 207 182 253 161 q 183 163 193 174 q 172 135 172 153 q 204 94 172 106 q 283 76 236 82 q 386 63 331 69 q 489 38 442 56 q 568 -16 536 19 q 600 -115 600 -51 q 578 -205 600 -167 q 519 -268 557 -243 q 429 -306 481 -293 q 318 -318 378 -318 q 204 -305 257 -318 q 113 -268 151 -292 q 53 -210 75 -244 q 31 -131 31 -175 q 65 -35 31 -72 q 143 21 99 1 q 92 53 111 32 q 72 114 72 74 q 91 176 72 153 q 142 217 110 199 q 83 292 104 247 q 63 392 63 338 l 63 438 q 81 530 63 488 q 131 603 99 572 q 208 650 163 633 q 310 667 254 667 q 399 652 358 667 q 472 613 440 638 q 518 681 493 658 q 567 703 543 703 q 603 689 590 703 q 617 660 617 675 q 610 640 617 649 q 593 628 603 632 q 557 611 578 624 q 518 569 536 599 q 551 509 540 543 q 561 438 561 475 l 561 392 q 542 300 561 342 q 490 227 524 258 q 411 178 457 196 q 310 161 365 161 m 449 438 q 413 544 449 500 q 311 588 376 588 q 210 544 244 588 q 175 438 175 500 l 175 393 q 210 284 175 328 q 313 240 246 240 q 412 283 375 240 q 449 392 449 325 l 449 438 m 488 -118 q 463 -58 488 -79 q 401 -26 438 -36 q 324 -12 365 -15 q 250 -4 283 -8 q 173 -47 206 -19 q 140 -118 140 -74 q 188 -205 140 -172 q 317 -237 236 -237 q 442 -205 396 -237 q 488 -118 488 -172 m 490 994 q 476 931 490 961 q 439 877 463 900 q 385 840 415 854 q 322 826 356 826 q 259 840 289 826 q 206 877 229 854 q 168 931 182 900 q 154 994 154 961 l 225 994 q 255 916 225 947 q 322 885 285 885 q 390 916 360 885 q 419 994 419 947 l 490 994 z "},"ĝ":{"ha":635,"x_min":31,"x_max":617,"o":"m 178 821 q 165 817 171 817 q 143 829 153 817 q 133 857 133 842 q 138 878 133 868 q 154 893 143 888 l 299 971 q 322 978 313 978 q 346 971 335 978 l 490 894 q 513 856 513 882 q 503 828 513 840 q 481 817 494 817 q 474 818 478 817 q 467 821 471 819 l 322 899 l 178 821 m 310 161 q 207 182 253 161 q 183 163 193 174 q 172 135 172 153 q 204 94 172 106 q 283 76 236 82 q 386 63 331 69 q 489 38 442 56 q 568 -16 536 19 q 600 -115 600 -51 q 578 -205 600 -167 q 519 -268 557 -243 q 429 -306 481 -293 q 318 -318 378 -318 q 204 -305 257 -318 q 113 -268 151 -292 q 53 -210 75 -244 q 31 -131 31 -175 q 65 -35 31 -72 q 143 21 99 1 q 92 53 111 32 q 72 114 72 74 q 91 176 72 153 q 142 217 110 199 q 83 292 104 247 q 63 392 63 338 l 63 438 q 81 530 63 488 q 131 603 99 572 q 208 650 163 633 q 310 667 254 667 q 399 652 358 667 q 472 613 440 638 q 518 681 493 658 q 567 703 543 703 q 603 689 590 703 q 617 660 617 675 q 610 640 617 649 q 593 628 603 632 q 557 611 578 624 q 518 569 536 599 q 551 509 540 543 q 561 438 561 475 l 561 392 q 542 300 561 342 q 490 227 524 258 q 411 178 457 196 q 310 161 365 161 m 449 438 q 413 544 449 500 q 311 588 376 588 q 210 544 244 588 q 175 438 175 500 l 175 393 q 210 284 175 328 q 313 240 246 240 q 412 283 375 240 q 449 392 449 325 l 449 438 m 488 -118 q 463 -58 488 -79 q 401 -26 438 -36 q 324 -12 365 -15 q 250 -4 283 -8 q 173 -47 206 -19 q 140 -118 140 -74 q 188 -205 140 -172 q 317 -237 236 -237 q 442 -205 396 -237 q 488 -118 488 -172 z "},"ģ":{"ha":635,"x_min":31,"x_max":617,"o":"m 267 817 q 259 813 263 814 q 251 811 256 811 q 222 826 233 811 q 210 858 210 842 q 228 889 210 879 l 390 975 q 404 978 399 978 q 433 963 422 978 q 443 931 443 947 q 439 912 443 921 q 424 897 435 903 l 267 817 m 310 161 q 207 182 253 161 q 183 163 193 174 q 172 135 172 153 q 204 94 172 106 q 283 76 236 82 q 386 63 331 69 q 489 38 442 56 q 568 -16 536 19 q 600 -115 600 -51 q 578 -205 600 -167 q 519 -268 557 -243 q 429 -306 481 -293 q 318 -318 378 -318 q 204 -305 257 -318 q 113 -268 151 -292 q 53 -210 75 -244 q 31 -131 31 -175 q 65 -35 31 -72 q 143 21 99 1 q 92 53 111 32 q 72 114 72 74 q 91 176 72 153 q 142 217 110 199 q 83 292 104 247 q 63 392 63 338 l 63 438 q 81 530 63 488 q 131 603 99 572 q 208 650 163 633 q 310 667 254 667 q 399 652 358 667 q 472 613 440 638 q 518 681 493 658 q 567 703 543 703 q 603 689 590 703 q 617 660 617 675 q 610 640 617 649 q 593 628 603 632 q 557 611 578 624 q 518 569 536 599 q 551 509 540 543 q 561 438 561 475 l 561 392 q 542 300 561 342 q 490 227 524 258 q 411 178 457 196 q 310 161 365 161 m 449 438 q 413 544 449 500 q 311 588 376 588 q 210 544 244 588 q 175 438 175 500 l 175 393 q 210 284 175 328 q 313 240 246 240 q 412 283 375 240 q 449 392 449 325 l 449 438 m 488 -118 q 463 -58 488 -79 q 401 -26 438 -36 q 324 -12 365 -15 q 250 -4 283 -8 q 173 -47 206 -19 q 140 -118 140 -74 q 188 -205 140 -172 q 317 -237 236 -237 q 442 -205 396 -237 q 488 -118 488 -172 m 318 1129 q 267 1150 289 1129 q 246 1201 246 1171 q 260 1255 246 1217 q 308 1371 274 1293 q 321 1385 313 1381 q 336 1389 329 1389 q 365 1380 351 1389 q 378 1354 378 1371 q 375 1340 378 1346 l 346 1268 q 378 1242 365 1260 q 390 1201 390 1224 q 370 1150 390 1171 q 318 1129 350 1129 z "},"ġ":{"ha":635,"x_min":31,"x_max":617,"o":"m 310 161 q 207 182 253 161 q 183 163 193 174 q 172 135 172 153 q 204 94 172 106 q 283 76 236 82 q 386 63 331 69 q 489 38 442 56 q 568 -16 536 19 q 600 -115 600 -51 q 578 -205 600 -167 q 519 -268 557 -243 q 429 -306 481 -293 q 318 -318 378 -318 q 204 -305 257 -318 q 113 -268 151 -292 q 53 -210 75 -244 q 31 -131 31 -175 q 65 -35 31 -72 q 143 21 99 1 q 92 53 111 32 q 72 114 72 74 q 91 176 72 153 q 142 217 110 199 q 83 292 104 247 q 63 392 63 338 l 63 438 q 81 530 63 488 q 131 603 99 572 q 208 650 163 633 q 310 667 254 667 q 399 652 358 667 q 472 613 440 638 q 518 681 493 658 q 567 703 543 703 q 603 689 590 703 q 617 660 617 675 q 610 640 617 649 q 593 628 603 632 q 557 611 578 624 q 518 569 536 599 q 551 509 540 543 q 561 438 561 475 l 561 392 q 542 300 561 342 q 490 227 524 258 q 411 178 457 196 q 310 161 365 161 m 449 438 q 413 544 449 500 q 311 588 376 588 q 210 544 244 588 q 175 438 175 500 l 175 393 q 210 284 175 328 q 313 240 246 240 q 412 283 375 240 q 449 392 449 325 l 449 438 m 488 -118 q 463 -58 488 -79 q 401 -26 438 -36 q 324 -12 365 -15 q 250 -4 283 -8 q 173 -47 206 -19 q 140 -118 140 -74 q 188 -205 140 -172 q 317 -237 236 -237 q 442 -205 396 -237 q 488 -118 488 -172 m 324 932 q 363 915 347 932 q 379 875 379 899 q 363 834 379 851 q 324 817 347 817 q 283 834 300 817 q 267 875 267 851 q 283 915 267 899 q 324 932 300 932 z "},"ß":{"ha":786,"x_min":8,"x_max":736,"o":"m 468 -28 q 425 -26 450 -28 q 378 -17 400 -24 q 340 2 356 -11 q 324 39 324 15 q 332 76 324 57 q 356 94 340 94 q 394 83 371 94 q 460 71 417 71 q 581 123 536 71 q 625 275 625 175 l 625 296 q 613 377 625 339 q 576 445 601 415 q 514 494 551 475 q 425 521 476 514 q 390 533 403 525 q 376 569 376 542 q 390 605 376 597 q 426 617 404 613 q 480 638 460 621 q 511 681 500 656 q 526 733 522 706 q 529 785 529 761 q 495 914 529 865 q 388 963 461 963 q 324 949 350 963 q 283 914 299 936 q 260 863 267 892 q 254 803 254 833 l 254 40 q 236 11 254 22 q 194 0 218 0 q 155 11 171 0 q 139 40 139 22 l 139 568 l 44 568 q 18 581 28 568 q 8 613 8 594 q 18 644 8 631 q 44 658 28 658 l 139 658 l 139 803 q 152 903 139 856 q 194 988 165 951 q 269 1045 224 1024 q 382 1067 315 1067 q 478 1051 433 1067 q 557 1005 524 1036 q 609 926 590 974 q 628 814 628 879 q 622 742 628 778 q 603 674 615 706 q 572 619 590 643 q 531 583 554 594 q 602 553 565 576 q 669 492 639 529 q 717 408 699 456 q 736 304 736 360 l 736 282 q 714 146 736 204 q 654 49 692 88 q 568 -9 617 10 q 468 -28 519 -28 z "},"`":{"ha":233,"x_min":0,"x_max":233,"o":"m 19 897 q 4 912 8 903 q 0 931 0 921 q 11 963 0 947 q 39 978 22 978 q 53 975 44 978 l 215 889 q 233 858 233 879 q 222 826 233 842 q 192 811 210 811 q 176 817 188 811 l 19 897 z "},">":{"ha":560,"x_min":61,"x_max":529,"o":"m 529 385 q 523 360 529 372 q 504 339 517 347 l 133 96 q 115 90 126 90 q 79 106 97 90 q 61 144 61 121 q 67 165 61 156 q 79 179 72 174 l 392 385 l 79 592 q 61 625 61 601 q 79 665 61 649 q 115 681 97 681 q 133 675 126 681 l 504 432 q 522 410 515 424 q 529 385 529 397 z "},"≥":{"ha":604,"x_min":74,"x_max":540,"o":"m 404 490 l 96 651 q 79 666 85 657 q 74 686 74 675 q 90 724 74 707 q 126 742 107 742 q 144 736 138 742 l 515 538 q 534 517 528 531 q 540 490 540 503 q 535 465 540 478 q 515 444 529 451 l 144 244 q 126 239 133 239 q 90 257 107 239 q 74 296 74 275 q 96 329 74 319 l 404 490 m 540 118 q 528 81 540 94 q 500 68 517 68 l 114 68 q 86 81 99 68 q 74 118 74 94 q 86 153 74 139 q 114 168 99 168 l 500 168 q 528 153 517 168 q 540 118 540 139 z "},"«":{"ha":603,"x_min":44,"x_max":547,"o":"m 282 175 q 286 160 286 168 q 265 122 286 140 q 217 103 244 103 q 181 121 190 103 l 64 338 q 50 363 56 353 q 44 385 44 374 q 50 406 44 396 q 64 432 56 417 l 181 650 q 218 668 192 668 q 266 649 246 668 q 286 610 286 629 q 282 594 286 603 l 169 385 l 282 175 m 543 175 q 547 160 547 168 q 526 122 547 140 q 478 103 506 103 q 442 121 451 103 l 325 338 q 310 364 315 354 q 306 385 306 374 q 311 406 306 396 q 325 432 317 417 l 442 650 q 456 663 446 658 q 479 668 467 668 q 527 649 507 668 q 547 610 547 629 q 543 594 547 603 l 431 385 l 543 175 z "},"»":{"ha":603,"x_min":56,"x_max":558,"o":"m 433 385 l 319 594 q 315 610 315 603 q 335 649 315 629 q 383 668 356 668 q 421 650 411 668 l 539 432 q 553 406 547 417 q 558 385 558 396 q 553 363 558 374 q 539 338 547 353 l 421 121 q 385 103 411 103 q 336 122 357 103 q 315 160 315 140 q 319 175 315 168 l 433 385 m 172 385 l 60 594 q 56 610 56 603 q 76 649 56 629 q 124 668 96 668 q 161 650 150 668 l 278 432 q 292 406 286 417 q 297 385 297 396 q 292 363 297 374 q 278 338 286 353 l 161 121 q 125 103 151 103 q 76 122 97 103 q 56 160 56 140 q 60 175 56 168 l 172 385 z "},"‹":{"ha":342,"x_min":44,"x_max":286,"o":"m 282 175 q 286 160 286 168 q 265 122 286 140 q 217 103 244 103 q 181 121 190 103 l 64 338 q 50 363 56 353 q 44 385 44 374 q 50 406 44 396 q 64 432 56 417 l 181 650 q 218 668 192 668 q 266 649 246 668 q 286 610 286 629 q 282 594 286 603 l 169 385 l 282 175 z "},"›":{"ha":342,"x_min":56,"x_max":297,"o":"m 172 385 l 60 594 q 56 610 56 603 q 76 649 56 629 q 124 668 96 668 q 161 650 151 668 l 278 432 q 292 406 286 417 q 297 385 297 396 q 292 363 297 374 q 278 338 286 353 l 161 121 q 125 103 151 103 q 76 122 97 103 q 56 160 56 140 q 60 175 56 168 l 172 385 z "},"h":{"ha":700,"x_min":83,"x_max":624,"o":"m 199 42 q 181 13 199 26 q 140 0 164 0 q 99 13 115 0 q 83 42 83 26 l 83 1015 q 99 1044 83 1033 q 140 1056 115 1056 q 181 1044 164 1056 q 199 1015 199 1033 l 199 561 q 265 634 219 601 q 379 667 311 667 q 474 646 429 667 q 551 588 518 625 q 604 503 585 551 q 624 400 624 454 l 624 42 q 606 10 624 21 q 565 0 588 0 q 527 10 546 0 q 508 42 508 21 l 508 400 q 496 460 508 431 q 462 512 483 489 q 411 549 440 535 q 350 563 382 563 q 295 551 322 563 q 247 519 268 540 q 212 468 225 499 q 199 400 199 438 l 199 42 z "},"ħ":{"ha":700,"x_min":4,"x_max":624,"o":"m 4 838 q 15 868 4 856 q 44 881 26 881 l 83 881 l 83 1015 q 99 1044 83 1033 q 140 1056 115 1056 q 181 1044 164 1056 q 199 1015 199 1033 l 199 881 l 339 881 q 367 868 354 881 q 381 838 381 856 q 367 807 381 818 q 339 796 354 796 l 199 796 l 199 561 q 265 634 219 601 q 379 667 311 667 q 474 646 429 667 q 551 588 518 625 q 604 503 585 551 q 624 400 624 454 l 624 42 q 606 10 624 21 q 565 0 588 0 q 527 10 546 0 q 508 42 508 21 l 508 400 q 496 460 508 431 q 462 512 483 489 q 411 549 440 535 q 350 563 382 563 q 295 551 322 563 q 247 519 268 540 q 212 468 225 499 q 199 400 199 438 l 199 42 q 181 13 199 26 q 140 0 164 0 q 99 13 115 0 q 83 42 83 26 l 83 796 l 44 796 q 15 807 26 796 q 4 838 4 818 z "},"ĥ":{"ha":700,"x_min":-49,"x_max":624,"o":"m -4 1175 q -17 1171 -11 1171 q -39 1183 -29 1171 q -49 1211 -49 1196 q -44 1232 -49 1222 q -28 1247 -39 1242 l 117 1325 q 140 1332 131 1332 q 164 1325 153 1332 l 308 1249 q 331 1210 331 1236 q 322 1183 331 1194 q 299 1171 313 1171 q 292 1172 296 1171 q 285 1175 289 1174 l 140 1253 l -4 1175 m 199 42 q 181 13 199 26 q 140 0 164 0 q 99 13 115 0 q 83 42 83 26 l 83 1015 q 99 1044 83 1033 q 140 1056 115 1056 q 181 1044 164 1056 q 199 1015 199 1033 l 199 561 q 265 634 219 601 q 379 667 311 667 q 474 646 429 667 q 551 588 518 625 q 604 503 585 551 q 624 400 624 454 l 624 42 q 606 10 624 21 q 565 0 588 0 q 527 10 546 0 q 508 42 508 21 l 508 400 q 496 460 508 431 q 462 512 483 489 q 411 549 440 535 q 350 563 382 563 q 295 551 322 563 q 247 519 268 540 q 212 468 225 499 q 199 400 199 438 l 199 42 z "},"˝":{"ha":407,"x_min":0,"x_max":407,"o":"m 61 818 q 52 812 56 814 q 42 810 49 810 q 13 822 26 810 q 0 849 0 833 q 11 869 0 863 l 139 972 q 157 979 146 979 q 184 967 172 979 q 196 940 196 954 q 183 917 196 925 l 61 818 m 272 818 q 253 810 264 810 q 224 822 238 810 q 211 849 211 833 q 222 869 211 863 l 351 972 q 369 979 357 979 q 396 967 385 979 q 407 940 407 954 q 394 917 407 925 l 272 818 z "},"-":{"ha":574,"x_min":65,"x_max":508,"o":"m 65 333 q 76 369 65 354 q 106 383 86 383 l 467 383 q 495 369 482 383 q 508 333 508 354 q 495 298 508 311 q 467 285 482 285 l 106 285 q 76 298 86 285 q 65 333 65 311 z "},"i":{"ha":279,"x_min":67,"x_max":210,"o":"m 139 658 q 180 647 163 658 q 197 618 197 636 l 197 42 q 180 13 197 26 q 139 0 163 0 q 99 13 115 0 q 82 42 82 26 l 82 618 q 99 647 82 636 q 139 658 115 658 m 139 971 q 189 951 168 971 q 210 906 210 932 q 189 859 210 879 q 139 839 168 839 q 88 859 108 839 q 67 906 67 879 q 88 951 67 932 q 139 971 108 971 z "},"í":{"ha":279,"x_min":33,"x_max":267,"o":"m 90 817 q 83 813 86 814 q 75 811 79 811 q 45 826 57 811 q 33 858 33 842 q 51 889 33 879 l 214 975 q 228 978 222 978 q 256 963 246 978 q 267 931 267 947 q 263 912 267 921 q 247 897 258 903 l 90 817 m 139 658 q 180 647 163 658 q 197 618 197 636 l 197 42 q 180 13 197 26 q 139 0 163 0 q 99 13 115 0 q 82 42 82 26 l 82 618 q 99 647 82 636 q 139 658 115 658 z "},"ĭ":{"ha":279,"x_min":-28,"x_max":308,"o":"m 139 658 q 180 647 163 658 q 197 618 197 636 l 197 42 q 180 13 197 26 q 139 0 163 0 q 99 13 115 0 q 82 42 82 26 l 82 618 q 99 647 82 636 q 139 658 115 658 m 308 994 q 294 931 308 961 q 257 877 281 900 q 203 840 233 854 q 140 826 174 826 q 77 840 107 826 q 24 877 47 854 q -14 931 0 900 q -28 994 -28 961 l 43 994 q 73 916 43 947 q 140 885 103 885 q 208 916 178 885 q 238 994 238 947 l 308 994 z "},"î":{"ha":279,"x_min":-50,"x_max":329,"o":"m -6 821 q -18 817 -12 817 q -40 829 -31 817 q -50 857 -50 842 q -45 878 -50 868 q -29 893 -40 888 l 115 971 q 139 978 129 978 q 163 971 151 978 l 307 894 q 329 856 329 882 q 320 828 329 840 q 297 817 311 817 q 291 818 294 817 q 283 821 288 819 l 139 899 l -6 821 m 139 658 q 180 647 163 658 q 197 618 197 636 l 197 42 q 180 13 197 26 q 139 0 163 0 q 99 13 115 0 q 82 42 82 26 l 82 618 q 99 647 82 636 q 139 658 115 658 z "},"ï":{"ha":279,"x_min":-4,"x_max":289,"o":"m 53 932 q 92 915 76 932 q 108 875 108 899 q 92 834 108 851 q 53 817 76 817 q 13 834 29 817 q -4 875 -4 851 q 13 915 -4 899 q 53 932 29 932 m 233 932 q 273 915 257 932 q 289 875 289 899 q 273 834 289 851 q 233 817 257 817 q 194 834 210 817 q 178 875 178 851 q 194 915 178 899 q 233 932 210 932 m 139 658 q 180 647 163 658 q 197 618 197 636 l 197 42 q 180 13 197 26 q 139 0 163 0 q 99 13 115 0 q 82 42 82 26 l 82 618 q 99 647 82 636 q 139 658 115 658 z "},"ì":{"ha":279,"x_min":11,"x_max":244,"o":"m 139 658 q 180 647 163 658 q 197 618 197 636 l 197 42 q 180 13 197 26 q 139 0 163 0 q 99 13 115 0 q 82 42 82 26 l 82 618 q 99 647 82 636 q 139 658 115 658 m 31 897 q 15 912 19 903 q 11 931 11 921 q 22 963 11 947 q 50 978 33 978 q 64 975 56 978 l 226 889 q 244 858 244 879 q 233 826 244 842 q 203 811 221 811 q 188 817 199 811 l 31 897 z "},"ĳ":{"ha":546,"x_min":67,"x_max":475,"o":"m 139 658 q 180 647 163 658 q 197 618 197 636 l 197 42 q 180 13 197 26 q 139 0 163 0 q 99 13 115 0 q 82 42 82 26 l 82 618 q 99 647 82 636 q 139 658 115 658 m 139 971 q 189 951 168 971 q 210 906 210 932 q 189 859 210 879 q 139 839 168 839 q 88 859 108 839 q 67 906 67 879 q 88 951 67 932 q 139 971 108 971 m 404 971 q 454 951 433 971 q 475 906 475 932 q 454 859 475 879 q 404 839 433 839 q 353 859 374 839 q 332 906 332 879 q 353 951 332 932 q 404 971 374 971 m 404 658 q 445 647 428 658 q 463 618 463 636 l 463 -56 q 451 -162 463 -114 q 417 -244 440 -210 q 358 -299 394 -279 q 272 -318 322 -318 q 226 -303 239 -318 q 213 -268 213 -287 q 226 -231 213 -244 q 260 -217 240 -217 q 306 -205 289 -217 q 333 -172 324 -193 q 344 -120 342 -150 q 347 -56 347 -90 l 347 618 q 363 647 347 636 q 404 658 379 658 z "},"ī":{"ha":279,"x_min":-49,"x_max":328,"o":"m 139 658 q 180 647 163 658 q 197 618 197 636 l 197 42 q 180 13 197 26 q 139 0 163 0 q 99 13 115 0 q 82 42 82 26 l 82 618 q 99 647 82 636 q 139 658 115 658 m -49 914 q -37 944 -49 932 q -8 957 -26 957 l 286 957 q 315 944 301 957 q 328 914 328 932 q 315 883 328 894 q 286 872 301 872 l -8 872 q -37 883 -26 872 q -49 914 -49 894 z "},"∞":{"ha":1210,"x_min":71,"x_max":1139,"o":"m 331 579 q 481 535 407 579 q 604 414 556 490 q 727 535 653 490 q 879 579 801 579 q 976 563 929 579 q 1059 516 1022 547 q 1117 438 1096 485 q 1139 328 1139 390 q 1117 218 1139 265 q 1059 140 1096 171 q 975 92 1022 108 q 878 76 928 76 q 727 120 801 76 q 604 240 653 164 q 481 120 556 164 q 331 76 407 76 q 234 92 281 76 q 151 140 188 108 q 92 218 114 171 q 71 328 71 265 q 92 438 71 390 q 151 516 114 485 q 234 563 188 547 q 331 579 281 579 m 650 328 q 695 260 668 289 q 753 213 722 232 q 815 185 783 194 q 878 176 847 176 q 987 213 940 176 q 1033 328 1033 250 q 987 442 1033 406 q 878 479 940 479 q 815 470 847 479 q 753 442 783 461 q 695 395 722 424 q 650 328 668 367 m 560 328 q 514 395 540 367 q 457 442 488 424 q 394 470 426 461 q 332 479 363 479 q 223 442 269 479 q 176 328 176 406 q 223 213 176 250 q 332 176 269 176 q 394 185 363 176 q 457 213 426 194 q 514 260 488 232 q 560 328 540 289 z "},"∫":{"ha":475,"x_min":6,"x_max":469,"o":"m 429 1039 q 456 1026 443 1039 q 469 993 469 1013 q 459 961 469 978 q 429 944 449 944 q 328 908 360 944 q 296 813 296 871 l 296 -58 q 282 -144 296 -104 q 239 -214 268 -185 q 164 -260 210 -243 q 53 -278 118 -278 q 19 -264 33 -278 q 6 -231 6 -250 q 16 -197 6 -212 q 49 -182 26 -182 q 99 -176 75 -182 q 140 -156 122 -171 q 169 -118 158 -142 q 179 -58 179 -94 l 179 815 q 194 901 179 861 q 239 972 208 942 q 317 1021 269 1003 q 429 1039 364 1039 z "},"į":{"ha":279,"x_min":4,"x_max":210,"o":"m 154 -225 q 175 -234 168 -225 q 182 -256 182 -243 q 175 -275 182 -268 q 146 -282 168 -282 q 45 -256 86 -282 q 4 -172 4 -229 q 29 -73 4 -119 q 99 13 54 -26 q 82 42 82 22 l 82 618 q 99 647 82 636 q 139 658 115 658 q 180 647 163 658 q 197 618 197 636 l 197 42 q 171 7 197 21 q 98 -71 126 -28 q 69 -162 69 -114 q 154 -225 69 -225 m 139 971 q 189 951 168 971 q 210 906 210 932 q 189 859 210 879 q 139 839 168 839 q 88 859 108 839 q 67 906 67 879 q 88 951 67 932 q 139 971 108 971 z "},"ĩ":{"ha":279,"x_min":-82,"x_max":361,"o":"m 139 658 q 180 647 163 658 q 197 618 197 636 l 197 42 q 180 13 197 26 q 139 0 163 0 q 99 13 115 0 q 82 42 82 26 l 82 618 q 99 647 82 636 q 139 658 115 658 m 56 883 q 17 877 33 883 q -10 863 1 871 q -31 849 -22 856 q -50 843 -40 843 q -75 858 -68 843 q -82 883 -82 872 q -69 922 -82 906 q -37 949 -56 939 q 3 963 -18 958 q 39 968 24 968 q 90 961 67 968 q 133 945 113 954 q 176 929 154 936 q 226 922 199 922 q 264 928 249 922 q 290 941 279 933 q 310 954 301 949 q 328 960 318 960 q 353 945 346 960 q 361 921 361 931 q 348 880 361 896 q 316 855 335 864 q 278 842 297 846 q 244 838 258 838 q 191 844 214 838 q 147 860 168 851 q 105 876 126 869 q 56 883 83 883 z "},"j":{"ha":282,"x_min":-51,"x_max":211,"o":"m 140 971 q 190 951 169 971 q 211 906 211 932 q 190 859 211 879 q 140 839 169 839 q 89 859 110 839 q 68 906 68 879 q 89 951 68 932 q 140 971 110 971 m 140 658 q 181 647 164 658 q 199 618 199 636 l 199 -56 q 188 -162 199 -114 q 153 -244 176 -210 q 94 -299 131 -279 q 8 -318 58 -318 q -38 -303 -25 -318 q -51 -268 -51 -287 q -37 -231 -51 -244 q -4 -217 -24 -217 q 42 -205 25 -217 q 69 -172 60 -193 q 81 -120 78 -150 q 83 -56 83 -90 l 83 618 q 99 647 83 636 q 140 658 115 658 z "},"ĵ":{"ha":282,"x_min":-51,"x_max":332,"o":"m 140 658 q 181 647 164 658 q 199 618 199 636 l 199 -56 q 188 -162 199 -114 q 153 -244 176 -210 q 94 -299 131 -279 q 8 -318 58 -318 q -38 -303 -25 -318 q -51 -268 -51 -287 q -37 -231 -51 -244 q -4 -217 -24 -217 q 42 -205 25 -217 q 69 -172 60 -193 q 81 -120 78 -150 q 83 -56 83 -90 l 83 618 q 99 647 83 636 q 140 658 115 658 m -3 821 q -15 817 -10 817 q -37 829 -28 817 q -47 857 -47 842 q -42 878 -47 868 q -26 893 -37 888 l 118 971 q 142 978 132 978 q 165 971 154 978 l 310 894 q 332 856 332 882 q 323 828 332 840 q 300 817 314 817 q 294 818 297 817 q 286 821 290 819 l 142 899 l -3 821 z "},"k":{"ha":649,"x_min":83,"x_max":631,"o":"m 393 408 l 624 74 q 631 53 631 63 q 610 13 631 32 q 567 -6 589 -6 q 535 13 547 -6 l 314 336 l 199 233 l 199 42 q 181 13 199 26 q 140 0 164 0 q 99 13 115 0 q 83 42 83 26 l 83 1015 q 99 1044 83 1033 q 140 1056 115 1056 q 181 1044 164 1056 q 199 1015 199 1033 l 199 365 l 515 651 q 540 661 528 661 q 579 644 560 661 q 599 607 599 628 q 586 579 599 590 l 393 408 z "},"ķ":{"ha":649,"x_min":83,"x_max":631,"o":"m 264 -229 q 247 -233 256 -233 q 218 -219 231 -233 q 206 -186 206 -204 q 224 -156 206 -165 l 386 -69 q 400 -67 397 -67 q 429 -82 418 -67 q 440 -114 440 -97 q 421 -147 440 -136 l 264 -229 m 393 408 l 624 74 q 631 53 631 63 q 610 13 631 32 q 567 -6 589 -6 q 535 13 547 -6 l 314 336 l 199 233 l 199 42 q 181 13 199 26 q 140 0 164 0 q 99 13 115 0 q 83 42 83 26 l 83 1015 q 99 1044 83 1033 q 140 1056 115 1056 q 181 1044 164 1056 q 199 1015 199 1033 l 199 365 l 515 651 q 540 661 528 661 q 579 644 560 661 q 599 607 599 628 q 586 579 599 590 l 393 408 z "},"ĸ":{"ha":647,"x_min":82,"x_max":629,"o":"m 392 408 l 622 74 q 629 53 629 63 q 608 13 629 32 q 565 -6 588 -6 q 533 13 546 -6 l 313 336 l 197 233 l 197 42 q 180 13 197 26 q 139 0 163 0 q 98 13 114 0 q 82 42 82 26 l 82 618 q 98 647 82 636 q 139 658 114 658 q 180 647 163 658 q 197 618 197 636 l 197 365 l 514 651 q 539 661 526 661 q 578 644 558 661 q 597 607 597 628 q 585 579 597 590 l 392 408 z "},"l":{"ha":304,"x_min":94,"x_max":210,"o":"m 151 1056 q 192 1044 175 1056 q 210 1015 210 1033 l 210 42 q 192 13 210 26 q 151 0 175 0 q 110 13 126 0 q 94 42 94 26 l 94 1015 q 110 1044 94 1033 q 151 1056 126 1056 z "},"ĺ":{"ha":304,"x_min":51,"x_max":285,"o":"m 108 1119 q 101 1115 104 1117 q 93 1114 97 1114 q 63 1129 75 1114 q 51 1161 51 1144 q 69 1192 51 1182 l 232 1278 q 246 1281 240 1281 q 274 1265 264 1281 q 285 1233 285 1250 q 281 1215 285 1224 q 265 1200 276 1206 l 108 1119 m 151 1056 q 192 1044 175 1056 q 210 1015 210 1033 l 210 42 q 192 13 210 26 q 151 0 175 0 q 110 13 126 0 q 94 42 94 26 l 94 1015 q 110 1044 94 1033 q 151 1056 126 1056 z "},"ľ":{"ha":304,"x_min":94,"x_max":439,"o":"m 367 1029 q 417 1008 396 1029 q 439 957 439 986 q 425 903 439 942 q 376 788 411 865 q 364 774 372 778 q 349 769 356 769 q 321 778 335 769 q 307 803 307 788 q 310 817 307 808 l 339 889 q 307 915 319 897 q 294 957 294 933 q 315 1008 294 986 q 367 1029 336 1029 m 151 1056 q 192 1044 175 1056 q 210 1015 210 1033 l 210 42 q 192 13 210 26 q 151 0 175 0 q 110 13 126 0 q 94 42 94 26 l 94 1015 q 110 1044 94 1033 q 151 1056 126 1056 z "},"ļ":{"ha":304,"x_min":38,"x_max":272,"o":"m 96 -229 q 79 -233 88 -233 q 50 -219 63 -233 q 38 -186 38 -204 q 56 -156 38 -165 l 218 -69 q 232 -67 229 -67 q 261 -82 250 -67 q 272 -114 272 -97 q 253 -147 272 -136 l 96 -229 m 151 1056 q 192 1044 175 1056 q 210 1015 210 1033 l 210 42 q 192 13 210 26 q 151 0 175 0 q 110 13 126 0 q 94 42 94 26 l 94 1015 q 110 1044 94 1033 q 151 1056 126 1056 z "},"ŀ":{"ha":457,"x_min":94,"x_max":449,"o":"m 151 1056 q 192 1044 175 1056 q 210 1015 210 1033 l 210 42 q 192 13 210 26 q 151 0 175 0 q 110 13 126 0 q 94 42 94 26 l 94 1015 q 110 1044 94 1033 q 151 1056 126 1056 m 375 486 q 427 465 406 486 q 449 417 449 444 q 427 368 449 389 q 375 347 406 347 q 321 368 343 347 q 299 417 299 389 q 321 465 299 444 q 375 486 343 486 z "},"<":{"ha":560,"x_min":31,"x_max":499,"o":"m 31 385 q 38 410 31 397 q 56 432 44 424 l 426 675 q 444 681 433 681 q 481 665 463 681 q 499 625 499 649 q 481 592 499 601 l 168 385 l 481 179 q 493 165 488 174 q 499 144 499 156 q 481 106 499 121 q 444 90 463 90 q 426 96 433 90 l 56 339 q 37 360 43 347 q 31 385 31 372 z "},"≤":{"ha":604,"x_min":64,"x_max":532,"o":"m 510 329 q 531 296 531 318 q 514 257 531 275 q 478 239 497 239 q 460 244 471 239 l 89 444 q 69 465 75 451 q 64 490 64 478 q 70 517 64 503 q 89 538 76 531 l 460 736 q 478 742 467 742 q 514 724 497 742 q 531 686 531 707 q 526 666 531 675 q 510 651 521 657 l 201 490 l 510 329 m 64 118 q 76 153 64 139 q 106 168 88 168 l 490 168 q 519 153 507 168 q 532 118 532 139 q 519 81 532 94 q 490 68 507 68 l 106 68 q 76 81 88 68 q 64 118 64 94 z "},"¬":{"ha":675,"x_min":61,"x_max":590,"o":"m 61 333 q 72 369 61 354 q 101 383 82 383 l 549 383 q 577 369 564 383 q 590 333 590 354 l 590 128 q 574 100 590 113 q 533 88 557 88 q 492 100 508 88 q 475 128 475 113 l 475 285 l 101 285 q 72 298 82 285 q 61 333 61 311 z "},"◊":{"ha":667,"x_min":33,"x_max":635,"o":"m 599 604 q 624 552 614 575 q 635 507 635 529 q 624 463 635 486 q 599 413 614 440 l 400 42 q 372 7 389 19 q 333 -6 356 -6 q 267 42 293 -6 l 69 413 q 44 463 54 440 q 33 507 33 486 q 44 552 33 529 q 69 604 54 575 l 267 974 q 333 1021 290 1021 q 373 1009 357 1021 q 401 974 389 997 l 599 604 m 139 508 l 333 135 l 529 508 l 333 888 l 139 508 z "},"ł":{"ha":431,"x_min":22,"x_max":411,"o":"m 210 1056 q 251 1044 233 1056 q 268 1015 268 1033 l 268 567 l 353 613 q 367 615 358 615 q 398 599 385 615 q 411 564 411 582 q 393 532 411 540 l 268 465 l 268 42 q 251 13 268 26 q 210 0 233 0 q 169 13 185 0 q 153 42 153 26 l 153 403 l 79 364 q 65 360 72 360 q 35 377 49 360 q 22 414 22 394 q 39 444 22 436 l 153 506 l 153 1015 q 169 1044 153 1033 q 210 1056 185 1056 z "},"m":{"ha":1092,"x_min":82,"x_max":1015,"o":"m 490 403 q 478 467 490 438 q 447 518 467 497 q 401 551 428 539 q 346 563 375 563 q 292 552 318 563 q 244 521 265 542 q 210 469 224 500 q 197 400 197 439 l 197 42 q 180 13 197 26 q 139 0 163 0 q 98 13 114 0 q 82 42 82 26 l 82 618 q 98 647 82 636 q 139 658 114 658 q 176 647 161 658 q 192 618 192 636 l 192 561 q 261 634 215 601 q 376 667 307 667 q 493 628 443 667 q 567 528 543 590 q 660 633 603 599 q 778 667 717 667 q 867 649 824 667 q 942 597 910 631 q 995 513 975 563 q 1015 400 1015 464 l 1015 42 q 998 13 1015 26 q 957 0 981 0 q 917 13 933 0 q 900 42 900 26 l 900 400 q 888 471 900 440 q 854 522 875 501 q 807 552 833 542 q 754 563 781 563 q 700 551 726 563 q 653 519 674 540 q 619 469 632 499 q 606 404 606 440 l 606 40 q 588 10 606 19 q 547 0 569 0 q 509 10 528 0 q 490 40 490 19 l 490 403 z "},"¯":{"ha":376,"x_min":0,"x_max":376,"o":"m 0 914 q 11 944 0 932 q 40 957 22 957 l 335 957 q 363 944 350 957 q 376 914 376 932 q 363 883 376 894 q 335 872 350 872 l 40 872 q 11 883 22 872 q 0 914 0 894 z "},"−":{"ha":693,"x_min":83,"x_max":610,"o":"m 83 394 q 94 430 83 415 q 124 444 104 444 l 568 444 q 597 430 583 444 q 610 394 610 415 q 597 359 610 372 q 568 346 583 346 l 124 346 q 94 359 104 346 q 83 394 83 372 z "},"µ":{"ha":690,"x_min":92,"x_max":635,"o":"m 365 -11 q 265 13 310 -11 q 196 69 221 38 l 196 -278 q 181 -306 196 -293 q 147 -318 167 -318 q 108 -306 124 -318 q 92 -278 92 -293 l 92 617 q 108 645 92 632 q 149 658 125 658 q 190 645 172 658 q 207 617 207 632 l 207 236 q 220 189 207 214 q 256 142 233 164 q 306 107 278 121 q 367 93 335 93 q 425 107 397 93 q 474 144 453 121 q 507 196 494 167 q 519 256 519 225 l 519 617 q 537 647 519 635 q 576 658 554 658 q 618 647 601 658 q 635 617 635 635 l 635 256 q 614 153 635 201 q 556 68 593 104 q 470 10 519 32 q 365 -11 421 -11 z "},"×":{"ha":556,"x_min":75,"x_max":482,"o":"m 482 233 q 465 197 482 214 q 426 179 447 179 q 400 189 411 179 l 278 313 l 156 189 q 129 179 144 179 q 92 197 110 179 q 75 233 75 214 q 85 260 75 249 l 214 382 l 86 503 q 75 531 75 514 q 92 568 75 551 q 129 585 110 585 q 157 574 146 585 l 278 453 l 399 574 q 426 585 410 585 q 464 568 447 585 q 481 531 481 551 q 469 503 481 514 l 343 382 l 471 260 q 482 233 482 246 z "},"n":{"ha":699,"x_min":82,"x_max":622,"o":"m 197 42 q 180 13 197 26 q 139 0 163 0 q 98 13 114 0 q 82 42 82 26 l 82 618 q 98 647 82 636 q 139 658 114 658 q 176 647 160 658 q 192 618 192 636 l 192 561 q 260 634 213 601 q 378 667 307 667 q 472 646 428 667 q 550 588 517 625 q 603 503 583 551 q 622 400 622 454 l 622 42 q 604 10 622 21 q 564 0 586 0 q 525 10 543 0 q 507 42 507 21 l 507 400 q 494 460 507 431 q 460 512 482 489 q 410 549 439 535 q 349 563 381 563 q 294 551 321 563 q 245 519 267 540 q 210 468 224 499 q 197 400 197 438 l 197 42 z "},"ń":{"ha":699,"x_min":82,"x_max":622,"o":"m 292 817 q 284 813 288 814 q 276 811 281 811 q 247 826 258 811 q 235 858 235 842 q 253 889 235 879 l 415 975 q 429 978 424 978 q 458 963 447 978 q 468 931 468 947 q 464 912 468 921 q 449 897 460 903 l 292 817 m 197 42 q 180 13 197 26 q 139 0 163 0 q 98 13 114 0 q 82 42 82 26 l 82 618 q 98 647 82 636 q 139 658 114 658 q 176 647 160 658 q 192 618 192 636 l 192 561 q 260 634 213 601 q 378 667 307 667 q 472 646 428 667 q 550 588 517 625 q 603 503 583 551 q 622 400 622 454 l 622 42 q 604 10 622 21 q 564 0 586 0 q 525 10 543 0 q 507 42 507 21 l 507 400 q 494 460 507 431 q 460 512 482 489 q 410 549 439 535 q 349 563 381 563 q 294 551 321 563 q 245 519 267 540 q 210 468 224 499 q 197 400 197 438 l 197 42 z "},"ň":{"ha":699,"x_min":82,"x_max":622,"o":"m 343 890 l 483 1007 q 493 1014 488 1013 q 503 1015 499 1015 q 524 1003 515 1015 q 532 978 532 992 q 511 940 532 954 l 371 825 q 343 813 356 813 q 317 825 329 813 l 175 940 q 156 978 156 954 q 163 1003 156 992 q 185 1015 171 1015 q 204 1007 196 1015 l 343 890 m 197 42 q 180 13 197 26 q 139 0 163 0 q 98 13 114 0 q 82 42 82 26 l 82 618 q 98 647 82 636 q 139 658 114 658 q 176 647 160 658 q 192 618 192 636 l 192 561 q 260 634 213 601 q 378 667 307 667 q 472 646 428 667 q 550 588 517 625 q 603 503 583 551 q 622 400 622 454 l 622 42 q 604 10 622 21 q 564 0 586 0 q 525 10 543 0 q 507 42 507 21 l 507 400 q 494 460 507 431 q 460 512 482 489 q 410 549 439 535 q 349 563 381 563 q 294 551 321 563 q 245 519 267 540 q 210 468 224 499 q 197 400 197 438 l 197 42 z "},"ņ":{"ha":699,"x_min":82,"x_max":622,"o":"m 281 -229 q 264 -233 272 -233 q 235 -219 247 -233 q 222 -186 222 -204 q 240 -156 222 -165 l 403 -69 q 417 -67 414 -67 q 446 -82 435 -67 q 457 -114 457 -97 q 438 -147 457 -136 l 281 -229 m 197 42 q 180 13 197 26 q 139 0 163 0 q 98 13 114 0 q 82 42 82 26 l 82 618 q 98 647 82 636 q 139 658 114 658 q 176 647 160 658 q 192 618 192 636 l 192 561 q 260 634 213 601 q 378 667 307 667 q 472 646 428 667 q 550 588 517 625 q 603 503 583 551 q 622 400 622 454 l 622 42 q 604 10 622 21 q 564 0 586 0 q 525 10 543 0 q 507 42 507 21 l 507 400 q 494 460 507 431 q 460 512 482 489 q 410 549 439 535 q 349 563 381 563 q 294 551 321 563 q 245 519 267 540 q 210 468 224 499 q 197 400 197 438 l 197 42 z "},"₉":{"ha":461,"x_min":47,"x_max":406,"o":"m 210 207 q 147 214 176 207 q 94 238 117 221 q 60 285 72 256 q 47 357 47 314 l 47 368 q 99 494 47 457 q 226 532 150 532 q 297 523 264 532 q 353 494 329 514 q 392 444 378 475 q 406 368 406 413 l 406 160 q 392 84 406 115 q 353 33 378 53 q 294 5 328 14 q 222 -4 261 -4 q 144 8 178 -4 q 90 38 111 19 q 58 80 68 57 q 47 126 47 103 q 57 153 47 146 q 86 161 67 161 q 117 156 104 161 q 129 131 129 150 q 157 85 129 101 q 225 69 185 69 q 296 92 269 69 q 322 160 322 114 l 322 246 q 272 215 301 224 q 210 207 243 207 m 322 372 q 297 441 322 419 q 226 463 271 463 q 157 441 182 463 q 132 372 132 419 l 132 361 q 157 293 132 313 q 226 274 182 274 q 296 292 269 274 q 322 356 322 311 l 322 372 z "},"⁹":{"ha":464,"x_min":47,"x_max":406,"o":"m 210 690 q 147 697 176 690 q 94 722 117 704 q 60 767 72 739 q 47 839 47 796 l 47 851 q 99 978 47 940 q 226 1015 150 1015 q 297 1006 264 1015 q 353 978 329 997 q 392 927 378 958 q 406 851 406 896 l 406 643 q 392 567 406 599 q 353 517 378 536 q 294 488 328 497 q 222 479 261 479 q 144 491 178 479 q 90 522 111 503 q 58 563 68 540 q 47 610 47 586 q 57 637 47 629 q 86 644 67 644 q 117 638 104 644 q 129 613 129 632 q 157 569 129 585 q 225 553 185 553 q 296 575 269 553 q 322 643 322 597 l 322 729 q 272 699 301 707 q 210 690 243 690 m 322 856 q 297 924 322 903 q 226 946 271 946 q 157 924 182 946 q 132 856 132 903 l 132 843 q 157 776 132 796 q 226 757 182 757 q 296 775 269 757 q 322 838 322 793 l 322 856 z "},"≠":{"ha":679,"x_min":69,"x_max":610,"o":"m 472 554 l 568 554 q 597 540 583 554 q 610 504 610 525 q 597 467 610 481 q 568 454 583 454 l 417 454 l 328 272 l 568 272 q 597 258 583 272 q 610 222 610 243 q 597 185 610 199 q 568 172 583 172 l 272 172 l 181 -14 q 157 -29 172 -29 q 133 -20 144 -29 q 121 3 121 -11 q 125 19 121 11 l 197 172 l 110 172 q 81 185 92 172 q 69 222 69 199 q 81 258 69 243 q 110 272 92 272 l 253 272 l 340 454 l 110 454 q 81 467 92 454 q 69 504 69 481 q 81 540 69 525 q 110 554 92 554 l 396 554 l 499 764 q 522 778 506 778 q 548 767 535 778 q 561 742 561 757 q 560 733 561 736 q 556 724 558 729 l 472 554 z "},"ñ":{"ha":699,"x_min":82,"x_max":622,"o":"m 261 883 q 223 877 239 883 q 195 863 207 871 q 174 849 183 856 q 156 843 165 843 q 131 858 138 843 q 124 883 124 872 q 137 922 124 906 q 169 949 150 939 q 208 963 188 958 q 244 968 229 968 q 295 961 272 968 q 339 945 318 954 q 382 929 360 936 q 432 922 404 922 q 469 928 454 922 q 496 941 485 933 q 515 954 507 949 q 533 960 524 960 q 559 945 551 960 q 567 921 567 931 q 553 880 567 896 q 522 855 540 864 q 483 842 503 846 q 450 838 464 838 q 397 844 419 838 q 353 860 374 851 q 310 876 332 869 q 261 883 289 883 m 197 42 q 180 13 197 26 q 139 0 163 0 q 98 13 114 0 q 82 42 82 26 l 82 618 q 98 647 82 636 q 139 658 114 658 q 176 647 160 658 q 192 618 192 636 l 192 561 q 260 634 213 601 q 378 667 307 667 q 472 646 428 667 q 550 588 517 625 q 603 503 583 551 q 622 400 622 454 l 622 42 q 604 10 622 21 q 564 0 586 0 q 525 10 543 0 q 507 42 507 21 l 507 400 q 494 460 507 431 q 460 512 482 489 q 410 549 439 535 q 349 563 381 563 q 294 551 321 563 q 245 519 267 540 q 210 468 224 499 q 197 400 197 438 l 197 42 z "},"#":{"ha":846,"x_min":33,"x_max":813,"o":"m 351 990 q 390 978 375 990 q 406 942 406 965 l 369 724 l 540 724 l 579 964 q 596 983 582 976 q 625 990 610 990 q 665 978 649 990 q 681 942 681 965 l 644 724 l 772 724 q 800 711 788 724 q 813 679 813 699 q 801 647 813 660 q 776 635 790 635 l 629 635 l 594 428 l 722 428 q 750 415 738 428 q 763 382 763 403 q 751 351 763 363 q 726 339 740 339 l 578 339 l 536 76 q 519 54 533 63 q 489 46 504 46 q 449 58 467 46 q 432 93 432 69 l 472 339 l 304 339 l 261 78 q 241 54 258 63 q 215 46 224 46 q 176 58 193 46 q 160 93 160 69 l 197 339 l 72 339 q 33 382 33 339 q 43 415 33 401 q 68 428 53 428 l 215 428 l 249 635 l 122 635 q 83 679 83 635 q 92 711 83 699 q 117 724 101 724 l 265 724 l 306 964 q 322 983 308 976 q 351 990 335 990 m 321 428 l 489 428 l 522 635 l 354 635 l 321 428 z "},"o":{"ha":663,"x_min":57,"x_max":606,"o":"m 331 667 q 436 646 386 667 q 524 588 486 625 q 583 503 561 551 q 606 400 606 454 l 606 258 q 583 157 606 206 q 524 71 561 108 q 436 11 486 33 q 331 -11 386 -11 q 226 11 275 -11 q 139 71 176 33 q 79 157 101 108 q 57 258 57 206 l 57 400 q 78 501 57 453 q 138 587 100 550 q 224 645 175 624 q 331 667 274 667 m 490 400 q 478 460 490 431 q 444 512 465 489 q 393 549 422 535 q 331 563 364 563 q 268 549 297 563 q 218 512 239 535 q 185 460 197 489 q 172 400 172 431 l 172 258 q 185 197 172 226 q 219 144 197 167 q 269 107 240 121 q 331 93 297 93 q 392 107 364 93 q 443 144 421 121 q 478 197 465 167 q 490 258 490 226 l 490 400 z "},"ó":{"ha":663,"x_min":57,"x_max":606,"o":"m 274 817 q 266 813 269 814 q 258 811 263 811 q 228 826 240 811 q 217 858 217 842 q 235 889 217 879 l 397 975 q 411 978 406 978 q 440 963 429 978 q 450 931 450 947 q 446 912 450 921 q 431 897 442 903 l 274 817 m 331 667 q 436 646 386 667 q 524 588 486 625 q 583 503 561 551 q 606 400 606 454 l 606 258 q 583 157 606 206 q 524 71 561 108 q 436 11 486 33 q 331 -11 386 -11 q 226 11 275 -11 q 139 71 176 33 q 79 157 101 108 q 57 258 57 206 l 57 400 q 78 501 57 453 q 138 587 100 550 q 224 645 175 624 q 331 667 274 667 m 490 400 q 478 460 490 431 q 444 512 465 489 q 393 549 422 535 q 331 563 364 563 q 268 549 297 563 q 218 512 239 535 q 185 460 197 489 q 172 400 172 431 l 172 258 q 185 197 172 226 q 219 144 197 167 q 269 107 240 121 q 331 93 297 93 q 392 107 364 93 q 443 144 421 121 q 478 197 465 167 q 490 258 490 226 l 490 400 z "},"ŏ":{"ha":663,"x_min":57,"x_max":606,"o":"m 331 667 q 436 646 386 667 q 524 588 486 625 q 583 503 561 551 q 606 400 606 454 l 606 258 q 583 157 606 206 q 524 71 561 108 q 436 11 486 33 q 331 -11 386 -11 q 226 11 275 -11 q 139 71 176 33 q 79 157 101 108 q 57 258 57 206 l 57 400 q 78 501 57 453 q 138 587 100 550 q 224 645 175 624 q 331 667 274 667 m 490 400 q 478 460 490 431 q 444 512 465 489 q 393 549 422 535 q 331 563 364 563 q 268 549 297 563 q 218 512 239 535 q 185 460 197 489 q 172 400 172 431 l 172 258 q 185 197 172 226 q 219 144 197 167 q 269 107 240 121 q 331 93 297 93 q 392 107 364 93 q 443 144 421 121 q 478 197 465 167 q 490 258 490 226 l 490 400 m 499 994 q 485 931 499 961 q 447 877 471 900 q 394 840 424 854 q 331 826 364 826 q 267 840 297 826 q 214 877 238 854 q 176 931 190 900 q 163 994 163 961 l 233 994 q 263 916 233 947 q 331 885 293 885 q 398 916 368 885 q 428 994 428 947 l 499 994 z "},"ô":{"ha":663,"x_min":57,"x_max":606,"o":"m 186 821 q 174 817 179 817 q 151 829 161 817 q 142 857 142 842 q 147 878 142 868 q 163 893 151 888 l 307 971 q 331 978 321 978 q 354 971 343 978 l 499 894 q 521 856 521 882 q 512 828 521 840 q 489 817 503 817 q 483 818 486 817 q 475 821 479 819 l 331 899 l 186 821 m 331 667 q 436 646 386 667 q 524 588 486 625 q 583 503 561 551 q 606 400 606 454 l 606 258 q 583 157 606 206 q 524 71 561 108 q 436 11 486 33 q 331 -11 386 -11 q 226 11 275 -11 q 139 71 176 33 q 79 157 101 108 q 57 258 57 206 l 57 400 q 78 501 57 453 q 138 587 100 550 q 224 645 175 624 q 331 667 274 667 m 490 400 q 478 460 490 431 q 444 512 465 489 q 393 549 422 535 q 331 563 364 563 q 268 549 297 563 q 218 512 239 535 q 185 460 197 489 q 172 400 172 431 l 172 258 q 185 197 172 226 q 219 144 197 167 q 269 107 240 121 q 331 93 297 93 q 392 107 364 93 q 443 144 421 121 q 478 197 465 167 q 490 258 490 226 l 490 400 z "},"ö":{"ha":663,"x_min":57,"x_max":606,"o":"m 242 932 q 281 915 265 932 q 297 875 297 899 q 281 834 297 851 q 242 817 265 817 q 201 834 218 817 q 185 875 185 851 q 201 915 185 899 q 242 932 218 932 m 422 932 q 462 915 446 932 q 478 875 478 899 q 462 834 478 851 q 422 817 446 817 q 383 834 399 817 q 367 875 367 851 q 383 915 367 899 q 422 932 399 932 m 331 667 q 436 646 386 667 q 524 588 486 625 q 583 503 561 551 q 606 400 606 454 l 606 258 q 583 157 606 206 q 524 71 561 108 q 436 11 486 33 q 331 -11 386 -11 q 226 11 275 -11 q 139 71 176 33 q 79 157 101 108 q 57 258 57 206 l 57 400 q 78 501 57 453 q 138 587 100 550 q 224 645 175 624 q 331 667 274 667 m 490 400 q 478 460 490 431 q 444 512 465 489 q 393 549 422 535 q 331 563 364 563 q 268 549 297 563 q 218 512 239 535 q 185 460 197 489 q 172 400 172 431 l 172 258 q 185 197 172 226 q 219 144 197 167 q 269 107 240 121 q 331 93 297 93 q 392 107 364 93 q 443 144 421 121 q 478 197 465 167 q 490 258 490 226 l 490 400 z "},"œ":{"ha":1079,"x_min":57,"x_max":1033,"o":"m 331 667 q 458 632 400 667 q 551 540 517 597 q 642 632 586 597 q 767 667 699 667 q 868 648 819 667 q 953 595 917 629 q 1012 515 990 561 q 1033 413 1033 468 q 1023 347 1033 371 q 995 312 1013 324 q 956 298 978 300 q 910 296 933 296 l 606 296 l 606 254 q 660 131 606 176 q 806 86 715 86 q 870 94 844 86 q 913 113 896 103 q 944 132 931 124 q 969 140 957 140 q 1004 123 990 140 q 1018 86 1018 106 q 1002 56 1018 72 q 957 24 986 39 q 888 -1 928 10 q 799 -11 847 -11 q 651 23 715 -11 q 551 117 588 57 q 458 24 515 60 q 331 -11 400 -11 q 226 11 275 -11 q 139 71 176 33 q 79 157 101 108 q 57 258 57 206 l 57 400 q 78 501 57 453 q 138 587 100 550 q 224 645 175 624 q 331 667 274 667 m 490 400 q 478 460 490 431 q 444 512 465 489 q 393 549 422 535 q 331 563 364 563 q 268 549 297 563 q 218 512 239 535 q 185 460 197 489 q 172 400 172 431 l 172 258 q 185 197 172 226 q 219 144 197 167 q 269 107 240 121 q 331 93 297 93 q 392 107 364 93 q 443 144 421 121 q 478 197 465 167 q 490 258 490 226 l 490 400 m 863 374 q 911 382 899 374 q 924 418 924 390 q 912 477 924 449 q 879 527 900 506 q 829 562 858 549 q 765 575 800 575 q 703 563 732 575 q 653 532 675 551 q 618 485 631 513 q 606 426 606 457 l 606 374 l 863 374 z "}}}
